<svg width="2356" height="197" viewBox="0 0 2356 197" fill="none" xmlns="http://www.w3.org/2000/svg">
<g clip-path="url(#clip0_76_14)">
<path d="M46.7577 49.7391C66.8995 49.7391 81.5262 60.0498 85.9622 77.3141H63.3027C60.1855 71.6792 54.4307 68.6819 46.7577 68.6819C33.5696 68.6819 24.8175 78.0335 24.8175 92.6602C24.8175 108.246 33.6895 117.358 48.4362 117.358C58.6269 117.358 65.7005 111.963 68.8177 102.491H42.8013V87.385H87.4009V106.448C83.0848 120.955 69.0575 135.462 46.8776 135.462C21.7004 135.462 3.95642 117.837 3.95642 92.6602C3.95642 67.483 21.5805 49.7391 46.7577 49.7391ZM94.6806 101.292C94.6806 80.1915 107.749 67.0035 124.174 67.0035C134.125 67.0035 141.198 71.5593 144.795 77.434V67.9626H165.297V134.862H144.795V125.391C141.079 131.265 134.005 135.821 124.054 135.821C107.749 135.821 94.6806 122.393 94.6806 101.292ZM144.795 101.412C144.795 90.742 137.961 84.8673 130.168 84.8673C122.495 84.8673 115.542 90.6221 115.542 101.292C115.542 111.963 122.495 117.957 130.168 117.957C137.961 117.957 144.795 112.083 144.795 101.412ZM272.325 134.862V98.5349C272.325 89.7828 267.29 84.9872 259.497 84.9872C251.704 84.9872 246.668 89.7828 246.668 98.5349V134.862H226.287V98.5349C226.287 89.7828 221.251 84.9872 213.458 84.9872C205.665 84.9872 200.63 89.7828 200.63 98.5349V134.862H180.129V67.9626H200.63V76.355C204.586 70.9599 211.42 67.2432 220.172 67.2432C230.243 67.2432 238.396 71.6792 242.952 79.712C247.388 72.6384 255.78 67.2432 265.491 67.2432C282.036 67.2432 292.707 77.7937 292.707 95.7774V134.862H272.325ZM336.538 83.4286C329.824 83.4286 324.669 87.5049 323.47 94.9382H349.127C349.127 87.6248 343.372 83.4286 336.538 83.4286ZM368.549 112.682C365.312 125.75 353.443 135.821 336.778 135.821C317.116 135.821 302.969 122.633 302.969 101.412C302.969 80.1915 316.876 67.0035 336.778 67.0035C356.32 67.0035 370.108 79.9517 370.108 100.333C370.108 102.252 369.988 104.29 369.748 106.328H323.35C324.07 115.08 329.465 119.156 336.059 119.156C341.813 119.156 345.051 116.279 346.729 112.682H368.549ZM402.853 92.6602C402.853 67.483 420.357 49.7391 445.175 49.7391C465.197 49.7391 480.303 61.0089 485.099 79.2324H462.559C459.082 72.0389 452.728 68.4422 444.935 68.4422C432.347 68.4422 423.714 77.7937 423.714 92.6602C423.714 107.527 432.347 116.878 444.935 116.878C452.728 116.878 459.082 113.282 462.559 106.088H485.099C480.303 124.312 465.197 135.462 445.175 135.462C420.357 135.462 402.853 117.837 402.853 92.6602ZM497.654 134.862V46.1423H518.155V76.9545C522.231 71.1997 529.545 67.2432 538.776 67.2432C554.003 67.2432 564.193 77.7937 564.193 95.7774V134.862H543.812V98.5349C543.812 89.4232 538.776 84.3877 530.984 84.3877C523.191 84.3877 518.155 89.4232 518.155 98.5349V134.862H497.654ZM574.364 101.292C574.364 80.1915 587.432 67.0035 603.857 67.0035C613.808 67.0035 620.882 71.5593 624.478 77.434V67.9626H644.98V134.862H624.478V125.391C620.762 131.265 613.688 135.821 603.737 135.821C587.432 135.821 574.364 122.393 574.364 101.292ZM624.478 101.412C624.478 90.742 617.644 84.8673 609.851 84.8673C602.178 84.8673 595.225 90.6221 595.225 101.292C595.225 111.963 602.178 117.957 609.851 117.957C617.644 117.957 624.478 112.083 624.478 101.412ZM705.97 134.862V98.5349C705.97 89.4232 700.934 84.3877 693.141 84.3877C685.349 84.3877 680.313 89.4232 680.313 98.5349V134.862H659.812V67.9626H680.313V76.8346C684.389 71.1997 691.583 67.2432 700.575 67.2432C716.041 67.2432 726.351 77.7937 726.351 95.7774V134.862H705.97ZM736.522 101.292C736.522 80.1915 749.59 67.0035 766.015 67.0035C775.846 67.0035 783.039 71.4394 786.636 77.434V67.9626H807.138V134.742C807.138 152.606 796.827 167.832 773.688 167.832C753.786 167.832 740.838 157.761 739.039 141.816H759.301C760.62 146.851 765.655 150.088 772.729 150.088C780.522 150.088 786.636 146.012 786.636 134.742V125.271C782.92 131.145 775.846 135.821 766.015 135.821C749.59 135.821 736.522 122.393 736.522 101.292ZM786.636 101.412C786.636 90.742 779.802 84.8673 772.009 84.8673C764.336 84.8673 757.383 90.6221 757.383 101.292C757.383 111.963 764.336 117.957 772.009 117.957C779.802 117.957 786.636 112.083 786.636 101.412ZM851.463 83.4286C844.749 83.4286 839.594 87.5049 838.395 94.9382H864.051C864.051 87.6248 858.297 83.4286 851.463 83.4286ZM883.474 112.682C880.237 125.75 868.368 135.821 851.703 135.821C832.04 135.821 817.893 122.633 817.893 101.412C817.893 80.1915 831.801 67.0035 851.703 67.0035C871.245 67.0035 885.032 79.9517 885.032 100.333C885.032 102.252 884.913 104.29 884.673 106.328H838.275C838.994 115.08 844.389 119.156 850.983 119.156C856.738 119.156 859.975 116.279 861.654 112.682H883.474ZM916.349 103.81V134.862H895.848V67.9626H916.349V79.1125C921.025 72.0389 928.339 67.2432 937.33 67.2432V88.9436H931.696C921.984 88.9436 916.349 92.3006 916.349 103.81ZM1001.44 115.44C1001.44 127.069 991.13 135.821 974.345 135.821C956.481 135.821 944.492 125.87 943.533 112.922H963.795C964.274 117.598 968.47 120.715 974.105 120.715C979.38 120.715 982.138 118.317 982.138 115.32C982.138 104.529 945.691 112.322 945.691 87.7447C945.691 76.355 955.402 67.0035 972.906 67.0035C990.171 67.0035 999.762 76.5948 1001.08 89.7828H982.138C981.539 85.227 978.062 82.2297 972.307 82.2297C967.511 82.2297 964.874 84.1479 964.874 87.385C964.874 98.0554 1001.08 90.5022 1001.44 115.44Z" fill="white"/>
<path d="M1143.53 70.9446C1136.14 70.9446 1129.71 76.184 1129.71 87.5008C1129.71 98.8176 1135.91 104.057 1143.29 104.057C1150.67 104.057 1157.34 98.6965 1157.34 87.5008C1157.34 76.3052 1150.67 70.9446 1143.53 70.9446Z" fill="#EBD500"/>
<path d="M1295.38 71.0657C1287.75 71.0657 1280.84 76.7797 1280.84 87.3797C1280.84 97.9797 1287.75 103.936 1295.38 103.936C1303 103.936 1309.91 98.1009 1309.91 87.5008C1309.91 76.9008 1303.12 71.0657 1295.38 71.0657Z" fill="#EBD500"/>
<path d="M1027.99 1.52588e-05V177.621H2035.22V1.52588e-05H1027.99ZM1103.27 120.729H1056.23V37.1203H1076.6V105.006H1103.27V120.724V120.729ZM1143.29 121.683C1123.76 121.683 1108.99 108.585 1108.99 87.5059C1108.99 66.4269 1124.11 53.3233 1143.53 53.3233C1162.94 53.3233 1178.06 66.4219 1178.06 87.5059C1178.06 108.59 1162.82 121.683 1143.28 121.683H1143.29ZM1215.11 152.292H1193.2L1208.44 118.468L1181.4 54.2773H1204.15L1219.51 95.8395L1234.76 54.2773H1256.79L1215.11 152.292ZM1330.27 120.734H1309.91V111.326C1306.22 117.161 1299.19 121.688 1289.3 121.688C1273.11 121.688 1260.13 108.348 1260.13 87.3898C1260.13 66.432 1273.11 53.3283 1289.42 53.3283C1299.31 53.3283 1306.33 57.856 1309.91 63.6911V54.2823H1330.27V120.74V120.734ZM1365.41 120.734H1345.04V32.5977H1365.41V120.729V120.734ZM1417.22 120.734H1406.85C1393.04 120.734 1383.39 114.899 1383.39 97.6314V71.1919H1375.29V54.2823H1383.39V38.0844H1403.76V54.2823H1417.1V71.1919H1403.76V97.8687C1403.76 101.801 1405.42 103.466 1409.95 103.466H1417.22V120.734ZM1454.73 152.292H1432.82L1448.06 118.468L1421.03 54.2773H1443.77L1459.14 95.8395L1474.38 54.2773H1496.41L1454.73 152.292ZM1559.3 121.567C1541.31 121.567 1527.26 112.633 1526.66 95.7234H1548.34C1548.93 102.154 1552.98 105.253 1558.7 105.253C1564.42 105.253 1568.47 102.275 1568.47 97.3942C1568.47 81.9131 1526.67 90.2467 1526.91 60.5919C1526.91 44.7524 1539.89 35.9392 1557.39 35.9392C1574.9 35.9392 1587.88 44.9896 1588.71 60.9502H1566.68C1566.32 55.5896 1562.51 52.3743 1557.03 52.2582C1552.15 52.1371 1548.46 54.6407 1548.46 59.8801C1548.46 74.4123 1589.78 67.8605 1589.78 95.8446C1589.78 109.897 1578.83 121.567 1559.3 121.567ZM1667.91 120.734H1647.54V111.684C1643.5 117.403 1636.35 121.451 1627.42 121.451C1612.05 121.451 1601.7 110.851 1601.7 93.1087V54.2823H1621.94V90.3679C1621.94 99.4183 1627.07 104.42 1634.69 104.42C1642.31 104.42 1647.55 99.4183 1647.55 90.3679V54.2823H1667.92V120.74L1667.91 120.734ZM1794.39 120.734H1774.14V84.6489C1774.14 75.9569 1769.14 71.1919 1761.4 71.1919C1753.66 71.1919 1748.65 75.9569 1748.65 84.6489V120.734H1728.41V84.6489C1728.41 75.9569 1723.4 71.1919 1715.66 71.1919C1707.92 71.1919 1702.92 75.9569 1702.92 84.6489V120.734H1682.55V54.2722H1702.92V62.6109C1706.85 57.2503 1713.64 53.5605 1722.33 53.5605C1732.33 53.5605 1740.43 57.9671 1744.96 65.9474C1749.36 58.9211 1757.7 53.5605 1767.35 53.5605C1783.78 53.5605 1794.38 64.0394 1794.38 81.903V120.729L1794.39 120.734ZM1920.52 120.734H1900.27V84.6489C1900.27 75.9569 1895.27 71.1919 1887.52 71.1919C1879.78 71.1919 1874.78 75.9569 1874.78 84.6489V120.734H1854.53V84.6489C1854.53 75.9569 1849.53 71.1919 1841.79 71.1919C1834.04 71.1919 1829.04 75.9569 1829.04 84.6489V120.734H1808.67V54.2722H1829.04V62.6109C1832.97 57.2503 1839.76 53.5605 1848.46 53.5605C1858.46 53.5605 1866.56 57.9671 1871.08 65.9474C1875.49 58.9211 1883.83 53.5605 1893.47 53.5605C1909.91 53.5605 1920.51 64.0394 1920.51 81.903V120.729L1920.52 120.734ZM1955.17 120.734H1934.8V54.2722H1955.17V120.729V120.734ZM1945.05 47.3721C1937.79 47.3721 1932.9 42.491 1932.9 36.4137C1932.9 30.3363 1937.78 25.3392 1945.05 25.3392C1952.32 25.3392 1957.08 30.2202 1957.08 36.4137C1957.08 42.6071 1952.2 47.3721 1945.05 47.3721ZM2006.98 120.734H1996.62C1982.8 120.734 1973.16 114.899 1973.16 97.6314V71.1919H1965.06V54.2823H1973.16V38.0844H1993.52V54.2823H2006.87V71.1919H1993.52V97.8687C1993.52 101.801 1995.19 103.466 1999.72 103.466H2006.98V120.734Z" fill="#EBD500"/>
<path d="M2064.49 133.306V117.619C2083.64 101.808 2104.02 86.1211 2104.02 70.928C2104.02 64.3814 2101.05 60.1817 2094.63 60.1817C2088.33 60.1817 2084.62 65.1226 2084.62 73.6455H2064.24C2064.86 51.7823 2079.07 42.3947 2095.49 42.3947C2116 42.3947 2125.14 54.3763 2125.14 69.5693C2125.14 89.3326 2107.48 105.143 2093.15 116.137H2126.5V133.306H2064.49ZM2135.8 88.221C2135.8 61.7875 2144.82 42.5183 2170.51 42.5183C2196.2 42.5183 2205.22 61.7875 2205.22 88.221C2205.22 114.901 2196.2 134.171 2170.51 134.171C2144.82 134.171 2135.8 114.901 2135.8 88.221ZM2184.47 88.221C2184.47 74.3866 2182.98 62.2816 2170.51 62.2816C2158.03 62.2816 2156.55 74.3866 2156.55 88.221C2156.55 102.549 2158.03 114.407 2170.51 114.407C2182.98 114.407 2184.47 102.549 2184.47 88.221ZM2215.63 133.306V117.619C2234.78 101.808 2255.16 86.1211 2255.16 70.928C2255.16 64.3814 2252.2 60.1817 2245.77 60.1817C2239.47 60.1817 2235.77 65.1226 2235.77 73.6455H2215.39C2216.01 51.7823 2230.21 42.3947 2246.64 42.3947C2267.14 42.3947 2276.28 54.3763 2276.28 69.5693C2276.28 89.3326 2258.62 105.143 2244.29 116.137H2277.64V133.306H2215.63ZM2287.68 69.8164C2288.42 52.0294 2300.04 42.2712 2318.44 42.2712C2337.46 42.2712 2347.71 53.1411 2347.71 66.7283C2347.71 78.5863 2340.3 84.8859 2334.13 86.9857V87.4798C2343.14 90.4443 2349.32 97.3615 2349.32 109.219C2349.32 124.413 2338.45 135.282 2319.55 135.282C2300.78 135.282 2287.19 126.389 2286.57 106.008H2307.08C2307.2 113.049 2311.03 117.742 2318.81 117.742C2325.36 117.742 2328.94 113.543 2328.94 107.614C2328.94 99.5849 2324.12 96.3733 2313.13 96.3733H2309.18V79.2039H2313.13C2320.29 79.2039 2327.21 77.4746 2327.21 69.3223C2327.21 63.2698 2323.63 59.9347 2317.95 59.9347C2311.15 59.9347 2308.68 64.8755 2308.31 69.8164H2287.68Z" fill="white"/>
</g>
<defs>
<clipPath id="clip0_76_14">
<rect width="2356" height="196.918" fill="white"/>
</clipPath>
</defs>
</svg>
