<svg width="2441" height="325" viewBox="0 0 2441 325" fill="none" xmlns="http://www.w3.org/2000/svg">
<rect width="2441" height="325" fill="white"/>
<g clip-path="url(#clip0_77_28)">
<rect x="1083" y="71" width="984" height="178" fill="#29388B"/>
<path d="M88.7577 120.739C108.899 120.739 123.526 131.05 127.962 148.314H105.303C102.186 142.679 96.4307 139.682 88.7577 139.682C75.5696 139.682 66.8175 149.033 66.8175 163.66C66.8175 179.246 75.6895 188.358 90.4362 188.358C100.627 188.358 107.701 182.963 110.818 173.491H84.8013V158.385H129.401V177.448C125.085 191.955 111.058 206.461 88.8776 206.461C63.7004 206.461 45.9564 188.837 45.9564 163.66C45.9564 138.483 63.5805 120.739 88.7577 120.739ZM136.681 172.292C136.681 151.192 149.749 138.003 166.174 138.003C176.125 138.003 183.198 142.559 186.795 148.434V138.963H207.297V205.862H186.795V196.391C183.079 202.265 176.005 206.821 166.054 206.821C149.749 206.821 136.681 193.393 136.681 172.292ZM186.795 172.412C186.795 161.742 179.961 155.867 172.168 155.867C164.495 155.867 157.542 161.622 157.542 172.292C157.542 182.963 164.495 188.957 172.168 188.957C179.961 188.957 186.795 183.083 186.795 172.412ZM314.325 205.862V169.535C314.325 160.783 309.29 155.987 301.497 155.987C293.704 155.987 288.668 160.783 288.668 169.535V205.862H268.287V169.535C268.287 160.783 263.251 155.987 255.458 155.987C247.665 155.987 242.63 160.783 242.63 169.535V205.862H222.129V138.963H242.63V147.355C246.586 141.96 253.42 138.243 262.172 138.243C272.243 138.243 280.396 142.679 284.952 150.712C289.388 143.638 297.78 138.243 307.491 138.243C324.036 138.243 334.707 148.794 334.707 166.777V205.862H314.325ZM378.538 154.429C371.824 154.429 366.669 158.505 365.47 165.938H391.127C391.127 158.625 385.372 154.429 378.538 154.429ZM410.549 183.682C407.312 196.75 395.443 206.821 378.778 206.821C359.116 206.821 344.969 193.633 344.969 172.412C344.969 151.192 358.876 138.003 378.778 138.003C398.32 138.003 412.108 150.952 412.108 171.333C412.108 173.252 411.988 175.29 411.748 177.328H365.35C366.07 186.08 371.465 190.156 378.059 190.156C383.813 190.156 387.051 187.279 388.729 183.682H410.549ZM444.853 163.66C444.853 138.483 462.357 120.739 487.175 120.739C507.197 120.739 522.303 132.009 527.099 150.232H504.559C501.082 143.039 494.728 139.442 486.935 139.442C474.347 139.442 465.714 148.794 465.714 163.66C465.714 178.527 474.347 187.878 486.935 187.878C494.728 187.878 501.082 184.282 504.559 177.088H527.099C522.303 195.312 507.197 206.461 487.175 206.461C462.357 206.461 444.853 188.837 444.853 163.66ZM539.654 205.862V117.142H560.155V147.954C564.231 142.2 571.545 138.243 580.776 138.243C596.003 138.243 606.193 148.794 606.193 166.777V205.862H585.812V169.535C585.812 160.423 580.776 155.388 572.984 155.388C565.191 155.388 560.155 160.423 560.155 169.535V205.862H539.654ZM616.364 172.292C616.364 151.192 629.432 138.003 645.857 138.003C655.808 138.003 662.882 142.559 666.478 148.434V138.963H686.98V205.862H666.478V196.391C662.762 202.265 655.688 206.821 645.737 206.821C629.432 206.821 616.364 193.393 616.364 172.292ZM666.478 172.412C666.478 161.742 659.644 155.867 651.851 155.867C644.178 155.867 637.225 161.622 637.225 172.292C637.225 182.963 644.178 188.957 651.851 188.957C659.644 188.957 666.478 183.083 666.478 172.412ZM747.97 205.862V169.535C747.97 160.423 742.934 155.388 735.141 155.388C727.349 155.388 722.313 160.423 722.313 169.535V205.862H701.812V138.963H722.313V147.835C726.389 142.2 733.583 138.243 742.575 138.243C758.041 138.243 768.351 148.794 768.351 166.777V205.862H747.97ZM778.522 172.292C778.522 151.192 791.59 138.003 808.015 138.003C817.846 138.003 825.039 142.439 828.636 148.434V138.963H849.138V205.742C849.138 223.606 838.827 238.832 815.688 238.832C795.786 238.832 782.838 228.761 781.039 212.816H801.301C802.62 217.851 807.655 221.088 814.729 221.088C822.522 221.088 828.636 217.012 828.636 205.742V196.271C824.92 202.145 817.846 206.821 808.015 206.821C791.59 206.821 778.522 193.393 778.522 172.292ZM828.636 172.412C828.636 161.742 821.802 155.867 814.009 155.867C806.336 155.867 799.383 161.622 799.383 172.292C799.383 182.963 806.336 188.957 814.009 188.957C821.802 188.957 828.636 183.083 828.636 172.412ZM893.463 154.429C886.749 154.429 881.594 158.505 880.395 165.938H906.051C906.051 158.625 900.297 154.429 893.463 154.429ZM925.474 183.682C922.237 196.75 910.368 206.821 893.703 206.821C874.04 206.821 859.893 193.633 859.893 172.412C859.893 151.192 873.801 138.003 893.703 138.003C913.245 138.003 927.032 150.952 927.032 171.333C927.032 173.252 926.913 175.29 926.673 177.328H880.275C880.994 186.08 886.389 190.156 892.983 190.156C898.738 190.156 901.975 187.279 903.654 183.682H925.474ZM958.349 174.81V205.862H937.848V138.963H958.349V150.112C963.025 143.039 970.339 138.243 979.33 138.243V159.944H973.696C963.984 159.944 958.349 163.301 958.349 174.81ZM1043.44 186.44C1043.44 198.069 1033.13 206.821 1016.35 206.821C998.481 206.821 986.492 196.87 985.533 183.922H1005.79C1006.27 188.598 1010.47 191.715 1016.11 191.715C1021.38 191.715 1024.14 189.317 1024.14 186.32C1024.14 175.529 987.691 183.322 987.691 158.745C987.691 147.355 997.402 138.003 1014.91 138.003C1032.17 138.003 1041.76 147.595 1043.08 160.783H1024.14C1023.54 156.227 1020.06 153.23 1014.31 153.23C1009.51 153.23 1006.87 155.148 1006.87 158.385C1006.87 169.055 1043.08 161.502 1043.44 186.44Z" fill="#29388B"/>
<path d="M1185.53 141.945C1178.14 141.945 1171.71 147.184 1171.71 158.501C1171.71 169.818 1177.91 175.057 1185.29 175.057C1192.67 175.057 1199.34 169.696 1199.34 158.501C1199.34 147.305 1192.67 141.945 1185.53 141.945Z" fill="#EBD500"/>
<path d="M1337.38 142.066C1329.75 142.066 1322.84 147.78 1322.84 158.38C1322.84 168.98 1329.75 174.936 1337.38 174.936C1345 174.936 1351.91 169.101 1351.91 158.501C1351.91 147.901 1345.12 142.066 1337.38 142.066Z" fill="#EBD500"/>
<path d="M1069.99 71V248.621H2077.22V71H1069.99ZM1145.27 191.729H1098.23V108.12H1118.6V176.006H1145.27V191.724V191.729ZM1185.29 192.683C1165.76 192.683 1150.99 179.585 1150.99 158.506C1150.99 137.427 1166.11 124.323 1185.53 124.323C1204.94 124.323 1220.06 137.422 1220.06 158.506C1220.06 179.59 1204.82 192.683 1185.28 192.683H1185.29ZM1257.11 223.292H1235.2L1250.44 189.468L1223.4 125.277H1246.15L1261.51 166.84L1276.76 125.277H1298.79L1257.11 223.292ZM1372.27 191.734H1351.91V182.326C1348.22 188.161 1341.19 192.688 1331.3 192.688C1315.11 192.688 1302.13 179.348 1302.13 158.39C1302.13 137.432 1315.11 124.328 1331.42 124.328C1341.31 124.328 1348.33 128.856 1351.91 134.691V125.282H1372.27V191.739V191.734ZM1407.41 191.734H1387.04V103.598H1407.41V191.729V191.734ZM1459.22 191.734H1448.85C1435.04 191.734 1425.39 185.899 1425.39 168.631V142.192H1417.29V125.282H1425.39V109.084H1445.76V125.282H1459.1V142.192H1445.76V168.869C1445.76 172.801 1447.42 174.466 1451.95 174.466H1459.22V191.734ZM1496.73 223.292H1474.82L1490.06 189.468L1463.03 125.277H1485.77L1501.14 166.84L1516.38 125.277H1538.41L1496.73 223.292ZM1601.3 192.567C1583.31 192.567 1569.26 183.633 1568.66 166.723H1590.34C1590.93 173.154 1594.98 176.253 1600.7 176.253C1606.42 176.253 1610.47 173.275 1610.47 168.394C1610.47 152.913 1568.67 161.247 1568.91 131.592C1568.91 115.752 1581.89 106.939 1599.39 106.939C1616.9 106.939 1629.88 115.99 1630.71 131.95H1608.68C1608.32 126.59 1604.51 123.374 1599.03 123.258C1594.15 123.137 1590.46 125.641 1590.46 130.88C1590.46 145.412 1631.78 138.86 1631.78 166.845C1631.78 180.897 1620.83 192.567 1601.3 192.567ZM1709.91 191.734H1689.54V182.684C1685.5 188.403 1678.35 192.451 1669.42 192.451C1654.05 192.451 1643.7 181.851 1643.7 164.109V125.282H1663.94V161.368C1663.94 170.418 1669.07 175.42 1676.69 175.42C1684.31 175.42 1689.55 170.418 1689.55 161.368V125.282H1709.92V191.739L1709.91 191.734ZM1836.39 191.734H1816.14V155.649C1816.14 146.957 1811.14 142.192 1803.4 142.192C1795.66 142.192 1790.65 146.957 1790.65 155.649V191.734H1770.41V155.649C1770.41 146.957 1765.4 142.192 1757.66 142.192C1749.92 142.192 1744.92 146.957 1744.92 155.649V191.734H1724.55V125.272H1744.92V133.611C1748.85 128.25 1755.64 124.56 1764.33 124.56C1774.33 124.56 1782.43 128.967 1786.96 136.947C1791.36 129.921 1799.7 124.56 1809.35 124.56C1825.78 124.56 1836.38 135.039 1836.38 152.903V191.729L1836.39 191.734ZM1962.52 191.734H1942.27V155.649C1942.27 146.957 1937.27 142.192 1929.52 142.192C1921.78 142.192 1916.78 146.957 1916.78 155.649V191.734H1896.53V155.649C1896.53 146.957 1891.53 142.192 1883.79 142.192C1876.04 142.192 1871.04 146.957 1871.04 155.649V191.734H1850.67V125.272H1871.04V133.611C1874.97 128.25 1881.76 124.56 1890.46 124.56C1900.46 124.56 1908.56 128.967 1913.08 136.947C1917.49 129.921 1925.83 124.56 1935.47 124.56C1951.91 124.56 1962.51 135.039 1962.51 152.903V191.729L1962.52 191.734ZM1997.17 191.734H1976.8V125.272H1997.17V191.729V191.734ZM1987.05 118.372C1979.79 118.372 1974.9 113.491 1974.9 107.414C1974.9 101.336 1979.78 96.3391 1987.05 96.3391C1994.32 96.3391 1999.08 101.22 1999.08 107.414C1999.08 113.607 1994.2 118.372 1987.05 118.372ZM2048.98 191.734H2038.62C2024.8 191.734 2015.16 185.899 2015.16 168.631V142.192H2007.06V125.282H2015.16V109.084H2035.52V125.282H2048.87V142.192H2035.52V168.869C2035.52 172.801 2037.19 174.466 2041.72 174.466H2048.98V191.734Z" fill="#EBD500"/>
<path d="M2106.49 204.306V188.619C2125.64 172.808 2146.02 157.121 2146.02 141.928C2146.02 135.381 2143.05 131.182 2136.63 131.182C2130.33 131.182 2126.62 136.123 2126.62 144.645H2106.24C2106.86 122.782 2121.07 113.395 2137.49 113.395C2158 113.395 2167.14 125.376 2167.14 140.569C2167.14 160.333 2149.48 176.143 2135.15 187.137H2168.5V204.306H2106.49ZM2177.8 159.221C2177.8 132.788 2186.82 113.518 2212.51 113.518C2238.2 113.518 2247.22 132.788 2247.22 159.221C2247.22 185.901 2238.2 205.171 2212.51 205.171C2186.82 205.171 2177.8 185.901 2177.8 159.221ZM2226.47 159.221C2226.47 145.387 2224.98 133.282 2212.51 133.282C2200.03 133.282 2198.55 145.387 2198.55 159.221C2198.55 173.549 2200.03 185.407 2212.51 185.407C2224.98 185.407 2226.47 173.549 2226.47 159.221ZM2257.63 204.306V188.619C2276.78 172.808 2297.16 157.121 2297.16 141.928C2297.16 135.381 2294.2 131.182 2287.77 131.182C2281.47 131.182 2277.77 136.123 2277.77 144.645H2257.39C2258.01 122.782 2272.21 113.395 2288.64 113.395C2309.14 113.395 2318.28 125.376 2318.28 140.569C2318.28 160.333 2300.62 176.143 2286.29 187.137H2319.64V204.306H2257.63ZM2329.68 140.816C2330.42 123.029 2342.04 113.271 2360.44 113.271C2379.46 113.271 2389.71 124.141 2389.71 137.728C2389.71 149.586 2382.3 155.886 2376.13 157.986V158.48C2385.14 161.444 2391.32 168.361 2391.32 180.219C2391.32 195.413 2380.45 206.282 2361.55 206.282C2342.78 206.282 2329.19 197.389 2328.57 177.008H2349.08C2349.2 184.049 2353.03 188.742 2360.81 188.742C2367.36 188.742 2370.94 184.543 2370.94 178.614C2370.94 170.585 2366.12 167.373 2355.13 167.373H2351.18V150.204H2355.13C2362.29 150.204 2369.21 148.475 2369.21 140.322C2369.21 134.27 2365.63 130.935 2359.95 130.935C2353.15 130.935 2350.68 135.876 2350.31 140.816H2329.68Z" fill="#29388B"/>
</g>
<defs>
<clipPath id="clip0_77_28">
<rect width="2356" height="196.918" fill="white" transform="translate(42 71)"/>
</clipPath>
</defs>
</svg>
