<svg width="460" height="77" viewBox="0 0 460 77" fill="none" xmlns="http://www.w3.org/2000/svg">
<path fill-rule="evenodd" clip-rule="evenodd" d="M460 0H0V77H460V0ZM417.895 19.99C416.273 19.99 414.941 19.522 413.898 18.5861C412.891 17.614 412.387 16.426 412.387 15.022C412.387 13.582 412.891 12.394 413.898 11.458C414.941 10.486 416.273 10 417.895 10C419.479 10 420.773 10.486 421.781 11.458C422.826 12.394 423.348 13.582 423.348 15.022C423.348 16.426 422.826 17.614 421.781 18.5861C420.773 19.522 419.479 19.99 417.895 19.99ZM422.484 53.254H413.25V23.1219H422.484V53.254ZM155.121 53.254V13.2939H145.887V53.254H155.121ZM24.2344 46.126H36.3301V53.254H15V15.3459H24.2344V46.126ZM54.4512 53.686C51.498 53.686 48.834 53.056 46.459 51.796C44.1191 50.536 42.2637 48.736 40.8965 46.396C39.5645 44.056 38.8984 41.3199 38.8984 38.188C38.8984 35.092 39.582 32.374 40.9512 30.0341C42.3184 27.658 44.1895 25.84 46.5664 24.58C48.9414 23.3199 51.6055 22.6899 54.5586 22.6899C57.5098 22.6899 60.1738 23.3199 62.5508 24.58C64.9258 25.84 66.7988 27.658 68.166 30.0341C69.5352 32.374 70.2188 35.092 70.2188 38.188C70.2188 41.2841 69.5156 44.02 68.1133 46.396C66.7441 48.736 64.8535 50.536 62.4414 51.796C60.0664 53.056 57.4023 53.686 54.4512 53.686ZM54.4512 45.694C56.2148 45.694 57.709 45.046 58.9316 43.75C60.1914 42.454 60.8223 40.6 60.8223 38.188C60.8223 35.776 60.2109 33.922 58.9863 32.626C57.7988 31.33 56.3223 30.682 54.5586 30.682C52.7578 30.682 51.2637 31.33 50.0762 32.626C48.8887 33.886 48.2949 35.74 48.2949 38.188C48.2949 40.6 48.8711 42.454 50.0215 43.75C51.2109 45.046 52.6855 45.694 54.4512 45.694ZM86.998 67.564L105.896 23.1219H95.9062L88.9961 41.968L82.0293 23.1219H71.7148L83.9727 52.228L77.0605 67.564H86.998ZM107.4 38.134C107.4 35.038 107.977 32.3199 109.129 29.98C110.316 27.64 111.918 25.84 113.934 24.58C115.951 23.3199 118.201 22.6899 120.684 22.6899C122.809 22.6899 124.662 23.1219 126.246 23.986C127.867 24.85 129.107 25.984 129.973 27.3879V23.1219H139.207V53.254H129.973V48.988C129.072 50.392 127.812 51.526 126.191 52.39C124.607 53.254 122.754 53.686 120.631 53.686C118.182 53.686 115.951 53.056 113.934 51.796C111.918 50.5 110.316 48.682 109.129 46.342C107.977 43.9659 107.4 41.23 107.4 38.134ZM129.973 38.188C129.973 35.884 129.324 34.066 128.029 32.734C126.768 31.402 125.221 30.736 123.385 30.736C121.549 30.736 119.982 31.402 118.686 32.734C117.426 34.03 116.797 35.83 116.797 38.134C116.797 40.438 117.426 42.274 118.686 43.642C119.982 44.974 121.549 45.64 123.385 45.64C125.221 45.64 126.768 44.974 128.029 43.642C129.324 42.3101 129.973 40.4919 129.973 38.188ZM178.607 45.424V53.254H173.908C170.561 53.254 167.951 52.444 166.078 50.824C164.207 49.168 163.27 46.486 163.27 42.778V30.79H159.598V23.1219H163.27V15.778H172.504V23.1219H178.553V30.79H172.504V42.886L172.51 43.1296C172.514 43.22 172.52 43.3075 172.529 43.3922C172.553 43.6178 172.594 43.8234 172.652 44.0089C172.762 44.3506 172.928 44.6243 173.152 44.83C173.584 45.226 174.305 45.424 175.312 45.424H178.607ZM195.631 67.564L214.529 23.1219H204.539L197.629 41.968L190.662 23.1219H180.348L192.605 52.228L185.693 67.564H195.631ZM243.029 53.632C240.256 53.632 237.773 53.182 235.576 52.282C233.381 51.382 231.617 50.05 230.285 48.286C228.988 46.522 228.305 44.3979 228.232 41.9141H238.061C238.205 43.318 238.691 44.3979 239.518 45.1541C240.346 45.874 241.426 46.234 242.758 46.234C244.127 46.234 245.207 45.928 245.998 45.316C246.791 44.668 247.186 43.786 247.186 42.67C247.186 41.734 246.863 40.96 246.215 40.348C245.602 39.736 244.828 39.2321 243.893 38.8361C242.992 38.4399 241.697 37.99 240.004 37.486C237.557 36.73 235.559 35.974 234.01 35.218C232.463 34.462 231.131 33.3459 230.014 31.87C228.898 30.394 228.34 28.468 228.34 26.092C228.34 22.564 229.619 19.8101 232.174 17.83C234.73 15.814 238.061 14.806 242.164 14.806C246.34 14.806 249.707 15.814 252.262 17.83C254.818 19.8101 256.186 22.582 256.367 26.146H246.377C246.305 24.922 245.855 23.968 245.027 23.2841C244.199 22.564 243.137 22.204 241.84 22.204C240.725 22.204 239.824 22.51 239.141 23.1219C238.457 23.698 238.115 24.5439 238.115 25.66C238.115 26.884 238.691 27.838 239.842 28.522C240.994 29.2061 242.795 29.944 245.242 30.736C247.691 31.564 249.67 32.356 251.182 33.1121C252.73 33.868 254.062 34.9659 255.178 36.406C256.295 37.8459 256.852 39.7 256.852 41.968C256.852 44.1281 256.295 46.09 255.178 47.854C254.098 49.618 252.514 51.022 250.426 52.066C248.338 53.11 245.873 53.632 243.029 53.632ZM283.055 53.254H292.289V23.1219H283.055V39.484C283.055 41.5 282.533 43.066 281.488 44.182C280.445 45.298 279.023 45.856 277.223 45.856C275.459 45.856 274.055 45.298 273.012 44.182C271.967 43.066 271.445 41.5 271.445 39.484V23.1219H262.266V40.726C262.266 43.354 262.752 45.64 263.723 47.584C264.695 49.528 266.062 51.022 267.828 52.066C269.592 53.074 271.625 53.578 273.93 53.578C275.873 53.578 277.637 53.182 279.221 52.39C280.842 51.562 282.119 50.4821 283.055 49.15V53.254ZM337.369 22.798C341.113 22.798 344.084 23.932 346.279 26.2C348.512 28.468 349.627 31.618 349.627 35.65V53.254H340.447V36.892C340.447 34.948 339.926 33.454 338.883 32.41C337.873 31.33 336.471 30.79 334.67 30.79C332.869 30.79 331.447 31.33 330.404 32.41C329.396 33.454 328.893 34.948 328.893 36.892V53.254H319.711V36.892C319.711 34.948 319.189 33.454 318.146 32.41C317.139 31.33 315.734 30.79 313.934 30.79C312.135 30.79 310.711 31.33 309.668 32.41C308.66 33.454 308.156 34.948 308.156 36.892V53.254H298.922V23.1219H308.156V26.902C309.092 25.642 310.316 24.652 311.828 23.932C313.34 23.176 315.051 22.798 316.957 22.798C319.227 22.798 321.242 23.2841 323.006 24.256C324.807 25.228 326.209 26.614 327.219 28.4141C328.262 26.7581 329.684 25.408 331.484 24.364C333.283 23.3199 335.246 22.798 337.369 22.798ZM403.443 26.2C401.248 23.932 398.277 22.798 394.533 22.798C392.41 22.798 390.447 23.3199 388.648 24.364C386.848 25.408 385.426 26.7581 384.383 28.4141C383.373 26.614 381.971 25.228 380.17 24.256C378.406 23.2841 376.391 22.798 374.121 22.798C372.215 22.798 370.504 23.176 368.992 23.932C367.48 24.652 366.256 25.642 365.32 26.902V23.1219H356.086V53.254H365.32V36.892C365.32 34.948 365.824 33.454 366.832 32.41C367.875 31.33 369.299 30.79 371.098 30.79C372.898 30.79 374.303 31.33 375.311 32.41C376.354 33.454 376.875 34.948 376.875 36.892V53.254H386.057V36.892C386.057 34.948 386.561 33.454 387.568 32.41C388.611 31.33 390.033 30.79 391.834 30.79C393.635 30.79 395.037 31.33 396.047 32.41C397.09 33.454 397.611 34.948 397.611 36.892V53.254H406.791V35.65C406.791 31.618 405.676 28.468 403.443 26.2ZM445.971 53.254V45.424H442.676C441.668 45.424 440.947 45.226 440.516 44.83C440.084 44.434 439.867 43.786 439.867 42.886V30.79H445.916V23.1219H439.867V15.778H430.633V23.1219H426.961V30.79H430.633V42.778C430.633 46.486 431.57 49.168 433.441 50.824C435.314 52.444 437.924 53.254 441.271 53.254H445.971Z" fill="#EBD603"/>
</svg>
