<svg width="44" height="45" viewBox="0 0 44 45" fill="none" xmlns="http://www.w3.org/2000/svg">
<rect y="0.600342" width="44" height="44" rx="8" fill="#FDE68A"/>
<path d="M30.2499 12.1003C29.6006 12.1001 28.9687 12.3105 28.4493 12.7001C27.9299 13.0897 27.5509 13.6374 27.3694 14.2608C27.1879 14.8842 27.2136 15.5497 27.4428 16.1573C27.6719 16.7648 28.092 17.2816 28.64 17.6299L26.6824 24.4814C26.6216 24.4776 26.5608 24.4755 26.4999 24.4753C25.8546 24.4746 25.2264 24.6832 24.7096 25.0696L21.093 22.0558C21.2642 21.5478 21.2962 21.0032 21.1856 20.4786C21.075 19.9541 20.8258 19.4688 20.4641 19.0731C20.1023 18.6775 19.6411 18.3861 19.1285 18.2291C18.616 18.0721 18.0707 18.0554 17.5494 18.1806C17.0282 18.3058 16.55 18.5684 16.1646 18.9411C15.7793 19.3138 15.5008 19.7829 15.3582 20.2996C15.2156 20.8164 15.2141 21.3619 15.3538 21.8795C15.4935 22.3971 15.7694 22.8677 16.1527 23.2425L14.0296 27.4888C13.9366 27.48 13.8433 27.4755 13.7499 27.4753C13.0312 27.4744 12.336 27.7312 11.7904 28.1991C11.2449 28.667 10.8852 29.315 10.7767 30.0254C10.6681 30.7359 10.8179 31.4617 11.1988 32.0712C11.5797 32.6807 12.1665 33.1334 12.8527 33.3471C13.5388 33.5609 14.2789 33.5215 14.9386 33.2362C15.5982 32.9508 16.1337 32.4385 16.4478 31.7921C16.7619 31.1456 16.8338 30.408 16.6505 29.7131C16.4672 29.0181 16.0409 28.412 15.4488 28.0046L17.455 23.9926C17.9424 24.127 18.4558 24.1358 18.9475 24.0181C19.4392 23.9005 19.893 23.6602 20.2667 23.3196L23.7682 26.2377C23.5305 26.7617 23.4484 27.343 23.5318 27.9124C23.6153 28.4817 23.8607 29.015 24.2388 29.4488C24.6169 29.8825 25.1118 30.1984 25.6645 30.3586C26.2171 30.5189 26.8042 30.5169 27.3557 30.3528C27.9072 30.1887 28.3999 29.8694 28.7751 29.4331C29.1502 28.9967 29.3919 28.4617 29.4714 27.8918C29.5509 27.3219 29.4648 26.7411 29.2234 26.2188C28.982 25.6965 28.5954 25.2546 28.1099 24.9458L30.0674 18.0942C30.1278 18.0979 30.1885 18.1003 30.2499 18.1003C31.0455 18.1003 31.8086 17.7843 32.3712 17.2217C32.9338 16.6591 33.2499 15.896 33.2499 15.1003C33.2499 14.3047 32.9338 13.5416 32.3712 12.979C31.8086 12.4164 31.0455 12.1003 30.2499 12.1003ZM13.7499 31.9753C13.4532 31.9753 13.1632 31.8874 12.9165 31.7225C12.6699 31.5577 12.4776 31.3235 12.3641 31.0494C12.2505 30.7753 12.2208 30.4737 12.2787 30.1827C12.3366 29.8917 12.4794 29.6245 12.6892 29.4147C12.899 29.2049 13.1663 29.062 13.4573 29.0042C13.7482 28.9463 14.0498 28.976 14.3239 29.0895C14.598 29.2031 14.8323 29.3953 14.9971 29.642C15.1619 29.8887 15.2499 30.1787 15.2499 30.4753C15.2494 30.873 15.0913 31.2543 14.8101 31.5355C14.5288 31.8167 14.1476 31.9749 13.7499 31.9753ZM18.2499 22.6003C17.9532 22.6003 17.6632 22.5124 17.4165 22.3475C17.1699 22.1827 16.9776 21.9485 16.8641 21.6744C16.7505 21.4003 16.7208 21.0987 16.7787 20.8077C16.8366 20.5167 16.9794 20.2495 17.1892 20.0397C17.399 19.8299 17.6663 19.687 17.9573 19.6292C18.2482 19.5713 18.5498 19.601 18.8239 19.7145C19.098 19.8281 19.3323 20.0203 19.4971 20.267C19.6619 20.5137 19.7499 20.8037 19.7499 21.1003C19.7494 21.498 19.5913 21.8793 19.3101 22.1605C19.0288 22.4417 18.6476 22.5999 18.2499 22.6003ZM26.4999 28.9753C26.2032 28.9753 25.9132 28.8874 25.6665 28.7225C25.4199 28.5577 25.2276 28.3235 25.1141 28.0494C25.0005 27.7753 24.9708 27.4737 25.0287 27.1827C25.0866 26.8917 25.2294 26.6245 25.4392 26.4147C25.649 26.2049 25.9163 26.062 26.2072 26.0042C26.4982 25.9463 26.7998 25.976 27.0739 26.0895C27.348 26.2031 27.5823 26.3953 27.7471 26.642C27.9119 26.8887 27.9999 27.1787 27.9999 27.4753C27.9994 27.873 27.8413 28.2543 27.5601 28.5355C27.2788 28.8167 26.8976 28.9749 26.4999 28.9753ZM30.2499 16.6003C29.9532 16.6003 29.6632 16.5124 29.4165 16.3475C29.1699 16.1827 28.9776 15.9485 28.8641 15.6744C28.7505 15.4003 28.7208 15.0987 28.7787 14.8077C28.8366 14.5167 28.9794 14.2495 29.1892 14.0397C29.399 13.8299 29.6663 13.687 29.9572 13.6292C30.2482 13.5713 30.5498 13.601 30.8239 13.7145C31.098 13.8281 31.3323 14.0203 31.4971 14.267C31.6619 14.5137 31.7499 14.8037 31.7499 15.1003C31.7494 15.498 31.5913 15.8793 31.3101 16.1605C31.0288 16.4417 30.6476 16.5999 30.2499 16.6003Z" fill="#1E40AF"/>
</svg>
