<svg width="44" height="45" viewBox="0 0 44 45" fill="none" xmlns="http://www.w3.org/2000/svg">
<rect y="0.200439" width="44" height="44" rx="8" fill="#FDE68A"/>
<path d="M15.1098 12.0049L14.0538 13.0594L15.625 14.6299L16.6795 13.5754L15.109 12.0049H15.1098ZM28.891 12.0049L27.3197 13.5754L28.375 14.6299L29.9455 13.0601L28.891 12.0049ZM22 12.4729C21.7525 12.4759 21.502 12.4901 21.25 12.5209C21.2425 12.5209 21.235 12.5194 21.2275 12.5209C18.1855 12.8696 15.7645 15.3274 15.3438 18.3559C15.0078 20.7934 16.0128 23.0036 17.6875 24.4271C18.3726 25.0118 18.8359 25.8141 19 26.6996V31.1996H20.71C20.971 31.6474 21.4473 31.9496 22 31.9496C22.5527 31.9496 23.029 31.6474 23.29 31.1996H25V28.1996H25.0705V27.3086C25.0705 26.2091 25.642 25.1006 26.5705 24.2389C27.8125 22.9954 28.75 21.2291 28.75 19.2004C28.75 15.4954 25.7005 12.4384 22 12.4729ZM22 13.9729C24.8988 13.9324 27.25 16.3054 27.25 19.2004C27.25 20.7709 26.5225 22.1539 25.5153 23.1604L25.5392 23.1844C24.5383 24.1074 23.891 25.351 23.7092 26.7004H20.4288C20.2638 25.4149 19.7125 24.1706 18.6707 23.2781C17.3455 22.1531 16.5558 20.4581 16.8198 18.5441C17.1475 16.1816 19.0645 14.2819 21.4135 14.0216C21.6074 13.9946 21.8027 13.9786 21.9985 13.9736L22 13.9729ZM11.5 19.2004V20.7004H13.75V19.2004H11.5ZM30.25 19.2004V20.7004H32.5V19.2004H30.25ZM15.625 25.2709L14.0545 26.8406L15.1098 27.8959L16.6788 26.3254L15.625 25.2709ZM28.375 25.2709L27.3205 26.3254L28.8903 27.8959L29.9455 26.8406L28.375 25.2709ZM20.5 28.2004H23.5V29.7004H20.5V28.2004Z" fill="#1E40AF"/>
</svg>
