<svg width="44" height="44" viewBox="0 0 44 44" fill="none" xmlns="http://www.w3.org/2000/svg">
<rect width="44" height="44" rx="8" fill="#FDE68A"/>
<path d="M17 18.5L19 16.5L17 14.5L15 16.5L17 18.5ZM14 24C13.45 24 12.979 23.804 12.587 23.412C12.195 23.02 11.9993 22.5493 12 22V13C12 12.45 12.196 11.979 12.588 11.587C12.98 11.195 13.4507 10.9993 14 11H30C30.55 11 31.021 11.196 31.413 11.588C31.805 11.98 32.0007 12.4507 32 13V22C32 22.55 31.804 23.021 31.412 23.413C31.02 23.805 30.5493 24.0007 30 24H26.775C26.875 23.6667 26.9417 23.3333 26.975 23C27.0083 22.6667 27.0083 22.3333 26.975 22H30V13H14V22H17.025C16.9917 22.3333 16.9917 22.6667 17.025 23C17.0583 23.3333 17.125 23.6667 17.225 24H14ZM26.5 17C26.9167 17 27.271 16.854 27.563 16.562C27.855 16.27 28.0007 15.916 28 15.5C28 15.0833 27.854 14.729 27.562 14.437C27.27 14.145 26.916 13.9993 26.5 14C26.0833 14 25.729 14.146 25.437 14.438C25.145 14.73 24.9993 15.084 25 15.5C25 15.9167 25.146 16.271 25.438 16.563C25.73 16.855 26.084 17.0007 26.5 17ZM15 33V30.9C15 30.3167 15.1627 29.775 15.488 29.275C15.8133 28.775 16.2423 28.4 16.775 28.15C17.5917 27.7667 18.4417 27.479 19.325 27.287C20.2083 27.095 21.1 26.9993 22 27C22.9 27 23.7917 27.096 24.675 27.288C25.5583 27.48 26.4083 27.7673 27.225 28.15C27.7583 28.4 28.1877 28.775 28.513 29.275C28.8383 29.775 29.0007 30.3167 29 30.9V33H15ZM17 31H27V30.9C27 30.7 26.9417 30.5167 26.825 30.35C26.7083 30.1833 26.5583 30.0583 26.375 29.975C25.675 29.6583 24.9583 29.4167 24.225 29.25C23.4917 29.0833 22.75 29 22 29C21.25 29 20.5083 29.0833 19.775 29.25C19.0417 29.4167 18.325 29.6583 17.625 29.975C17.4417 30.0583 17.2917 30.1833 17.175 30.35C17.0583 30.5167 17 30.7 17 30.9V31ZM22 26C21.0333 26 20.2083 25.6583 19.525 24.975C18.8417 24.2917 18.5 23.4667 18.5 22.5C18.5 21.5333 18.8417 20.7083 19.525 20.025C20.2083 19.3417 21.0333 19 22 19C22.9667 19 23.7917 19.3417 24.475 20.025C25.1583 20.7083 25.5 21.5333 25.5 22.5C25.5 23.4667 25.1583 24.2917 24.475 24.975C23.7917 25.6583 22.9667 26 22 26ZM22 24C22.4167 24 22.771 23.854 23.063 23.562C23.355 23.27 23.5007 22.916 23.5 22.5C23.5 22.0833 23.354 21.729 23.062 21.437C22.77 21.145 22.416 20.9993 22 21C21.5833 21 21.229 21.146 20.937 21.438C20.645 21.73 20.4993 22.084 20.5 22.5C20.5 22.9167 20.646 23.271 20.938 23.563C21.23 23.855 21.584 24.0007 22 24Z" fill="#1E40AF"/>
</svg>
