<svg width="44" height="45" viewBox="0 0 44 45" fill="none" xmlns="http://www.w3.org/2000/svg">
<rect y="0.800537" width="44" height="44" rx="8" fill="#FDE68A"/>
<path d="M16.75 30.4856C18.246 31.664 20.0956 32.3034 22 32.3006C23.9815 32.3006 25.805 31.6226 27.25 30.4856M19.5 15.6741C16.0255 16.7416 13.5 19.9761 13.5 23.8006C13.5 24.7631 13.66 25.6881 13.955 26.5506M24.5 15.6741C27.9745 16.7416 30.5 19.9761 30.5 23.8006C30.5 24.7631 30.34 25.6881 30.045 26.5506" stroke="#1E40AF" stroke-width="2"/>
<path d="M31.5 28.8005C31.5 29.4715 31.236 30.0805 30.806 30.5295C30.4044 30.949 29.8694 31.2156 29.2926 31.2836C28.7159 31.3516 28.1335 31.2167 27.6454 30.902C27.1573 30.5873 26.794 30.1126 26.6178 29.5592C26.4416 29.0059 26.4636 28.4085 26.6799 27.8695C26.8962 27.3306 27.2934 26.8838 27.8033 26.6058C28.3132 26.3278 28.9039 26.236 29.4741 26.3461C30.0443 26.4563 30.5583 26.7615 30.928 27.2093C31.2977 27.6572 31.4999 28.2198 31.5 28.8005ZM17.5 28.8005C17.5 29.4715 17.236 30.0805 16.806 30.5295C16.4044 30.949 15.8694 31.2156 15.2926 31.2836C14.7159 31.3516 14.1335 31.2167 13.6454 30.902C13.1573 30.5873 12.794 30.1126 12.6178 29.5592C12.4416 29.0059 12.4636 28.4085 12.6799 27.8695C12.8962 27.3306 13.2934 26.8838 13.8033 26.6058C14.3132 26.3278 14.9039 26.236 15.4741 26.3461C16.0443 26.4563 16.5583 26.7615 16.928 27.2093C17.2977 27.6572 17.4999 28.2198 17.5 28.8005ZM24.5 15.3005C24.5 15.9715 24.236 16.5805 23.806 17.0295C23.4044 17.449 22.8694 17.7156 22.2926 17.7836C21.7159 17.8516 21.1335 17.7167 20.6454 17.402C20.1573 17.0873 19.794 16.6126 19.6178 16.0592C19.4416 15.5059 19.4636 14.9085 19.6799 14.3695C19.8962 13.8306 20.2934 13.3838 20.8033 13.1058C21.3132 12.8278 21.9039 12.736 22.4741 12.8461C23.0443 12.9563 23.5583 13.2615 23.928 13.7093C24.2977 14.1572 24.4999 14.7198 24.5 15.3005Z" stroke="#1E40AF" stroke-width="2" stroke-linecap="round" stroke-linejoin="round"/>
</svg>
