<svg width="324" height="378" viewBox="0 0 324 378" fill="none" xmlns="http://www.w3.org/2000/svg">
<rect x="0.5" y="0.5" width="149" height="109" rx="7.5" fill="white" fill-opacity="0.2"/>
<rect x="0.5" y="0.5" width="149" height="109" rx="7.5" stroke="url(#paint0_linear_174_247)"/>
<path d="M36.1464 27.608H50.6104V31.544H40.2424V37.016C41.1064 35.96 42.8664 35.128 44.8184 35.128C50.2584 35.128 52.1144 39.224 52.1144 42.84C52.1144 47.608 49.3624 51 44.0504 51C39.0264 51 36.1464 48.216 35.7624 44.408H40.1144C40.4984 46.04 41.8104 47.224 43.9864 47.224C46.6104 47.224 47.7944 45.368 47.7944 42.904C47.7944 40.28 46.4824 38.84 43.9544 38.84C42.0984 38.84 40.9144 39.864 40.4344 41.304H36.1464V27.608ZM55.5241 39.032C55.5241 32.28 57.5721 27.224 64.1641 27.224C70.7561 27.224 72.8041 32.28 72.8041 39.032C72.8041 45.848 70.7561 50.936 64.1641 50.936C57.5721 50.936 55.5241 45.848 55.5241 39.032ZM68.3881 39.032C68.3881 35.032 67.9401 31.384 64.1641 31.384C60.3881 31.384 59.9401 35.032 59.9401 39.032C59.9401 43.192 60.3881 46.776 64.1641 46.776C67.9401 46.776 68.3881 43.192 68.3881 39.032ZM76.2116 39.032C76.2116 32.28 78.2596 27.224 84.8516 27.224C91.4436 27.224 93.4916 32.28 93.4916 39.032C93.4916 45.848 91.4436 50.936 84.8516 50.936C78.2596 50.936 76.2116 45.848 76.2116 39.032ZM89.0756 39.032C89.0756 35.032 88.6276 31.384 84.8516 31.384C81.0756 31.384 80.6276 35.032 80.6276 39.032C80.6276 43.192 81.0756 46.776 84.8516 46.776C88.6276 46.776 89.0756 43.192 89.0756 39.032ZM103.875 31.448H108.099V37.656H114.147V41.56H108.099V47.768H103.875V41.56H97.8271V37.656H103.875V31.448Z" fill="white"/>
<path d="M34.8941 86L33.7741 82.9H27.6941L26.5741 86H24.6541L29.6941 72.14H31.7941L36.8141 86H34.8941ZM33.2541 81.42L30.7341 74.38L28.2141 81.42H33.2541ZM39.4107 83V76.54H37.9907V75.04H39.4107V72.28H41.2307V75.04H44.0907V76.54H41.2307V83C41.2307 84.08 41.6307 84.46 42.7507 84.46H44.0907V86H42.4507C40.5107 86 39.4107 85.2 39.4107 83ZM46.6959 83V76.54H45.2759V75.04H46.6959V72.28H48.5159V75.04H51.3759V76.54H48.5159V83C48.5159 84.08 48.9159 84.46 50.0359 84.46H51.3759V86H49.7359C47.7959 86 46.6959 85.2 46.6959 83ZM58.241 76.4C56.461 76.4 54.981 77.58 54.781 79.72H61.701C61.721 77.58 60.121 76.4 58.241 76.4ZM63.361 82.62C62.801 84.62 61.041 86.18 58.321 86.18C55.201 86.18 52.901 83.98 52.901 80.5C52.901 77.04 55.121 74.86 58.321 74.86C61.501 74.86 63.581 77.1 63.581 80.1C63.581 80.5 63.561 80.82 63.521 81.2H54.761C54.901 83.42 56.461 84.64 58.321 84.64C59.961 84.64 61.001 83.8 61.401 82.62H63.361ZM74.0034 86V79.8C74.0034 77.56 72.7834 76.42 70.9434 76.42C69.0834 76.42 67.8034 77.58 67.8034 79.94V86H65.9834V75.04H67.8034V76.6C68.5234 75.46 69.8434 74.84 71.3234 74.84C73.8634 74.84 75.8034 76.4 75.8034 79.54V86H74.0034ZM78.0963 80.48C78.0963 77.06 80.3563 74.86 83.3163 74.86C85.0363 74.86 86.6163 75.74 87.3763 77V71.2H89.2163V86H87.3763V83.94C86.7163 85.16 85.2963 86.18 83.2963 86.18C80.3563 86.18 78.0963 83.88 78.0963 80.48ZM87.3763 80.5C87.3763 77.96 85.6563 76.44 83.6563 76.44C81.6563 76.44 79.9563 77.9 79.9563 80.48C79.9563 83.06 81.6563 84.58 83.6563 84.58C85.6563 84.58 87.3763 83.08 87.3763 80.5ZM96.952 76.4C95.172 76.4 93.692 77.58 93.492 79.72H100.412C100.432 77.58 98.832 76.4 96.952 76.4ZM102.072 82.62C101.512 84.62 99.752 86.18 97.032 86.18C93.912 86.18 91.612 83.98 91.612 80.5C91.612 77.04 93.832 74.86 97.032 74.86C100.212 74.86 102.292 77.1 102.292 80.1C102.292 80.5 102.272 80.82 102.232 81.2H93.472C93.612 83.42 95.172 84.64 97.032 84.64C98.672 84.64 99.712 83.8 100.112 82.62H102.072ZM109.354 76.4C107.574 76.4 106.094 77.58 105.894 79.72H112.814C112.834 77.58 111.234 76.4 109.354 76.4ZM114.474 82.62C113.914 84.62 112.154 86.18 109.434 86.18C106.314 86.18 104.014 83.98 104.014 80.5C104.014 77.04 106.234 74.86 109.434 74.86C112.614 74.86 114.694 77.1 114.694 80.1C114.694 80.5 114.674 80.82 114.634 81.2H105.874C106.014 83.42 107.574 84.64 109.434 84.64C111.074 84.64 112.114 83.8 112.514 82.62H114.474ZM124.977 83.02C124.977 84.82 123.397 86.18 120.977 86.18C118.417 86.18 116.617 84.78 116.497 82.78H118.377C118.477 83.84 119.417 84.64 120.957 84.64C122.397 84.64 123.197 83.92 123.197 83.02C123.197 80.58 116.717 82 116.717 77.92C116.717 76.24 118.297 74.86 120.737 74.86C123.157 74.86 124.757 76.16 124.877 78.3H123.057C122.977 77.2 122.137 76.4 120.677 76.4C119.337 76.4 118.537 77.04 118.537 77.92C118.537 80.52 124.897 79.1 124.977 83.02Z" fill="white"/>
<rect x="0.5" y="134.5" width="149" height="109" rx="7.5" fill="white" fill-opacity="0.2"/>
<rect x="0.5" y="134.5" width="149" height="109" rx="7.5" stroke="url(#paint1_linear_174_247)"/>
<path d="M35.7838 184.68V181.352C41.0638 176.872 46.5998 172.744 46.5998 168.456C46.5998 166.376 45.6718 164.968 43.4638 164.968C41.3198 164.968 40.1358 166.504 40.1038 168.968H35.7518C35.9118 163.624 39.3358 161.16 43.5278 161.16C48.5518 161.16 51.0798 164.136 51.0798 168.2C51.0798 173.608 45.8638 177.832 42.1518 180.968H51.5918V184.68H35.7838ZM54.4148 173.032C54.4148 166.28 56.4628 161.224 63.0548 161.224C69.6468 161.224 71.6948 166.28 71.6948 173.032C71.6948 179.848 69.6468 184.936 63.0548 184.936C56.4628 184.936 54.4148 179.848 54.4148 173.032ZM67.2788 173.032C67.2788 169.032 66.8308 165.384 63.0548 165.384C59.2788 165.384 58.8308 169.032 58.8308 173.032C58.8308 177.192 59.2788 180.776 63.0548 180.776C66.8308 180.776 67.2788 177.192 67.2788 173.032ZM75.1023 173.032C75.1023 166.28 77.1503 161.224 83.7423 161.224C90.3343 161.224 92.3823 166.28 92.3823 173.032C92.3823 179.848 90.3343 184.936 83.7423 184.936C77.1503 184.936 75.1023 179.848 75.1023 173.032ZM87.9663 173.032C87.9663 169.032 87.5183 165.384 83.7423 165.384C79.9663 165.384 79.5183 169.032 79.5183 173.032C79.5183 177.192 79.9663 180.776 83.7423 180.776C87.5183 180.776 87.9663 177.192 87.9663 173.032ZM102.766 165.448H106.99V171.656H113.038V175.56H106.99V181.768H102.766V175.56H96.7178V171.656H102.766V165.448Z" fill="white"/>
<path d="M17.6373 213.02C17.6373 208.84 20.6973 205.88 24.5973 205.88C27.6173 205.88 30.0173 207.4 31.0573 210.1H28.8773C28.1173 208.42 26.6373 207.48 24.5973 207.48C21.6773 207.48 19.4973 209.6 19.4973 213.02C19.4973 216.42 21.6773 218.54 24.5973 218.54C26.6373 218.54 28.1173 217.6 28.8773 215.94H31.0573C30.0173 218.62 27.6173 220.12 24.5973 220.12C20.6973 220.12 17.6373 217.2 17.6373 213.02ZM44.1666 214.5C44.1666 217.98 41.6666 220.18 38.5466 220.18C35.4466 220.18 33.0866 217.98 33.0866 214.5C33.0866 211.04 35.5266 208.86 38.6266 208.86C41.7466 208.86 44.1666 211.04 44.1666 214.5ZM34.9466 214.5C34.9466 217.28 36.6466 218.58 38.5466 218.58C40.4466 218.58 42.3066 217.28 42.3066 214.5C42.3066 211.74 40.4866 210.44 38.6066 210.44C36.6866 210.44 34.9466 211.74 34.9466 214.5ZM62.3795 220V213.8C62.3795 211.56 61.1795 210.42 59.3795 210.42C57.5395 210.42 56.2795 211.6 56.2795 213.96V220H54.4795V213.8C54.4795 211.56 53.2795 210.42 51.4795 210.42C49.6395 210.42 48.3795 211.6 48.3795 213.96V220H46.5595V209.04H48.3795V210.62C49.0995 209.46 50.3995 208.84 51.8395 208.84C53.6395 208.84 55.1395 209.64 55.8595 211.28C56.4995 209.7 58.0595 208.84 59.7395 208.84C62.2395 208.84 64.1795 210.4 64.1795 213.54V220H62.3795ZM68.985 211.06C69.645 209.9 71.085 208.86 73.085 208.86C76.025 208.86 78.285 211.06 78.285 214.48C78.285 217.88 76.025 220.18 73.085 220.18C71.085 220.18 69.665 219.1 68.985 217.98V225.2H67.165V209.04H68.985V211.06ZM76.425 214.48C76.425 211.9 74.725 210.44 72.705 210.44C70.725 210.44 68.985 211.96 68.985 214.5C68.985 217.08 70.725 218.58 72.705 218.58C74.725 218.58 76.425 217.06 76.425 214.48ZM80.0006 214.48C80.0006 211.06 82.2606 208.86 85.2006 208.86C87.2406 208.86 88.6406 209.9 89.2806 211.04V209.04H91.1206V220H89.2806V217.96C88.6206 219.14 87.2006 220.18 85.1806 220.18C82.2606 220.18 80.0006 217.88 80.0006 214.48ZM89.2806 214.5C89.2806 211.96 87.5606 210.44 85.5606 210.44C83.5606 210.44 81.8606 211.9 81.8606 214.48C81.8606 217.06 83.5606 218.58 85.5606 218.58C87.5606 218.58 89.2806 217.08 89.2806 214.5ZM102.216 220V213.8C102.216 211.56 100.996 210.42 99.1563 210.42C97.2963 210.42 96.0163 211.58 96.0163 213.94V220H94.1963V209.04H96.0163V210.6C96.7363 209.46 98.0563 208.84 99.5363 208.84C102.076 208.84 104.016 210.4 104.016 213.54V220H102.216ZM106.989 220V209.04H108.809V220H106.989ZM107.929 207.26C107.229 207.26 106.689 206.72 106.689 206.02C106.689 205.32 107.229 204.78 107.929 204.78C108.589 204.78 109.129 205.32 109.129 206.02C109.129 206.72 108.589 207.26 107.929 207.26ZM116.571 210.4C114.791 210.4 113.311 211.58 113.111 213.72H120.031C120.051 211.58 118.451 210.4 116.571 210.4ZM121.691 216.62C121.131 218.62 119.371 220.18 116.651 220.18C113.531 220.18 111.231 217.98 111.231 214.5C111.231 211.04 113.451 208.86 116.651 208.86C119.831 208.86 121.911 211.1 121.911 214.1C121.911 214.5 121.891 214.82 121.851 215.2H113.091C113.231 217.42 114.791 218.64 116.651 218.64C118.291 218.64 119.331 217.8 119.731 216.62H121.691ZM132.193 217.02C132.193 218.82 130.613 220.18 128.193 220.18C125.633 220.18 123.833 218.78 123.713 216.78H125.593C125.693 217.84 126.633 218.64 128.173 218.64C129.613 218.64 130.413 217.92 130.413 217.02C130.413 214.58 123.933 216 123.933 211.92C123.933 210.24 125.513 208.86 127.953 208.86C130.373 208.86 131.973 210.16 132.093 212.3H130.273C130.193 211.2 129.353 210.4 127.893 210.4C126.553 210.4 125.753 211.04 125.753 211.92C125.753 214.52 132.113 213.1 132.193 217.02Z" fill="white"/>
<rect x="0.5" y="268.5" width="149" height="109" rx="7.5" fill="white" fill-opacity="0.2"/>
<rect x="0.5" y="268.5" width="149" height="109" rx="7.5" stroke="url(#paint2_linear_174_247)"/>
<path d="M41.9904 319V299.8H38.8864V295.672H46.5984V319H41.9904ZM51.0241 307.032C51.0241 300.28 53.0721 295.224 59.6641 295.224C66.2561 295.224 68.3041 300.28 68.3041 307.032C68.3041 313.848 66.2561 318.936 59.6641 318.936C53.0721 318.936 51.0241 313.848 51.0241 307.032ZM63.8881 307.032C63.8881 303.032 63.4401 299.384 59.6641 299.384C55.8881 299.384 55.4401 303.032 55.4401 307.032C55.4401 311.192 55.8881 314.776 59.6641 314.776C63.4401 314.776 63.8881 311.192 63.8881 307.032ZM71.7116 307.032C71.7116 300.28 73.7596 295.224 80.3516 295.224C86.9436 295.224 88.9916 300.28 88.9916 307.032C88.9916 313.848 86.9436 318.936 80.3516 318.936C73.7596 318.936 71.7116 313.848 71.7116 307.032ZM84.5756 307.032C84.5756 303.032 84.1276 299.384 80.3516 299.384C76.5756 299.384 76.1276 303.032 76.1276 307.032C76.1276 311.192 76.5756 314.776 80.3516 314.776C84.1276 314.776 84.5756 311.192 84.5756 307.032ZM99.3751 299.448H103.599V305.656H109.647V309.56H103.599V315.768H99.3751V309.56H93.3271V305.656H99.3751V299.448Z" fill="white"/>
<path d="M31.192 347.02C31.192 342.84 34.252 339.88 38.152 339.88C41.172 339.88 43.572 341.4 44.612 344.1H42.432C41.672 342.42 40.192 341.48 38.152 341.48C35.232 341.48 33.052 343.6 33.052 347.02C33.052 350.42 35.232 352.54 38.152 352.54C40.192 352.54 41.672 351.6 42.432 349.94H44.612C43.572 352.62 41.172 354.12 38.152 354.12C34.252 354.12 31.192 351.2 31.192 347.02ZM57.0933 341.58H58.7933V345.92H63.0533V347.46H58.7933V351.78H57.0933V347.46H52.8533V345.92H57.0933V341.58ZM71.6377 340.06H73.4577V352.52H78.3377V354H71.6377V340.06ZM84.9305 344.4C83.1505 344.4 81.6705 345.58 81.4705 347.72H88.3905C88.4105 345.58 86.8105 344.4 84.9305 344.4ZM90.0505 350.62C89.4905 352.62 87.7305 354.18 85.0105 354.18C81.8905 354.18 79.5905 351.98 79.5905 348.5C79.5905 345.04 81.8105 342.86 85.0105 342.86C88.1905 342.86 90.2705 345.1 90.2705 348.1C90.2705 348.5 90.2505 348.82 90.2105 349.2H81.4505C81.5905 351.42 83.1505 352.64 85.0105 352.64C86.6505 352.64 87.6905 351.8 88.0905 350.62H90.0505ZM91.3728 343.04H93.3328L96.7528 352.32L100.153 343.04H102.093L97.7928 354H95.6728L91.3728 343.04ZM108.544 344.4C106.764 344.4 105.284 345.58 105.084 347.72H112.004C112.024 345.58 110.424 344.4 108.544 344.4ZM113.664 350.62C113.104 352.62 111.344 354.18 108.624 354.18C105.504 354.18 103.204 351.98 103.204 348.5C103.204 345.04 105.424 342.86 108.624 342.86C111.804 342.86 113.884 345.1 113.884 348.1C113.884 348.5 113.864 348.82 113.824 349.2H105.064C105.204 351.42 106.764 352.64 108.624 352.64C110.264 352.64 111.304 351.8 111.704 350.62H113.664ZM116.286 354V339.2H118.106V354H116.286Z" fill="white"/>
<rect x="174.5" y="67.5" width="149" height="109" rx="7.5" fill="white" fill-opacity="0.2"/>
<rect x="174.5" y="67.5" width="149" height="109" rx="7.5" stroke="url(#paint3_linear_174_247)"/>
<path d="M226.381 118V98.8H223.277V94.672H230.989V118H226.381ZM236.631 94.608H251.095V98.544H240.727V104.016C241.591 102.96 243.351 102.128 245.303 102.128C250.743 102.128 252.599 106.224 252.599 109.84C252.599 114.608 249.847 118 244.535 118C239.511 118 236.631 115.216 236.247 111.408H240.599C240.983 113.04 242.295 114.224 244.471 114.224C247.095 114.224 248.279 112.368 248.279 109.904C248.279 107.28 246.967 105.84 244.439 105.84C242.583 105.84 241.399 106.864 240.919 108.304H236.631V94.608ZM262.985 98.448H267.209V104.656H273.257V108.56H267.209V114.768H262.985V108.56H256.937V104.656H262.985V98.448Z" fill="white"/>
<path d="M213.711 149.2C213.711 151.18 212.091 153.14 209.071 153.14C206.271 153.14 204.291 151.58 204.251 149.28H206.191C206.311 150.44 207.131 151.6 209.071 151.6C210.831 151.6 211.871 150.6 211.871 149.28C211.871 145.52 204.331 147.92 204.331 142.74C204.331 140.44 206.191 138.88 208.951 138.88C211.611 138.88 213.351 140.34 213.571 142.46H211.571C211.451 141.52 210.571 140.46 208.871 140.44C207.371 140.4 206.191 141.18 206.191 142.68C206.191 146.28 213.711 144.04 213.711 149.2ZM218.21 144.06C218.87 142.9 220.31 141.86 222.31 141.86C225.25 141.86 227.51 144.06 227.51 147.48C227.51 150.88 225.25 153.18 222.31 153.18C220.31 153.18 218.89 152.1 218.21 150.98V158.2H216.39V142.04H218.21V144.06ZM225.65 147.48C225.65 144.9 223.95 143.44 221.93 143.44C219.95 143.44 218.21 144.96 218.21 147.5C218.21 150.08 219.95 151.58 221.93 151.58C223.95 151.58 225.65 150.06 225.65 147.48ZM234.565 143.4C232.785 143.4 231.305 144.58 231.105 146.72H238.025C238.045 144.58 236.445 143.4 234.565 143.4ZM239.685 149.62C239.125 151.62 237.365 153.18 234.645 153.18C231.525 153.18 229.225 150.98 229.225 147.5C229.225 144.04 231.445 141.86 234.645 141.86C237.825 141.86 239.905 144.1 239.905 147.1C239.905 147.5 239.885 147.82 239.845 148.2H231.085C231.225 150.42 232.785 151.64 234.645 151.64C236.285 151.64 237.325 150.8 237.725 149.62H239.685ZM241.628 147.48C241.628 144.06 243.888 141.86 246.828 141.86C248.868 141.86 250.268 142.9 250.908 144.04V142.04H252.748V153H250.908V150.96C250.248 152.14 248.828 153.18 246.808 153.18C243.888 153.18 241.628 150.88 241.628 147.48ZM250.908 147.5C250.908 144.96 249.188 143.44 247.188 143.44C245.188 143.44 243.488 144.9 243.488 147.48C243.488 150.06 245.188 151.58 247.188 151.58C249.188 151.58 250.908 150.08 250.908 147.5ZM255.823 153V138.2H257.643V146.9L261.863 142.04H264.403L259.243 147.5L264.423 153H261.943L257.643 148.16V153H255.823ZM270.776 143.4C268.996 143.4 267.516 144.58 267.316 146.72H274.236C274.256 144.58 272.656 143.4 270.776 143.4ZM275.896 149.62C275.336 151.62 273.576 153.18 270.856 153.18C267.736 153.18 265.436 150.98 265.436 147.5C265.436 144.04 267.656 141.86 270.856 141.86C274.036 141.86 276.116 144.1 276.116 147.1C276.116 147.5 276.096 147.82 276.056 148.2H267.296C267.436 150.42 268.996 151.64 270.856 151.64C272.496 151.64 273.536 150.8 273.936 149.62H275.896ZM280.339 147.04V153H278.519V142.04H280.339V143.82C280.959 142.6 282.139 141.84 283.879 141.84V143.72H283.399C281.659 143.72 280.339 144.5 280.339 147.04ZM293.859 150.02C293.859 151.82 292.279 153.18 289.859 153.18C287.299 153.18 285.499 151.78 285.379 149.78H287.259C287.359 150.84 288.299 151.64 289.839 151.64C291.279 151.64 292.079 150.92 292.079 150.02C292.079 147.58 285.599 149 285.599 144.92C285.599 143.24 287.179 141.86 289.619 141.86C292.039 141.86 293.639 143.16 293.759 145.3H291.939C291.859 144.2 291.019 143.4 289.559 143.4C288.219 143.4 287.419 144.04 287.419 144.92C287.419 147.52 293.779 146.1 293.859 150.02Z" fill="white"/>
<rect x="174.5" y="201.5" width="149" height="109" rx="7.5" fill="white" fill-opacity="0.2"/>
<rect x="174.5" y="201.5" width="149" height="109" rx="7.5" stroke="url(#paint4_linear_174_247)"/>
<path d="M226.334 252V232.8H223.23V228.672H230.942V252H226.334ZM235.368 240.032C235.368 233.28 237.416 228.224 244.008 228.224C250.6 228.224 252.648 233.28 252.648 240.032C252.648 246.848 250.6 251.936 244.008 251.936C237.416 251.936 235.368 246.848 235.368 240.032ZM248.232 240.032C248.232 236.032 247.784 232.384 244.008 232.384C240.232 232.384 239.784 236.032 239.784 240.032C239.784 244.192 240.232 247.776 244.008 247.776C247.784 247.776 248.232 244.192 248.232 240.032ZM263.031 232.448H267.255V238.656H273.303V242.56H267.255V248.768H263.031V242.56H256.983V238.656H263.031V232.448Z" fill="white"/>
<path d="M211.155 273.04V274.54H205.475V279.2H210.555V280.7H205.475V285.5H211.155V287H203.655V273.04H211.155ZM219.629 287L217.029 282.92L214.529 287H212.629L216.169 281.56L212.629 276.04H214.689L217.289 280.1L219.769 276.04H221.669L218.149 281.46L221.689 287H219.629ZM223.479 287V272.2H225.299V277.62C226.019 276.46 227.379 275.84 228.919 275.84C231.359 275.84 233.299 277.4 233.299 280.54V287H231.499V280.8C231.499 278.56 230.279 277.42 228.439 277.42C226.579 277.42 225.299 278.58 225.299 280.94V287H223.479ZM236.272 287V276.04H238.092V287H236.272ZM237.212 274.26C236.512 274.26 235.972 273.72 235.972 273.02C235.972 272.32 236.512 271.78 237.212 271.78C237.872 271.78 238.412 272.32 238.412 273.02C238.412 273.72 237.872 274.26 237.212 274.26ZM243.014 278.08C243.714 276.86 245.174 275.86 247.114 275.86C250.074 275.86 252.314 278.06 252.314 281.48C252.314 284.88 250.054 287.18 247.114 287.18C245.114 287.18 243.694 286.18 243.014 284.98V287H241.194V272.2H243.014V278.08ZM250.454 281.48C250.454 278.9 248.754 277.44 246.734 277.44C244.754 277.44 243.014 278.96 243.014 281.5C243.014 284.08 244.754 285.58 246.734 285.58C248.754 285.58 250.454 284.06 250.454 281.48ZM254.71 287V276.04H256.53V287H254.71ZM255.65 274.26C254.95 274.26 254.41 273.72 254.41 273.02C254.41 272.32 254.95 271.78 255.65 271.78C256.31 271.78 256.85 272.32 256.85 273.02C256.85 273.72 256.31 274.26 255.65 274.26ZM260.032 284V277.54H258.612V276.04H260.032V273.28H261.852V276.04H264.712V277.54H261.852V284C261.852 285.08 262.252 285.46 263.372 285.46H264.712V287H263.072C261.132 287 260.032 286.2 260.032 284ZM266.917 287V276.04H268.737V287H266.917ZM267.857 274.26C267.157 274.26 266.617 273.72 266.617 273.02C266.617 272.32 267.157 271.78 267.857 271.78C268.517 271.78 269.057 272.32 269.057 273.02C269.057 273.72 268.517 274.26 267.857 274.26ZM282.239 281.5C282.239 284.98 279.739 287.18 276.619 287.18C273.519 287.18 271.159 284.98 271.159 281.5C271.159 278.04 273.599 275.86 276.699 275.86C279.819 275.86 282.239 278.04 282.239 281.5ZM273.019 281.5C273.019 284.28 274.719 285.58 276.619 285.58C278.519 285.58 280.379 284.28 280.379 281.5C280.379 278.74 278.559 277.44 276.679 277.44C274.759 277.44 273.019 278.74 273.019 281.5ZM292.652 287V280.8C292.652 278.56 291.432 277.42 289.592 277.42C287.732 277.42 286.452 278.58 286.452 280.94V287H284.632V276.04H286.452V277.6C287.172 276.46 288.492 275.84 289.972 275.84C292.512 275.84 294.452 277.4 294.452 280.54V287H292.652Z" fill="white"/>
<defs>
<linearGradient id="paint0_linear_174_247" x1="79.5" y1="4" x2="30" y2="71.5" gradientUnits="userSpaceOnUse">
<stop stop-color="#ECD430" stop-opacity="0.7"/>
<stop offset="1" stop-color="white" stop-opacity="0"/>
</linearGradient>
<linearGradient id="paint1_linear_174_247" x1="79.5" y1="138" x2="30" y2="205.5" gradientUnits="userSpaceOnUse">
<stop stop-color="#ECD430" stop-opacity="0.7"/>
<stop offset="1" stop-color="white" stop-opacity="0"/>
</linearGradient>
<linearGradient id="paint2_linear_174_247" x1="79.5" y1="272" x2="30" y2="339.5" gradientUnits="userSpaceOnUse">
<stop stop-color="#ECD430" stop-opacity="0.7"/>
<stop offset="1" stop-color="white" stop-opacity="0"/>
</linearGradient>
<linearGradient id="paint3_linear_174_247" x1="253.5" y1="71" x2="204" y2="138.5" gradientUnits="userSpaceOnUse">
<stop stop-color="#ECD430" stop-opacity="0.7"/>
<stop offset="1" stop-color="white" stop-opacity="0"/>
</linearGradient>
<linearGradient id="paint4_linear_174_247" x1="253.5" y1="205" x2="204" y2="272.5" gradientUnits="userSpaceOnUse">
<stop stop-color="#ECD430" stop-opacity="0.7"/>
<stop offset="1" stop-color="white" stop-opacity="0"/>
</linearGradient>
</defs>
</svg>
