<svg width="327" height="128" viewBox="0 0 327 128" fill="none" xmlns="http://www.w3.org/2000/svg">
<rect x="15" y="0.5" width="93" height="59" rx="7.5" fill="white" fill-opacity="0.2"/>
<rect x="15" y="0.5" width="93" height="59" rx="7.5" stroke="url(#paint0_linear_346_351)"/>
<path d="M46.9299 16.228H52.3539V17.704H48.4659V19.756C48.7899 19.36 49.4499 19.048 50.1819 19.048C52.2219 19.048 52.9179 20.584 52.9179 21.94C52.9179 23.728 51.8859 25 49.8939 25C48.0099 25 46.9299 23.956 46.7859 22.528H48.4179C48.5619 23.14 49.0539 23.584 49.8699 23.584C50.8539 23.584 51.2979 22.888 51.2979 21.964C51.2979 20.98 50.8059 20.44 49.8579 20.44C49.1619 20.44 48.7179 20.824 48.5379 21.364H46.9299V16.228ZM54.1965 20.512C54.1965 17.98 54.9645 16.084 57.4365 16.084C59.9085 16.084 60.6765 17.98 60.6765 20.512C60.6765 23.068 59.9085 24.976 57.4365 24.976C54.9645 24.976 54.1965 23.068 54.1965 20.512ZM59.0205 20.512C59.0205 19.012 58.8525 17.644 57.4365 17.644C56.0205 17.644 55.8525 19.012 55.8525 20.512C55.8525 22.072 56.0205 23.416 57.4365 23.416C58.8525 23.416 59.0205 22.072 59.0205 20.512ZM61.9544 20.512C61.9544 17.98 62.7224 16.084 65.1944 16.084C67.6664 16.084 68.4344 17.98 68.4344 20.512C68.4344 23.068 67.6664 24.976 65.1944 24.976C62.7224 24.976 61.9544 23.068 61.9544 20.512ZM66.7784 20.512C66.7784 19.012 66.6104 17.644 65.1944 17.644C63.7784 17.644 63.6104 19.012 63.6104 20.512C63.6104 22.072 63.7784 23.416 65.1944 23.416C66.6104 23.416 66.7784 22.072 66.7784 20.512ZM72.3282 17.668H73.9122V19.996H76.1802V21.46H73.9122V23.788H72.3282V21.46H70.0602V19.996H72.3282V17.668Z" fill="white"/>
<path d="M37.4365 43L36.7645 41.14H33.1165L32.4445 43H31.2925L34.3165 34.684H35.5765L38.5885 43H37.4365ZM36.4525 40.252L34.9405 36.028L33.4285 40.252H36.4525ZM40.1464 41.2V37.324H39.2944V36.424H40.1464V34.768H41.2384V36.424H42.9544V37.324H41.2384V41.2C41.2384 41.848 41.4784 42.076 42.1504 42.076H42.9544V43H41.9704C40.8064 43 40.1464 42.52 40.1464 41.2ZM44.5175 41.2V37.324H43.6655V36.424H44.5175V34.768H45.6095V36.424H47.3255V37.324H45.6095V41.2C45.6095 41.848 45.8495 42.076 46.5215 42.076H47.3255V43H46.3415C45.1775 43 44.5175 42.52 44.5175 41.2ZM51.4446 37.24C50.3766 37.24 49.4886 37.948 49.3686 39.232H53.5206C53.5326 37.948 52.5726 37.24 51.4446 37.24ZM54.5166 40.972C54.1806 42.172 53.1246 43.108 51.4926 43.108C49.6206 43.108 48.2406 41.788 48.2406 39.7C48.2406 37.624 49.5726 36.316 51.4926 36.316C53.4006 36.316 54.6486 37.66 54.6486 39.46C54.6486 39.7 54.6366 39.892 54.6126 40.12H49.3566C49.4406 41.452 50.3766 42.184 51.4926 42.184C52.4766 42.184 53.1006 41.68 53.3406 40.972H54.5166ZM60.902 43V39.28C60.902 37.936 60.17 37.252 59.066 37.252C57.95 37.252 57.182 37.948 57.182 39.364V43H56.09V36.424H57.182V37.36C57.614 36.676 58.406 36.304 59.294 36.304C60.818 36.304 61.982 37.24 61.982 39.124V43H60.902ZM63.3578 39.688C63.3578 37.636 64.7138 36.316 66.4898 36.316C67.5218 36.316 68.4698 36.844 68.9258 37.6V34.12H70.0298V43H68.9258V41.764C68.5298 42.496 67.6778 43.108 66.4778 43.108C64.7138 43.108 63.3578 41.728 63.3578 39.688ZM68.9258 39.7C68.9258 38.176 67.8938 37.264 66.6938 37.264C65.4938 37.264 64.4738 38.14 64.4738 39.688C64.4738 41.236 65.4938 42.148 66.6938 42.148C67.8938 42.148 68.9258 41.248 68.9258 39.7ZM74.6712 37.24C73.6032 37.24 72.7152 37.948 72.5952 39.232H76.7472C76.7592 37.948 75.7992 37.24 74.6712 37.24ZM77.7432 40.972C77.4072 42.172 76.3512 43.108 74.7192 43.108C72.8472 43.108 71.4672 41.788 71.4672 39.7C71.4672 37.624 72.7992 36.316 74.7192 36.316C76.6272 36.316 77.8752 37.66 77.8752 39.46C77.8752 39.7 77.8632 39.892 77.8392 40.12H72.5832C72.6672 41.452 73.6032 42.184 74.7192 42.184C75.7032 42.184 76.3272 41.68 76.5672 40.972H77.7432ZM82.1126 37.24C81.0446 37.24 80.1566 37.948 80.0366 39.232H84.1886C84.2006 37.948 83.2406 37.24 82.1126 37.24ZM85.1846 40.972C84.8486 42.172 83.7926 43.108 82.1606 43.108C80.2886 43.108 78.9086 41.788 78.9086 39.7C78.9086 37.624 80.2406 36.316 82.1606 36.316C84.0686 36.316 85.3166 37.66 85.3166 39.46C85.3166 39.7 85.3046 39.892 85.2806 40.12H80.0246C80.1086 41.452 81.0446 42.184 82.1606 42.184C83.1446 42.184 83.7686 41.68 84.0086 40.972H85.1846ZM91.486 41.212C91.486 42.292 90.538 43.108 89.086 43.108C87.55 43.108 86.47 42.268 86.398 41.068H87.526C87.586 41.704 88.15 42.184 89.074 42.184C89.938 42.184 90.418 41.752 90.418 41.212C90.418 39.748 86.53 40.6 86.53 38.152C86.53 37.144 87.478 36.316 88.942 36.316C90.394 36.316 91.354 37.096 91.426 38.38H90.334C90.286 37.72 89.782 37.24 88.906 37.24C88.102 37.24 87.622 37.624 87.622 38.152C87.622 39.712 91.438 38.86 91.486 41.212Z" fill="white"/>
<rect x="117" y="0.5" width="93" height="59" rx="7.5" fill="white" fill-opacity="0.2"/>
<rect x="117" y="0.5" width="93" height="59" rx="7.5" stroke="url(#paint1_linear_346_351)"/>
<path d="M148.794 24.88V23.632C150.774 21.952 152.85 20.404 152.85 18.796C152.85 18.016 152.502 17.488 151.674 17.488C150.87 17.488 150.426 18.064 150.414 18.988H148.782C148.842 16.984 150.126 16.06 151.698 16.06C153.582 16.06 154.53 17.176 154.53 18.7C154.53 20.728 152.574 22.312 151.182 23.488H154.722V24.88H148.794ZM155.781 20.512C155.781 17.98 156.549 16.084 159.021 16.084C161.493 16.084 162.261 17.98 162.261 20.512C162.261 23.068 161.493 24.976 159.021 24.976C156.549 24.976 155.781 23.068 155.781 20.512ZM160.605 20.512C160.605 19.012 160.437 17.644 159.021 17.644C157.605 17.644 157.437 19.012 157.437 20.512C157.437 22.072 157.605 23.416 159.021 23.416C160.437 23.416 160.605 22.072 160.605 20.512ZM163.538 20.512C163.538 17.98 164.306 16.084 166.778 16.084C169.25 16.084 170.018 17.98 170.018 20.512C170.018 23.068 169.25 24.976 166.778 24.976C164.306 24.976 163.538 23.068 163.538 20.512ZM168.362 20.512C168.362 19.012 168.194 17.644 166.778 17.644C165.362 17.644 165.194 19.012 165.194 20.512C165.194 22.072 165.362 23.416 166.778 23.416C168.194 23.416 168.362 22.072 168.362 20.512ZM173.912 17.668H175.496V19.996H177.764V21.46H175.496V23.788H173.912V21.46H171.644V19.996H173.912V17.668Z" fill="white"/>
<path d="M129.082 38.812C129.082 36.304 130.918 34.528 133.258 34.528C135.07 34.528 136.51 35.44 137.134 37.06H135.826C135.37 36.052 134.482 35.488 133.258 35.488C131.506 35.488 130.198 36.76 130.198 38.812C130.198 40.852 131.506 42.124 133.258 42.124C134.482 42.124 135.37 41.56 135.826 40.564H137.134C136.51 42.172 135.07 43.072 133.258 43.072C130.918 43.072 129.082 41.32 129.082 38.812ZM145 39.7C145 41.788 143.5 43.108 141.628 43.108C139.768 43.108 138.352 41.788 138.352 39.7C138.352 37.624 139.816 36.316 141.676 36.316C143.548 36.316 145 37.624 145 39.7ZM139.468 39.7C139.468 41.368 140.488 42.148 141.628 42.148C142.768 42.148 143.884 41.368 143.884 39.7C143.884 38.044 142.792 37.264 141.664 37.264C140.512 37.264 139.468 38.044 139.468 39.7ZM155.928 43V39.28C155.928 37.936 155.208 37.252 154.128 37.252C153.024 37.252 152.268 37.96 152.268 39.376V43H151.188V39.28C151.188 37.936 150.468 37.252 149.388 37.252C148.284 37.252 147.528 37.96 147.528 39.376V43H146.436V36.424H147.528V37.372C147.96 36.676 148.74 36.304 149.604 36.304C150.684 36.304 151.584 36.784 152.016 37.768C152.4 36.82 153.336 36.304 154.344 36.304C155.844 36.304 157.008 37.24 157.008 39.124V43H155.928ZM159.891 37.636C160.287 36.94 161.151 36.316 162.351 36.316C164.115 36.316 165.471 37.636 165.471 39.688C165.471 41.728 164.115 43.108 162.351 43.108C161.151 43.108 160.299 42.46 159.891 41.788V46.12H158.799V36.424H159.891V37.636ZM164.355 39.688C164.355 38.14 163.335 37.264 162.123 37.264C160.935 37.264 159.891 38.176 159.891 39.7C159.891 41.248 160.935 42.148 162.123 42.148C163.335 42.148 164.355 41.236 164.355 39.688ZM166.5 39.688C166.5 37.636 167.856 36.316 169.62 36.316C170.844 36.316 171.684 36.94 172.068 37.624V36.424H173.172V43H172.068V41.776C171.672 42.484 170.82 43.108 169.608 43.108C167.856 43.108 166.5 41.728 166.5 39.688ZM172.068 39.7C172.068 38.176 171.036 37.264 169.836 37.264C168.636 37.264 167.616 38.14 167.616 39.688C167.616 41.236 168.636 42.148 169.836 42.148C171.036 42.148 172.068 41.248 172.068 39.7ZM179.83 43V39.28C179.83 37.936 179.098 37.252 177.994 37.252C176.878 37.252 176.11 37.948 176.11 39.364V43H175.018V36.424H176.11V37.36C176.542 36.676 177.334 36.304 178.222 36.304C179.746 36.304 180.91 37.24 180.91 39.124V43H179.83ZM182.694 43V36.424H183.786V43H182.694ZM183.258 35.356C182.838 35.356 182.514 35.032 182.514 34.612C182.514 34.192 182.838 33.868 183.258 33.868C183.654 33.868 183.978 34.192 183.978 34.612C183.978 35.032 183.654 35.356 183.258 35.356ZM188.443 37.24C187.375 37.24 186.487 37.948 186.367 39.232H190.519C190.531 37.948 189.571 37.24 188.443 37.24ZM191.515 40.972C191.179 42.172 190.123 43.108 188.491 43.108C186.619 43.108 185.239 41.788 185.239 39.7C185.239 37.624 186.571 36.316 188.491 36.316C190.399 36.316 191.647 37.66 191.647 39.46C191.647 39.7 191.635 39.892 191.611 40.12H186.355C186.439 41.452 187.375 42.184 188.491 42.184C189.475 42.184 190.099 41.68 190.339 40.972H191.515ZM197.816 41.212C197.816 42.292 196.868 43.108 195.416 43.108C193.88 43.108 192.8 42.268 192.728 41.068H193.856C193.916 41.704 194.48 42.184 195.404 42.184C196.268 42.184 196.748 41.752 196.748 41.212C196.748 39.748 192.86 40.6 192.86 38.152C192.86 37.144 193.808 36.316 195.272 36.316C196.724 36.316 197.684 37.096 197.756 38.38H196.664C196.616 37.72 196.112 37.24 195.236 37.24C194.432 37.24 193.952 37.624 193.952 38.152C193.952 39.712 197.768 38.86 197.816 41.212Z" fill="white"/>
<rect x="219" y="0.5" width="93" height="59" rx="7.5" fill="white" fill-opacity="0.2"/>
<rect x="219" y="0.5" width="93" height="59" rx="7.5" stroke="url(#paint2_linear_346_351)"/>
<path d="M253.121 25V17.8H251.957V16.252H254.849V25H253.121ZM256.509 20.512C256.509 17.98 257.277 16.084 259.749 16.084C262.221 16.084 262.989 17.98 262.989 20.512C262.989 23.068 262.221 24.976 259.749 24.976C257.277 24.976 256.509 23.068 256.509 20.512ZM261.333 20.512C261.333 19.012 261.165 17.644 259.749 17.644C258.333 17.644 258.165 19.012 258.165 20.512C258.165 22.072 258.333 23.416 259.749 23.416C261.165 23.416 261.333 22.072 261.333 20.512ZM264.267 20.512C264.267 17.98 265.035 16.084 267.507 16.084C269.979 16.084 270.747 17.98 270.747 20.512C270.747 23.068 269.979 24.976 267.507 24.976C265.035 24.976 264.267 23.068 264.267 20.512ZM269.091 20.512C269.091 19.012 268.923 17.644 267.507 17.644C266.091 17.644 265.923 19.012 265.923 20.512C265.923 22.072 266.091 23.416 267.507 23.416C268.923 23.416 269.091 22.072 269.091 20.512ZM274.641 17.668H276.225V19.996H278.493V21.46H276.225V23.788H274.641V21.46H272.373V19.996H274.641V17.668Z" fill="white"/>
<path d="M239.215 38.812C239.215 36.304 241.051 34.528 243.391 34.528C245.203 34.528 246.643 35.44 247.267 37.06H245.959C245.503 36.052 244.615 35.488 243.391 35.488C241.639 35.488 240.331 36.76 240.331 38.812C240.331 40.852 241.639 42.124 243.391 42.124C244.615 42.124 245.503 41.56 245.959 40.564H247.267C246.643 42.172 245.203 43.072 243.391 43.072C241.051 43.072 239.215 41.32 239.215 38.812ZM254.756 35.548H255.776V38.152H258.332V39.076H255.776V41.668H254.756V39.076H252.212V38.152H254.756V35.548ZM263.483 34.636H264.575V42.112H267.503V43H263.483V34.636ZM271.458 37.24C270.39 37.24 269.502 37.948 269.382 39.232H273.534C273.546 37.948 272.586 37.24 271.458 37.24ZM274.53 40.972C274.194 42.172 273.138 43.108 271.506 43.108C269.634 43.108 268.254 41.788 268.254 39.7C268.254 37.624 269.586 36.316 271.506 36.316C273.414 36.316 274.662 37.66 274.662 39.46C274.662 39.7 274.65 39.892 274.626 40.12H269.37C269.454 41.452 270.39 42.184 271.506 42.184C272.49 42.184 273.114 41.68 273.354 40.972H274.53ZM275.324 36.424H276.5L278.552 41.992L280.592 36.424H281.756L279.176 43H277.904L275.324 36.424ZM285.626 37.24C284.558 37.24 283.67 37.948 283.55 39.232H287.702C287.714 37.948 286.754 37.24 285.626 37.24ZM288.698 40.972C288.362 42.172 287.306 43.108 285.674 43.108C283.802 43.108 282.422 41.788 282.422 39.7C282.422 37.624 283.754 36.316 285.674 36.316C287.582 36.316 288.83 37.66 288.83 39.46C288.83 39.7 288.818 39.892 288.794 40.12H283.538C283.622 41.452 284.558 42.184 285.674 42.184C286.658 42.184 287.282 41.68 287.522 40.972H288.698ZM290.272 43V34.12H291.364V43H290.272Z" fill="white"/>
<rect x="66" y="68.5" width="93" height="59" rx="7.5" fill="white" fill-opacity="0.2"/>
<rect x="66" y="68.5" width="93" height="59" rx="7.5" stroke="url(#paint3_linear_346_351)"/>
<path d="M104.018 93V85.8H102.854V84.252H105.746V93H104.018ZM107.862 84.228H113.286V85.704H109.398V87.756C109.722 87.36 110.382 87.048 111.114 87.048C113.154 87.048 113.85 88.584 113.85 89.94C113.85 91.728 112.818 93 110.826 93C108.942 93 107.862 91.956 107.718 90.528H109.35C109.494 91.14 109.986 91.584 110.802 91.584C111.786 91.584 112.23 90.888 112.23 89.964C112.23 88.98 111.738 88.44 110.79 88.44C110.094 88.44 109.65 88.824 109.47 89.364H107.862V84.228ZM117.744 85.668H119.328V87.996H121.596V89.46H119.328V91.788H117.744V89.46H115.476V87.996H117.744V85.668Z" fill="white"/>
<path d="M91.3268 108.72C91.3268 109.908 90.3548 111.084 88.5428 111.084C86.8628 111.084 85.6748 110.148 85.6508 108.768H86.8148C86.8868 109.464 87.3788 110.16 88.5428 110.16C89.5988 110.16 90.2228 109.56 90.2228 108.768C90.2228 106.512 85.6988 107.952 85.6988 104.844C85.6988 103.464 86.8148 102.528 88.4708 102.528C90.0668 102.528 91.1108 103.404 91.2428 104.676H90.0428C89.9708 104.112 89.4428 103.476 88.4228 103.464C87.5228 103.44 86.8148 103.908 86.8148 104.808C86.8148 106.968 91.3268 105.624 91.3268 108.72ZM94.0258 105.636C94.4218 104.94 95.2858 104.316 96.4858 104.316C98.2498 104.316 99.6058 105.636 99.6058 107.688C99.6058 109.728 98.2498 111.108 96.4858 111.108C95.2858 111.108 94.4338 110.46 94.0258 109.788V114.12H92.9338V104.424H94.0258V105.636ZM98.4898 107.688C98.4898 106.14 97.4698 105.264 96.2578 105.264C95.0698 105.264 94.0258 106.176 94.0258 107.7C94.0258 109.248 95.0698 110.148 96.2578 110.148C97.4698 110.148 98.4898 109.236 98.4898 107.688ZM103.839 105.24C102.771 105.24 101.883 105.948 101.763 107.232H105.915C105.927 105.948 104.967 105.24 103.839 105.24ZM106.911 108.972C106.575 110.172 105.519 111.108 103.887 111.108C102.015 111.108 100.635 109.788 100.635 107.7C100.635 105.624 101.967 104.316 103.887 104.316C105.795 104.316 107.043 105.66 107.043 107.46C107.043 107.7 107.031 107.892 107.007 108.12H101.751C101.835 109.452 102.771 110.184 103.887 110.184C104.871 110.184 105.495 109.68 105.735 108.972H106.911ZM108.077 107.688C108.077 105.636 109.433 104.316 111.197 104.316C112.421 104.316 113.261 104.94 113.645 105.624V104.424H114.749V111H113.645V109.776C113.249 110.484 112.397 111.108 111.185 111.108C109.433 111.108 108.077 109.728 108.077 107.688ZM113.645 107.7C113.645 106.176 112.613 105.264 111.413 105.264C110.213 105.264 109.193 106.14 109.193 107.688C109.193 109.236 110.213 110.148 111.413 110.148C112.613 110.148 113.645 109.248 113.645 107.7ZM116.594 111V102.12H117.686V107.34L120.218 104.424H121.742L118.646 107.7L121.754 111H120.266L117.686 108.096V111H116.594ZM125.566 105.24C124.498 105.24 123.61 105.948 123.49 107.232H127.642C127.654 105.948 126.694 105.24 125.566 105.24ZM128.638 108.972C128.302 110.172 127.246 111.108 125.614 111.108C123.742 111.108 122.362 109.788 122.362 107.7C122.362 105.624 123.694 104.316 125.614 104.316C127.522 104.316 128.77 105.66 128.77 107.46C128.77 107.7 128.758 107.892 128.734 108.12H123.478C123.562 109.452 124.498 110.184 125.614 110.184C126.598 110.184 127.222 109.68 127.462 108.972H128.638ZM131.303 107.424V111H130.211V104.424H131.303V105.492C131.675 104.76 132.383 104.304 133.427 104.304V105.432H133.139C132.095 105.432 131.303 105.9 131.303 107.424ZM139.416 109.212C139.416 110.292 138.468 111.108 137.016 111.108C135.48 111.108 134.4 110.268 134.328 109.068H135.456C135.516 109.704 136.08 110.184 137.004 110.184C137.868 110.184 138.348 109.752 138.348 109.212C138.348 107.748 134.46 108.6 134.46 106.152C134.46 105.144 135.408 104.316 136.872 104.316C138.324 104.316 139.284 105.096 139.356 106.38H138.264C138.216 105.72 137.712 105.24 136.836 105.24C136.032 105.24 135.552 105.624 135.552 106.152C135.552 107.712 139.368 106.86 139.416 109.212Z" fill="white"/>
<rect x="168" y="68.5" width="93" height="59" rx="7.5" fill="white" fill-opacity="0.2"/>
<rect x="168" y="68.5" width="93" height="59" rx="7.5" stroke="url(#paint4_linear_346_351)"/>
<path d="M206 93V85.8H204.836V84.252H207.728V93H206ZM209.388 88.512C209.388 85.98 210.156 84.084 212.628 84.084C215.1 84.084 215.868 85.98 215.868 88.512C215.868 91.068 215.1 92.976 212.628 92.976C210.156 92.976 209.388 91.068 209.388 88.512ZM214.212 88.512C214.212 87.012 214.044 85.644 212.628 85.644C211.212 85.644 211.044 87.012 211.044 88.512C211.044 90.072 211.212 91.416 212.628 91.416C214.044 91.416 214.212 90.072 214.212 88.512ZM219.762 85.668H221.346V87.996H223.614V89.46H221.346V91.788H219.762V89.46H217.494V87.996H219.762V85.668Z" fill="white"/>
<path d="M191.793 102.624V103.524H188.385V106.32H191.433V107.22H188.385V110.1H191.793V111H187.293V102.624H191.793ZM196.877 111L195.317 108.552L193.817 111H192.677L194.801 107.736L192.677 104.424H193.913L195.473 106.86L196.961 104.424H198.101L195.989 107.676L198.113 111H196.877ZM199.188 111V102.12H200.28V105.372C200.712 104.676 201.528 104.304 202.452 104.304C203.916 104.304 205.08 105.24 205.08 107.124V111H204V107.28C204 105.936 203.268 105.252 202.164 105.252C201.048 105.252 200.28 105.948 200.28 107.364V111H199.188ZM206.863 111V104.424H207.955V111H206.863ZM207.427 103.356C207.007 103.356 206.683 103.032 206.683 102.612C206.683 102.192 207.007 101.868 207.427 101.868C207.823 101.868 208.147 102.192 208.147 102.612C208.147 103.032 207.823 103.356 207.427 103.356ZM210.909 105.648C211.329 104.916 212.205 104.316 213.369 104.316C215.145 104.316 216.489 105.636 216.489 107.688C216.489 109.728 215.133 111.108 213.369 111.108C212.169 111.108 211.317 110.508 210.909 109.788V111H209.817V102.12H210.909V105.648ZM215.373 107.688C215.373 106.14 214.353 105.264 213.141 105.264C211.953 105.264 210.909 106.176 210.909 107.7C210.909 109.248 211.953 110.148 213.141 110.148C214.353 110.148 215.373 109.236 215.373 107.688ZM217.926 111V104.424H219.018V111H217.926ZM218.49 103.356C218.07 103.356 217.746 103.032 217.746 102.612C217.746 102.192 218.07 101.868 218.49 101.868C218.886 101.868 219.21 102.192 219.21 102.612C219.21 103.032 218.886 103.356 218.49 103.356ZM221.119 109.2V105.324H220.267V104.424H221.119V102.768H222.211V104.424H223.927V105.324H222.211V109.2C222.211 109.848 222.451 110.076 223.123 110.076H223.927V111H222.943C221.779 111 221.119 110.52 221.119 109.2ZM225.25 111V104.424H226.342V111H225.25ZM225.814 103.356C225.394 103.356 225.07 103.032 225.07 102.612C225.07 102.192 225.394 101.868 225.814 101.868C226.21 101.868 226.534 102.192 226.534 102.612C226.534 103.032 226.21 103.356 225.814 103.356ZM234.443 107.7C234.443 109.788 232.943 111.108 231.071 111.108C229.211 111.108 227.795 109.788 227.795 107.7C227.795 105.624 229.259 104.316 231.119 104.316C232.991 104.316 234.443 105.624 234.443 107.7ZM228.911 107.7C228.911 109.368 229.931 110.148 231.071 110.148C232.211 110.148 233.327 109.368 233.327 107.7C233.327 106.044 232.235 105.264 231.107 105.264C229.955 105.264 228.911 106.044 228.911 107.7ZM240.691 111V107.28C240.691 105.936 239.959 105.252 238.855 105.252C237.739 105.252 236.971 105.948 236.971 107.364V111H235.879V104.424H236.971V105.36C237.403 104.676 238.195 104.304 239.083 104.304C240.607 104.304 241.771 105.24 241.771 107.124V111H240.691Z" fill="white"/>
<defs>
<linearGradient id="paint0_linear_346_351" x1="64.32" y1="2.18182" x2="38.6424" y2="42.41" gradientUnits="userSpaceOnUse">
<stop stop-color="#ECD430" stop-opacity="0.7"/>
<stop offset="1" stop-color="white" stop-opacity="0"/>
</linearGradient>
<linearGradient id="paint1_linear_346_351" x1="166.32" y1="2.18182" x2="140.642" y2="42.41" gradientUnits="userSpaceOnUse">
<stop stop-color="#ECD430" stop-opacity="0.7"/>
<stop offset="1" stop-color="white" stop-opacity="0"/>
</linearGradient>
<linearGradient id="paint2_linear_346_351" x1="268.32" y1="2.18182" x2="242.642" y2="42.41" gradientUnits="userSpaceOnUse">
<stop stop-color="#ECD430" stop-opacity="0.7"/>
<stop offset="1" stop-color="white" stop-opacity="0"/>
</linearGradient>
<linearGradient id="paint3_linear_346_351" x1="115.32" y1="70.1818" x2="89.6424" y2="110.41" gradientUnits="userSpaceOnUse">
<stop stop-color="#ECD430" stop-opacity="0.7"/>
<stop offset="1" stop-color="white" stop-opacity="0"/>
</linearGradient>
<linearGradient id="paint4_linear_346_351" x1="217.32" y1="70.1818" x2="191.642" y2="110.41" gradientUnits="userSpaceOnUse">
<stop stop-color="#ECD430" stop-opacity="0.7"/>
<stop offset="1" stop-color="white" stop-opacity="0"/>
</linearGradient>
</defs>
</svg>
