<svg width="300" height="172" viewBox="0 0 300 172" fill="none" xmlns="http://www.w3.org/2000/svg">
<path d="M295.479 74C295.479 71.7295 297.503 69.8889 300 69.8889V65.7778C297.503 65.7778 295.479 63.9372 295.479 61.6667C295.479 59.3962 297.503 57.5556 300 57.5556V53.4445C297.503 53.4445 295.479 51.6038 295.479 49.3333C295.479 47.0628 297.503 45.2222 300 45.2222V41.1111C297.503 41.1111 295.479 39.2705 295.479 37C295.479 34.7295 297.503 32.8889 300 32.8889V28.7778C297.503 28.7778 295.479 26.9372 295.479 24.6667C295.479 22.3962 297.503 20.5556 300 20.5556V16.4445C297.503 16.4445 295.479 14.6038 295.479 12.3333C295.479 10.0628 297.503 8.22224 300 8.22224V4.11113C297.503 4.11113 295.479 2.27052 295.479 1.60534e-05L93.5214 0C93.5214 2.2705 91.4971 4.11111 89 4.11111L89 69.8889C91.4971 69.8889 93.5214 71.7295 93.5214 74L295.479 74Z" fill="white"/>
<path d="M163.53 17.524V20.32H166.578V21.22H163.53V24.1H166.938V25H162.438V16.624H166.938V17.524H163.53ZM171.038 23.992L173.078 18.424H174.242L171.662 25H170.39L167.81 18.424H168.986L171.038 23.992ZM181.317 21.46C181.317 21.668 181.305 21.888 181.281 22.12H176.025C176.065 22.768 176.285 23.276 176.685 23.644C177.093 24.004 177.585 24.184 178.161 24.184C178.633 24.184 179.025 24.076 179.337 23.86C179.657 23.636 179.881 23.34 180.009 22.972H181.185C181.009 23.604 180.657 24.12 180.129 24.52C179.601 24.912 178.945 25.108 178.161 25.108C177.537 25.108 176.977 24.968 176.481 24.688C175.993 24.408 175.609 24.012 175.329 23.5C175.049 22.98 174.909 22.38 174.909 21.7C174.909 21.02 175.045 20.424 175.317 19.912C175.589 19.4 175.969 19.008 176.457 18.736C176.953 18.456 177.521 18.316 178.161 18.316C178.785 18.316 179.337 18.452 179.817 18.724C180.297 18.996 180.665 19.372 180.921 19.852C181.185 20.324 181.317 20.86 181.317 21.46ZM180.189 21.232C180.189 20.816 180.097 20.46 179.913 20.164C179.729 19.86 179.477 19.632 179.157 19.48C178.845 19.32 178.497 19.24 178.113 19.24C177.561 19.24 177.089 19.416 176.697 19.768C176.313 20.12 176.093 20.608 176.037 21.232H180.189ZM185.962 18.304C186.762 18.304 187.41 18.548 187.906 19.036C188.402 19.516 188.65 20.212 188.65 21.124V25H187.57V21.28C187.57 20.624 187.406 20.124 187.078 19.78C186.75 19.428 186.302 19.252 185.734 19.252C185.158 19.252 184.698 19.432 184.354 19.792C184.018 20.152 183.85 20.676 183.85 21.364V25H182.758V18.424H183.85V19.36C184.066 19.024 184.358 18.764 184.726 18.58C185.102 18.396 185.514 18.304 185.962 18.304ZM191.766 19.324V23.2C191.766 23.52 191.834 23.748 191.97 23.884C192.106 24.012 192.342 24.076 192.678 24.076H193.482V25H192.498C191.89 25 191.434 24.86 191.13 24.58C190.826 24.3 190.674 23.84 190.674 23.2V19.324H189.822V18.424H190.674V16.768H191.766V18.424H193.482V19.324H191.766ZM200.608 16.636C201.52 16.636 202.308 16.808 202.972 17.152C203.644 17.488 204.156 17.972 204.508 18.604C204.868 19.236 205.048 19.98 205.048 20.836C205.048 21.692 204.868 22.436 204.508 23.068C204.156 23.692 203.644 24.172 202.972 24.508C202.308 24.836 201.52 25 200.608 25H198.004V16.636H200.608ZM200.608 24.1C201.688 24.1 202.512 23.816 203.08 23.248C203.648 22.672 203.932 21.868 203.932 20.836C203.932 19.796 203.644 18.984 203.068 18.4C202.5 17.816 201.68 17.524 200.608 17.524H199.096V24.1H200.608ZM206.08 21.688C206.08 21.016 206.216 20.428 206.488 19.924C206.76 19.412 207.132 19.016 207.604 18.736C208.084 18.456 208.616 18.316 209.2 18.316C209.776 18.316 210.276 18.44 210.7 18.688C211.124 18.936 211.44 19.248 211.648 19.624V18.424H212.752V25H211.648V23.776C211.432 24.16 211.108 24.48 210.676 24.736C210.252 24.984 209.756 25.108 209.188 25.108C208.604 25.108 208.076 24.964 207.604 24.676C207.132 24.388 206.76 23.984 206.488 23.464C206.216 22.944 206.08 22.352 206.08 21.688ZM211.648 21.7C211.648 21.204 211.548 20.772 211.348 20.404C211.148 20.036 210.876 19.756 210.532 19.564C210.196 19.364 209.824 19.264 209.416 19.264C209.008 19.264 208.636 19.36 208.3 19.552C207.964 19.744 207.696 20.024 207.496 20.392C207.296 20.76 207.196 21.192 207.196 21.688C207.196 22.192 207.296 22.632 207.496 23.008C207.696 23.376 207.964 23.66 208.3 23.86C208.636 24.052 209.008 24.148 209.416 24.148C209.824 24.148 210.196 24.052 210.532 23.86C210.876 23.66 211.148 23.376 211.348 23.008C211.548 22.632 211.648 22.196 211.648 21.7ZM215.93 19.324V23.2C215.93 23.52 215.998 23.748 216.134 23.884C216.27 24.012 216.506 24.076 216.842 24.076H217.646V25H216.662C216.054 25 215.598 24.86 215.294 24.58C214.99 24.3 214.838 23.84 214.838 23.2V19.324H213.986V18.424H214.838V16.768H215.93V18.424H217.646V19.324H215.93ZM224.969 21.46C224.969 21.668 224.957 21.888 224.933 22.12H219.677C219.717 22.768 219.937 23.276 220.337 23.644C220.745 24.004 221.237 24.184 221.813 24.184C222.285 24.184 222.677 24.076 222.989 23.86C223.309 23.636 223.533 23.34 223.661 22.972H224.837C224.661 23.604 224.309 24.12 223.781 24.52C223.253 24.912 222.597 25.108 221.813 25.108C221.189 25.108 220.629 24.968 220.133 24.688C219.645 24.408 219.261 24.012 218.981 23.5C218.701 22.98 218.561 22.38 218.561 21.7C218.561 21.02 218.697 20.424 218.969 19.912C219.241 19.4 219.621 19.008 220.109 18.736C220.605 18.456 221.173 18.316 221.813 18.316C222.437 18.316 222.989 18.452 223.469 18.724C223.949 18.996 224.317 19.372 224.573 19.852C224.837 20.324 224.969 20.86 224.969 21.46ZM223.841 21.232C223.841 20.816 223.749 20.46 223.565 20.164C223.381 19.86 223.129 19.632 222.809 19.48C222.497 19.32 222.149 19.24 221.765 19.24C221.213 19.24 220.741 19.416 220.349 19.768C219.965 20.12 219.745 20.608 219.689 21.232H223.841Z" fill="#415269"/>
<line x1="107" y1="33.5" x2="280" y2="33.5" stroke="#415269"/>
<path d="M101.512 46.64V44.832H109.704V46.64H106.728V56H104.488V46.64H101.512ZM111.338 56V44.16H113.578V48.24C114.154 47.488 115.146 47.008 116.33 47.008C118.33 47.008 119.786 48.352 119.786 50.8V56H117.546V51.104C117.546 49.68 116.762 48.912 115.578 48.912C114.362 48.912 113.578 49.68 113.578 51.104V56H111.338ZM130.285 47.136V56H128.029V54.88C127.469 55.632 126.493 56.112 125.389 56.112C123.325 56.112 121.837 54.768 121.837 52.336V47.136H124.077V52.016C124.077 53.44 124.861 54.208 126.045 54.208C127.261 54.208 128.029 53.44 128.029 52.016V47.136H130.285ZM134.735 51.584V56H132.495V47.136H134.735V48.512C135.295 47.6 136.223 47.008 137.455 47.008V49.36H136.863C135.535 49.36 134.735 49.872 134.735 51.584ZM145.843 53.472C145.843 54.992 144.515 56.144 142.355 56.144C140.131 56.144 138.579 54.848 138.483 53.2H140.739C140.819 53.872 141.443 54.384 142.339 54.384C143.219 54.384 143.699 53.984 143.699 53.472C143.699 51.888 138.691 52.896 138.691 49.648C138.691 48.176 140.003 46.992 142.195 46.992C144.339 46.992 145.635 48.16 145.763 49.92H143.619C143.555 49.232 143.011 48.768 142.131 48.768C141.299 48.768 140.867 49.104 140.867 49.616C140.867 51.232 145.779 50.224 145.843 53.472ZM147.106 51.536C147.106 48.768 148.898 46.992 151.17 46.992C152.338 46.992 153.458 47.536 154.066 48.368V44.16H156.338V56H154.066V54.688C153.538 55.504 152.546 56.144 151.154 56.144C148.898 56.144 147.106 54.304 147.106 51.536ZM154.082 51.568C154.082 49.888 152.962 48.96 151.73 48.96C150.53 48.96 149.394 49.856 149.394 51.536C149.394 53.216 150.53 54.176 151.73 54.176C152.962 54.176 154.082 53.248 154.082 51.568ZM157.95 51.536C157.95 48.768 159.742 46.992 161.998 46.992C163.422 46.992 164.398 47.664 164.926 48.4V47.136H167.182V56H164.926V54.704C164.398 55.472 163.39 56.144 161.982 56.144C159.742 56.144 157.95 54.304 157.95 51.536ZM164.926 51.568C164.926 49.888 163.806 48.96 162.574 48.96C161.374 48.96 160.238 49.856 160.238 51.536C160.238 53.216 161.374 54.176 162.574 54.176C163.806 54.176 164.926 53.248 164.926 51.568ZM173.146 53.328L175.466 47.136H177.85L172.362 60.192H169.978L171.898 55.776L168.346 47.136H170.858L173.146 53.328ZM178.145 58.304L179.217 53.536H181.585L179.601 58.304H178.145ZM186.564 55.84V54.176C189.204 51.936 191.972 49.872 191.972 47.728C191.972 46.688 191.508 45.984 190.404 45.984C189.332 45.984 188.74 46.752 188.724 47.984H186.548C186.628 45.312 188.34 44.08 190.436 44.08C192.948 44.08 194.212 45.568 194.212 47.6C194.212 50.304 191.604 52.416 189.748 53.984H194.468V55.84H186.564ZM195.751 55.84V54.176C198.391 51.936 201.159 49.872 201.159 47.728C201.159 46.688 200.695 45.984 199.591 45.984C198.519 45.984 197.927 46.752 197.911 47.984H195.735C195.815 45.312 197.527 44.08 199.623 44.08C202.135 44.08 203.399 45.568 203.399 47.6C203.399 50.304 200.791 52.416 198.935 53.984H203.655V55.84H195.751ZM209.135 56V44.832H211.679L215.231 53.136L218.783 44.832H221.311V56H219.071V48.736L216.079 56H214.383L211.375 48.736V56H209.135ZM222.95 51.536C222.95 48.768 224.742 46.992 226.998 46.992C228.422 46.992 229.398 47.664 229.926 48.4V47.136H232.182V56H229.926V54.704C229.398 55.472 228.39 56.144 226.982 56.144C224.742 56.144 222.95 54.304 222.95 51.536ZM229.926 51.568C229.926 49.888 228.806 48.96 227.574 48.96C226.374 48.96 225.238 49.856 225.238 51.536C225.238 53.216 226.374 54.176 227.574 54.176C228.806 54.176 229.926 53.248 229.926 51.568ZM238.146 53.328L240.466 47.136H242.85L237.362 60.192H234.978L236.898 55.776L233.346 47.136H235.858L238.146 53.328ZM247.486 55.84V54.176C250.126 51.936 252.894 49.872 252.894 47.728C252.894 46.688 252.43 45.984 251.326 45.984C250.254 45.984 249.662 46.752 249.646 47.984H247.47C247.55 45.312 249.262 44.08 251.358 44.08C253.87 44.08 255.134 45.568 255.134 47.6C255.134 50.304 252.526 52.416 250.67 53.984H255.39V55.84H247.486ZM256.801 50.016C256.801 46.64 257.825 44.112 261.121 44.112C264.417 44.112 265.441 46.64 265.441 50.016C265.441 53.424 264.417 55.968 261.121 55.968C257.825 55.968 256.801 53.424 256.801 50.016ZM263.233 50.016C263.233 48.016 263.009 46.192 261.121 46.192C259.233 46.192 259.009 48.016 259.009 50.016C259.009 52.096 259.233 53.888 261.121 53.888C263.009 53.888 263.233 52.096 263.233 50.016ZM267.017 55.84V54.176C269.657 51.936 272.425 49.872 272.425 47.728C272.425 46.688 271.961 45.984 270.857 45.984C269.785 45.984 269.193 46.752 269.177 47.984H267.001C267.081 45.312 268.793 44.08 270.889 44.08C273.401 44.08 274.665 45.568 274.665 47.6C274.665 50.304 272.057 52.416 270.201 53.984H274.921V55.84H267.017ZM276.94 44.304H284.172V46.272H278.988V49.008C279.42 48.48 280.3 48.064 281.276 48.064C283.996 48.064 284.924 50.112 284.924 51.92C284.924 54.304 283.548 56 280.892 56C278.38 56 276.94 54.608 276.748 52.704H278.924C279.116 53.52 279.772 54.112 280.86 54.112C282.172 54.112 282.764 53.184 282.764 51.952C282.764 50.64 282.108 49.92 280.844 49.92C279.916 49.92 279.324 50.432 279.084 51.152H276.94V44.304Z" fill="#29388B"/>
<path d="M255.407 172C255.407 169.729 257.911 167.889 261 167.889V163.778C257.911 163.778 255.407 161.937 255.407 159.667C255.407 157.396 257.911 155.556 261 155.556V151.444C257.911 151.444 255.407 149.604 255.407 147.333C255.407 145.063 257.911 143.222 261 143.222V139.111C257.911 139.111 255.407 137.271 255.407 135C255.407 132.73 257.911 130.889 261 130.889V126.778C257.911 126.778 255.407 124.937 255.407 122.667C255.407 120.396 257.911 118.556 261 118.556V114.444C257.911 114.444 255.407 112.604 255.407 110.333C255.407 108.063 257.911 106.222 261 106.222V102.111C257.911 102.111 255.407 100.271 255.407 98L5.59287 98C5.59286 100.271 3.08887 102.111 7.82309e-06 102.111L0 167.889C3.08886 167.889 5.59286 169.729 5.59286 172L255.407 172Z" fill="white"/>
<path d="M92.676 114.624V115.524H89.268V118.32H92.316V119.22H89.268V122.1H92.676V123H88.176V114.624H92.676ZM93.5483 116.424H94.7243L96.7763 121.992L98.8163 116.424H99.9803L97.4003 123H96.1283L93.5483 116.424ZM103.851 117.24C102.783 117.24 101.895 117.948 101.775 119.232H105.927C105.939 117.948 104.979 117.24 103.851 117.24ZM106.923 120.972C106.587 122.172 105.531 123.108 103.899 123.108C102.027 123.108 100.647 121.788 100.647 119.7C100.647 117.624 101.979 116.316 103.899 116.316C105.807 116.316 107.055 117.66 107.055 119.46C107.055 119.7 107.043 119.892 107.019 120.12H101.763C101.847 121.452 102.783 122.184 103.899 122.184C104.883 122.184 105.507 121.68 105.747 120.972H106.923ZM113.308 123V119.28C113.308 117.936 112.576 117.252 111.472 117.252C110.356 117.252 109.588 117.948 109.588 119.364V123H108.496V116.424H109.588V117.36C110.02 116.676 110.812 116.304 111.7 116.304C113.224 116.304 114.388 117.24 114.388 119.124V123H113.308ZM116.412 121.2V117.324H115.56V116.424H116.412V114.768H117.504V116.424H119.22V117.324H117.504V121.2C117.504 121.848 117.744 122.076 118.416 122.076H119.22V123H118.236C117.072 123 116.412 122.52 116.412 121.2ZM123.742 114.636H124.834V122.112H127.762V123H123.742V114.636ZM135.162 119.7C135.162 121.788 133.662 123.108 131.79 123.108C129.93 123.108 128.514 121.788 128.514 119.7C128.514 117.624 129.978 116.316 131.838 116.316C133.71 116.316 135.162 117.624 135.162 119.7ZM129.63 119.7C129.63 121.368 130.65 122.148 131.79 122.148C132.93 122.148 134.046 121.368 134.046 119.7C134.046 118.044 132.954 117.264 131.826 117.264C130.674 117.264 129.63 118.044 129.63 119.7ZM136.19 119.7C136.19 117.636 137.522 116.316 139.394 116.316C141.026 116.316 142.094 117.156 142.43 118.536H141.254C141.026 117.744 140.366 117.24 139.394 117.24C138.194 117.24 137.306 118.092 137.306 119.7C137.306 121.332 138.194 122.184 139.394 122.184C140.366 122.184 141.014 121.716 141.254 120.888H142.43C142.094 122.196 141.026 123.108 139.394 123.108C137.522 123.108 136.19 121.788 136.19 119.7ZM143.479 119.688C143.479 117.636 144.835 116.316 146.599 116.316C147.823 116.316 148.663 116.94 149.047 117.624V116.424H150.151V123H149.047V121.776C148.651 122.484 147.799 123.108 146.587 123.108C144.835 123.108 143.479 121.728 143.479 119.688ZM149.047 119.7C149.047 118.176 148.015 117.264 146.815 117.264C145.615 117.264 144.595 118.14 144.595 119.688C144.595 121.236 145.615 122.148 146.815 122.148C148.015 122.148 149.047 121.248 149.047 119.7ZM152.236 121.2V117.324H151.384V116.424H152.236V114.768H153.328V116.424H155.044V117.324H153.328V121.2C153.328 121.848 153.568 122.076 154.24 122.076H155.044V123H154.06C152.896 123 152.236 122.52 152.236 121.2ZM156.367 123V116.424H157.459V123H156.367ZM156.931 115.356C156.511 115.356 156.187 115.032 156.187 114.612C156.187 114.192 156.511 113.868 156.931 113.868C157.327 113.868 157.651 114.192 157.651 114.612C157.651 115.032 157.327 115.356 156.931 115.356ZM165.56 119.7C165.56 121.788 164.06 123.108 162.188 123.108C160.328 123.108 158.912 121.788 158.912 119.7C158.912 117.624 160.376 116.316 162.236 116.316C164.108 116.316 165.56 117.624 165.56 119.7ZM160.028 119.7C160.028 121.368 161.048 122.148 162.188 122.148C163.328 122.148 164.444 121.368 164.444 119.7C164.444 118.044 163.352 117.264 162.224 117.264C161.072 117.264 160.028 118.044 160.028 119.7ZM171.808 123V119.28C171.808 117.936 171.076 117.252 169.972 117.252C168.856 117.252 168.088 117.948 168.088 119.364V123H166.996V116.424H168.088V117.36C168.52 116.676 169.312 116.304 170.2 116.304C171.724 116.304 172.888 117.24 172.888 119.124V123H171.808Z" fill="#415269"/>
<line x1="44" y1="131.5" x2="217" y2="131.5" stroke="#415269"/>
<path d="M21.128 154V149.248H16.344V154H14.104V142.832H16.344V147.424H21.128V142.832H23.368V154H21.128ZM34.1328 149.568C34.1328 152.352 32.0848 154.144 29.5088 154.144C26.9488 154.144 25.0128 152.352 25.0128 149.568C25.0128 146.768 27.0128 144.992 29.5728 144.992C32.1328 144.992 34.1328 146.768 34.1328 149.568ZM27.2848 149.568C27.2848 151.328 28.3088 152.192 29.5088 152.192C30.6928 152.192 31.8288 151.328 31.8288 149.568C31.8288 147.792 30.7248 146.944 29.5408 146.944C28.3568 146.944 27.2848 147.792 27.2848 149.568ZM36.1279 151.248V146.976H35.0719V145.136H36.1279V142.944H38.3839V145.136H40.3679V146.976H38.3839V151.264C38.3839 151.856 38.6239 152.112 39.3279 152.112H40.3679V154H38.9599C37.2639 154 36.1279 153.28 36.1279 151.248ZM45.787 146.832C44.715 146.832 43.867 147.52 43.691 148.736H47.899C47.867 147.568 46.939 146.832 45.787 146.832ZM49.995 151.216C49.515 152.848 48.043 154.144 45.851 154.144C43.275 154.144 41.403 152.352 41.403 149.568C41.403 146.768 43.227 144.992 45.851 144.992C48.411 144.992 50.219 146.736 50.219 149.376C50.219 149.664 50.203 149.952 50.155 150.24H43.675C43.787 151.552 44.683 152.288 45.803 152.288C46.763 152.288 47.291 151.808 47.579 151.216H49.995ZM51.854 154V142.16H54.094V154H51.854ZM60.1196 154V142.832H62.6636L66.2156 151.136L69.7676 142.832H72.2956V154H70.0556V146.736L67.0636 154H65.3676L62.3596 146.736V154H60.1196ZM82.8783 145.136V154H80.6223V152.88C80.0623 153.632 79.0863 154.112 77.9823 154.112C75.9183 154.112 74.4303 152.768 74.4303 150.336V145.136H76.6703V150.016C76.6703 151.44 77.4543 152.208 78.6383 152.208C79.8543 152.208 80.6223 151.44 80.6223 150.016V145.136H82.8783ZM85.0884 154V142.16H87.3284V154H85.0884ZM89.5415 154V145.136H91.7815V154H89.5415ZM90.6775 144.08C89.8775 144.08 89.3015 143.504 89.3015 142.768C89.3015 142.032 89.8775 141.456 90.6775 141.456C91.4615 141.456 92.0535 142.032 92.0535 142.768C92.0535 143.504 91.4615 144.08 90.6775 144.08ZM93.4186 149.536C93.4186 146.768 95.2106 144.992 97.4666 144.992C98.8906 144.992 99.8666 145.664 100.395 146.4V145.136H102.651V154H100.395V152.704C99.8666 153.472 98.8586 154.144 97.4506 154.144C95.2106 154.144 93.4186 152.304 93.4186 149.536ZM100.395 149.568C100.395 147.888 99.2746 146.96 98.0426 146.96C96.8426 146.96 95.7066 147.856 95.7066 149.536C95.7066 151.216 96.8426 152.176 98.0426 152.176C99.2746 152.176 100.395 151.248 100.395 149.568ZM116.459 150.768C116.459 152.528 115.051 154.112 112.507 154.112C110.187 154.112 108.395 152.896 108.363 150.784H110.763C110.827 151.68 111.419 152.272 112.459 152.272C113.515 152.272 114.139 151.712 114.139 150.912C114.139 148.496 108.379 149.952 108.395 145.904C108.395 143.888 110.027 142.672 112.331 142.672C114.619 142.672 116.187 143.84 116.331 145.856H113.867C113.819 145.12 113.227 144.544 112.267 144.528C111.387 144.496 110.731 144.928 110.731 145.84C110.731 148.08 116.459 146.832 116.459 150.768ZM122.209 146.832C121.137 146.832 120.289 147.52 120.113 148.736H124.321C124.289 147.568 123.361 146.832 122.209 146.832ZM126.417 151.216C125.937 152.848 124.465 154.144 122.273 154.144C119.697 154.144 117.825 152.352 117.825 149.568C117.825 146.768 119.649 144.992 122.273 144.992C124.833 144.992 126.641 146.736 126.641 149.376C126.641 149.664 126.625 149.952 126.577 150.24H120.097C120.209 151.552 121.105 152.288 122.225 152.288C123.185 152.288 123.713 151.808 124.001 151.216H126.417ZM134.484 154V149.104C134.484 147.68 133.7 146.912 132.516 146.912C131.3 146.912 130.516 147.68 130.516 149.104V154H128.276V145.136H130.516V146.24C131.092 145.488 132.052 145.008 133.188 145.008C135.252 145.008 136.724 146.352 136.724 148.8V154H134.484ZM138.278 149.536C138.278 146.768 140.07 144.992 142.326 144.992C143.75 144.992 144.726 145.664 145.254 146.4V145.136H147.51V154H145.254V152.704C144.726 153.472 143.718 154.144 142.31 154.144C140.07 154.144 138.278 152.304 138.278 149.536ZM145.254 149.568C145.254 147.888 144.134 146.96 142.902 146.96C141.702 146.96 140.566 147.856 140.566 149.536C140.566 151.216 141.702 152.176 142.902 152.176C144.134 152.176 145.254 151.248 145.254 149.568ZM153.474 151.328L155.794 145.136H158.178L152.69 158.192H150.306L152.226 153.776L148.674 145.136H151.186L153.474 151.328ZM158.809 149.536C158.809 146.768 160.601 144.992 162.857 144.992C164.281 144.992 165.257 145.664 165.785 146.4V145.136H168.041V154H165.785V152.704C165.257 153.472 164.249 154.144 162.841 154.144C160.601 154.144 158.809 152.304 158.809 149.536ZM165.785 149.568C165.785 147.888 164.665 146.96 163.433 146.96C162.233 146.96 161.097 147.856 161.097 149.536C161.097 151.216 162.233 152.176 163.433 152.176C164.665 152.176 165.785 151.248 165.785 149.568ZM176.437 154V149.104C176.437 147.68 175.653 146.912 174.469 146.912C173.253 146.912 172.469 147.68 172.469 149.104V154H170.229V145.136H172.469V146.24C173.045 145.488 174.005 145.008 175.141 145.008C177.205 145.008 178.677 146.352 178.677 148.8V154H176.437ZM188.876 150.672V142.832H191.132V150.672C191.132 152.88 189.724 154.112 187.66 154.112C185.564 154.112 184.092 152.848 184.092 150.592H186.332C186.348 151.536 186.78 152.112 187.628 152.112C188.46 152.112 188.876 151.552 188.876 150.672ZM193.169 149.536C193.169 146.768 194.961 144.992 197.217 144.992C198.641 144.992 199.617 145.664 200.145 146.4V145.136H202.401V154H200.145V152.704C199.617 153.472 198.609 154.144 197.201 154.144C194.961 154.144 193.169 152.304 193.169 149.536ZM200.145 149.568C200.145 147.888 199.025 146.96 197.793 146.96C196.593 146.96 195.457 147.856 195.457 149.536C195.457 151.216 196.593 152.176 197.793 152.176C199.025 152.176 200.145 151.248 200.145 149.568ZM204.588 154V142.16H206.828V148.896L209.804 145.136H212.716L208.812 149.584L212.748 154H209.836L206.828 150.224V154H204.588ZM213.356 149.536C213.356 146.768 215.148 144.992 217.404 144.992C218.828 144.992 219.804 145.664 220.332 146.4V145.136H222.588V154H220.332V152.704C219.804 153.472 218.796 154.144 217.388 154.144C215.148 154.144 213.356 152.304 213.356 149.536ZM220.332 149.568C220.332 147.888 219.212 146.96 217.98 146.96C216.78 146.96 215.644 147.856 215.644 149.536C215.644 151.216 216.78 152.176 217.98 152.176C219.212 152.176 220.332 151.248 220.332 149.568ZM227.016 149.584V154H224.776V145.136H227.016V146.512C227.576 145.6 228.504 145.008 229.736 145.008V147.36H229.144C227.816 147.36 227.016 147.872 227.016 149.584ZM231.597 151.248V146.976H230.541V145.136H231.597V142.944H233.853V145.136H235.837V146.976H233.853V151.264C233.853 151.856 234.093 152.112 234.797 152.112H235.837V154H234.429C232.733 154 231.597 153.28 231.597 151.248ZM236.872 149.536C236.872 146.768 238.664 144.992 240.92 144.992C242.344 144.992 243.32 145.664 243.848 146.4V145.136H246.104V154H243.848V152.704C243.32 153.472 242.312 154.144 240.904 154.144C238.664 154.144 236.872 152.304 236.872 149.536ZM243.848 149.568C243.848 147.888 242.728 146.96 241.496 146.96C240.296 146.96 239.16 147.856 239.16 149.536C239.16 151.216 240.296 152.176 241.496 152.176C242.728 152.176 243.848 151.248 243.848 149.568Z" fill="#29388B"/>
</svg>
