<?xml version="1.0" encoding="UTF-8"?>
<svg id="Layer_2" xmlns="http://www.w3.org/2000/svg" version="1.1" viewBox="0 0 79 55">
  <!-- Generator: Adobe Illustrator 29.3.0, SVG Export Plug-In . SVG Version: 2.1.0 Build 146)  -->
  <defs>
    <style>
      .st0 {
        isolation: isolate;
      }

      .st1 {
        fill: #103294;
      }

      .st2 {
        fill: #fff;
      }

      .st3 {
        fill: #ffc700;
      }
    </style>
  </defs>
  <g id="Layer_1-2">
    <g>
      <g class="st0">
        <g class="st0">
          <path class="st2" d="M4.6,10.4h4v2.3H1.6V.3h3v10.1Z"/>
          <path class="st2" d="M12.7,12.1c-1-.5-1.7-1.3-2.3-2.3-.6-1-.9-2.1-.9-3.3s.3-2.3.9-3.3c.6-1,1.3-1.7,2.3-2.3,1-.5,2-.8,3.2-.8s2.2.3,3.2.8c1,.5,1.7,1.3,2.3,2.3.6,1,.8,2.1.8,3.3s-.3,2.3-.8,3.3c-.6,1-1.3,1.7-2.3,2.3-1,.5-2,.8-3.2.8s-2.2-.3-3.2-.8ZM18.3,9.1c.6-.7.9-1.5.9-2.6s-.3-2-.9-2.6c-.6-.7-1.4-1-2.4-1s-1.8.3-2.4,1c-.6.6-.9,1.5-.9,2.6s.3,2,.9,2.6c.6.7,1.4,1,2.4,1s1.8-.3,2.4-1Z"/>
          <path class="st2" d="M34.6.3l-4.3,8.3v4.1h-3v-4.1L23,.3h3.4l2.4,5.2L31.2.3h3.4Z"/>
          <path class="st2" d="M43.6,10.6h-4.6l-.7,2.2h-3.2L39.5.3h3.5l4.5,12.4h-3.2l-.7-2.2ZM42.8,8.2l-1.5-4.6-1.5,4.6h3.1Z"/>
          <path class="st2" d="M51.9,10.4h4v2.3h-7V.3h3v10.1Z"/>
          <path class="st2" d="M66.3.3v2.4h-3.3v10h-3V2.8h-3.3V.3h9.6Z"/>
          <path class="st2" d="M78.5.3l-4.3,8.3v4.1h-3v-4.1L66.8.3h3.4l2.4,5.2,2.4-5.2h3.4Z"/>
        </g>
      </g>
      <g>
        <rect class="st3" x=".5" y="19.4" width="78" height="16.7"/>
        <g class="st0">
          <g class="st0">
            <path class="st1" d="M6.9,33.6c-.7-.3-1.3-.7-1.7-1.3-.4-.6-.7-1.3-.7-2.1h3.2c0,.5.2.8.5,1.1.3.2.6.4,1.1.4s.8-.1,1.1-.3c.3-.2.4-.5.4-.9s-.1-.6-.3-.8c-.2-.2-.5-.4-.8-.5-.3-.1-.7-.3-1.3-.4-.8-.2-1.5-.5-2-.7-.5-.2-.9-.6-1.3-1.1-.4-.5-.5-1.1-.5-1.9,0-1.2.4-2.1,1.3-2.7.8-.7,1.9-1,3.3-1s2.5.3,3.3,1c.8.7,1.3,1.6,1.3,2.7h-3.3c0-.4-.2-.7-.4-.9-.3-.2-.6-.3-1-.3s-.7,0-.9.3c-.2.2-.3.5-.3.8s.2.7.6.9c.4.2,1,.5,1.8.7.8.3,1.5.5,2,.8.5.2.9.6,1.3,1.1.4.5.5,1.1.5,1.8s-.2,1.4-.5,1.9c-.4.6-.9,1-1.6,1.4-.7.3-1.5.5-2.4.5s-1.7-.1-2.4-.4Z"/>
            <path class="st1" d="M18.7,21.5v7.4c0,.7.2,1.3.5,1.7.4.4.9.6,1.6.6s1.3-.2,1.6-.6c.4-.4.6-1,.6-1.7v-7.4h3v7.4c0,1.1-.2,2-.7,2.8-.5.8-1.1,1.3-1.9,1.7-.8.4-1.7.6-2.7.6s-1.9-.2-2.6-.6c-.8-.4-1.4-1-1.8-1.7-.4-.8-.7-1.7-.7-2.8v-7.4h3Z"/>
            <path class="st1" d="M42.3,21.5v12.4h-3v-7.5l-2.8,7.5h-2.4l-2.8-7.5v7.5h-3v-12.4h3.6l3.5,8.6,3.5-8.6h3.6Z"/>
            <path class="st1" d="M58.5,21.5v12.4h-3v-7.5l-2.8,7.5h-2.4l-2.8-7.5v7.5h-3v-12.4h3.6l3.5,8.6,3.5-8.6h3.6Z"/>
            <path class="st1" d="M63.7,21.5v12.4h-3v-12.4h3Z"/>
            <path class="st1" d="M74.9,21.5v2.4h-3.3v10h-3v-10h-3.3v-2.4h9.6Z"/>
          </g>
        </g>
      </g>
      <g class="st0">
        <g class="st0">
          <path class="st2" d="M4.9,50.5c.8-.8,1.6-1.6,2.2-2.4.6-.8.9-1.7.9-2.5s-.2-1.4-.6-1.8c-.4-.4-1-.7-1.8-.7s-1.4.3-1.9.8c-.4.5-.7,1.2-.7,2h-1.6c0-1.3.4-2.3,1.2-3.1.8-.7,1.7-1.1,2.9-1.1s2.2.3,2.9,1c.7.7,1.1,1.6,1.1,2.8s-.3,1.9-.9,2.9c-.6.9-1.2,1.7-2,2.4-.7.7-1.7,1.5-2.9,2.5h6.1v1.3H1.4v-1.2c1.5-1.2,2.7-2.2,3.5-3Z"/>
          <path class="st2" d="M12.8,43.5c.7-1.1,1.8-1.7,3.5-1.7s2.8.6,3.5,1.7c.7,1.1,1,2.7,1,4.8s-.3,3.7-1,4.8c-.7,1.1-1.8,1.7-3.5,1.7s-2.8-.6-3.5-1.7c-.7-1.1-1-2.7-1-4.8s.3-3.6,1-4.8ZM18.9,45.7c-.1-.7-.4-1.3-.8-1.7-.4-.4-1-.7-1.8-.7s-1.4.2-1.8.7c-.4.4-.7,1-.8,1.7-.1.7-.2,1.6-.2,2.6s0,2,.2,2.7c.1.7.4,1.3.8,1.7.4.4,1,.7,1.8.7s1.4-.2,1.8-.7c.4-.4.7-1,.8-1.7.1-.7.2-1.6.2-2.7s0-1.9-.2-2.6Z"/>
          <path class="st2" d="M26.2,50.5c.8-.8,1.6-1.6,2.2-2.4.6-.8.9-1.7.9-2.5s-.2-1.4-.6-1.8c-.4-.4-1-.7-1.8-.7s-1.4.3-1.9.8c-.4.5-.7,1.2-.7,2h-1.6c0-1.3.4-2.3,1.2-3.1.8-.7,1.7-1.1,2.9-1.1s2.2.3,2.9,1c.7.7,1.1,1.6,1.1,2.8s-.3,1.9-.9,2.9c-.6.9-1.2,1.7-2,2.4-.7.7-1.7,1.5-2.9,2.5h6.1v1.3h-8.5v-1.2c1.5-1.2,2.7-2.2,3.5-3Z"/>
          <path class="st2" d="M41.2,43.4h-6.2v4c.3-.4.7-.7,1.2-.9.5-.2,1.1-.4,1.7-.4,1,0,1.8.2,2.4.6.6.4,1.1.9,1.3,1.6.3.6.4,1.3.4,2s-.2,1.6-.5,2.3c-.3.7-.8,1.2-1.5,1.6-.7.4-1.5.6-2.4.6s-2.2-.3-3-1c-.8-.6-1.2-1.5-1.4-2.5h1.6c.2.7.5,1.2,1,1.6.5.4,1.1.6,1.9.6s1.6-.3,2.1-.8c.5-.6.7-1.3.7-2.2s-.2-1.6-.7-2.1c-.5-.5-1.2-.8-2.1-.8s-1.2.2-1.6.5c-.5.3-.8.7-1,1.2h-1.5v-7.2h7.7v1.4Z"/>
        </g>
      </g>
    </g>
  </g>
</svg>