<svg width="266" height="76" viewBox="0 0 266 76" fill="none" xmlns="http://www.w3.org/2000/svg">
<path d="M11.1 12.24C10.78 11.6533 10.34 11.2067 9.78 10.9C9.22 10.5933 8.56667 10.44 7.82 10.44C6.99333 10.44 6.26 10.6267 5.62 11C4.98 11.3733 4.48 11.9067 4.12 12.6C3.76 13.2933 3.58 14.0933 3.58 15C3.58 15.9333 3.76 16.7467 4.12 17.44C4.49333 18.1333 5.00667 18.6667 5.66 19.04C6.31333 19.4133 7.07333 19.6 7.94 19.6C9.00667 19.6 9.88 19.32 10.56 18.76C11.24 18.1867 11.6867 17.3933 11.9 16.38H7.1V14.24H14.66V16.68C14.4733 17.6533 14.0733 18.5533 13.46 19.38C12.8467 20.2067 12.0533 20.8733 11.08 21.38C10.12 21.8733 9.04 22.12 7.84 22.12C6.49333 22.12 5.27333 21.82 4.18 21.22C3.1 20.6067 2.24667 19.76 1.62 18.68C1.00667 17.6 0.7 16.3733 0.7 15C0.7 13.6267 1.00667 12.4 1.62 11.32C2.24667 10.2267 3.1 9.38 4.18 8.78C5.27333 8.16667 6.48667 7.86 7.82 7.86C9.39333 7.86 10.76 8.24667 11.92 9.02C13.08 9.78 13.88 10.8533 14.32 12.24H11.1ZM16.0116 16.42C16.0116 15.3 16.2316 14.3067 16.6716 13.44C17.1249 12.5733 17.7316 11.9067 18.4916 11.44C19.2649 10.9733 20.1249 10.74 21.0716 10.74C21.8982 10.74 22.6182 10.9067 23.2316 11.24C23.8582 11.5733 24.3582 11.9933 24.7316 12.5V10.92H27.5516V22H24.7316V20.38C24.3716 20.9 23.8716 21.3333 23.2316 21.68C22.6049 22.0133 21.8782 22.18 21.0516 22.18C20.1182 22.18 19.2649 21.94 18.4916 21.46C17.7316 20.98 17.1249 20.3067 16.6716 19.44C16.2316 18.56 16.0116 17.5533 16.0116 16.42ZM24.7316 16.46C24.7316 15.78 24.5982 15.2 24.3316 14.72C24.0649 14.2267 23.7049 13.8533 23.2516 13.6C22.7982 13.3333 22.3116 13.2 21.7916 13.2C21.2716 13.2 20.7916 13.3267 20.3516 13.58C19.9116 13.8333 19.5516 14.2067 19.2716 14.7C19.0049 15.18 18.8716 15.7533 18.8716 16.42C18.8716 17.0867 19.0049 17.6733 19.2716 18.18C19.5516 18.6733 19.9116 19.0533 20.3516 19.32C20.8049 19.5867 21.2849 19.72 21.7916 19.72C22.3116 19.72 22.7982 19.5933 23.2516 19.34C23.7049 19.0733 24.0649 18.7 24.3316 18.22C24.5982 17.7267 24.7316 17.14 24.7316 16.46ZM44.0463 10.76C45.4063 10.76 46.4996 11.18 47.3263 12.02C48.1663 12.8467 48.5863 14.0067 48.5863 15.5V22H45.7863V15.88C45.7863 15.0133 45.5663 14.3533 45.1263 13.9C44.6863 13.4333 44.0863 13.2 43.3263 13.2C42.5663 13.2 41.9596 13.4333 41.5063 13.9C41.0663 14.3533 40.8463 15.0133 40.8463 15.88V22H38.0463V15.88C38.0463 15.0133 37.8263 14.3533 37.3863 13.9C36.9463 13.4333 36.3463 13.2 35.5863 13.2C34.8129 13.2 34.1996 13.4333 33.7463 13.9C33.3063 14.3533 33.0863 15.0133 33.0863 15.88V22H30.2863V10.92H33.0863V12.26C33.4463 11.7933 33.9063 11.4267 34.4663 11.16C35.0396 10.8933 35.6663 10.76 36.3463 10.76C37.2129 10.76 37.9863 10.9467 38.6663 11.32C39.3463 11.68 39.8729 12.2 40.2463 12.88C40.6063 12.24 41.1263 11.7267 41.8063 11.34C42.4996 10.9533 43.2463 10.76 44.0463 10.76ZM61.5433 16.22C61.5433 16.62 61.5166 16.98 61.4633 17.3H53.3633C53.4299 18.1 53.7099 18.7267 54.2033 19.18C54.6966 19.6333 55.3033 19.86 56.0233 19.86C57.0633 19.86 57.8033 19.4133 58.2433 18.52H61.2633C60.9433 19.5867 60.3299 20.4667 59.4233 21.16C58.5166 21.84 57.4033 22.18 56.0833 22.18C55.0166 22.18 54.0566 21.9467 53.2033 21.48C52.3633 21 51.7033 20.3267 51.2233 19.46C50.7566 18.5933 50.5233 17.5933 50.5233 16.46C50.5233 15.3133 50.7566 14.3067 51.2233 13.44C51.6899 12.5733 52.3433 11.9067 53.1833 11.44C54.0233 10.9733 54.9899 10.74 56.0833 10.74C57.1366 10.74 58.0766 10.9667 58.9033 11.42C59.7433 11.8733 60.3899 12.52 60.8433 13.36C61.3099 14.1867 61.5433 15.14 61.5433 16.22ZM58.6433 15.42C58.6299 14.7 58.3699 14.1267 57.8633 13.7C57.3566 13.26 56.7366 13.04 56.0033 13.04C55.3099 13.04 54.7233 13.2533 54.2433 13.68C53.7766 14.0933 53.4899 14.6733 53.3833 15.42H58.6433ZM67.6727 15C67.6727 13.6267 67.9793 12.4 68.5927 11.32C69.2193 10.2267 70.066 9.38 71.1327 8.78C72.2127 8.16667 73.4193 7.86 74.7527 7.86C76.3127 7.86 77.6793 8.26 78.8527 9.06C80.026 9.86 80.846 10.9667 81.3127 12.38H78.0927C77.7727 11.7133 77.3193 11.2133 76.7327 10.88C76.1593 10.5467 75.4927 10.38 74.7327 10.38C73.9193 10.38 73.1927 10.5733 72.5527 10.96C71.926 11.3333 71.4327 11.8667 71.0727 12.56C70.726 13.2533 70.5527 14.0667 70.5527 15C70.5527 15.92 70.726 16.7333 71.0727 17.44C71.4327 18.1333 71.926 18.6733 72.5527 19.06C73.1927 19.4333 73.9193 19.62 74.7327 19.62C75.4927 19.62 76.1593 19.4533 76.7327 19.12C77.3193 18.7733 77.7727 18.2667 78.0927 17.6H81.3127C80.846 19.0267 80.026 20.14 78.8527 20.94C77.6927 21.7267 76.326 22.12 74.7527 22.12C73.4193 22.12 72.2127 21.82 71.1327 21.22C70.066 20.6067 69.2193 19.76 68.5927 18.68C67.9793 17.6 67.6727 16.3733 67.6727 15ZM89.9442 10.76C90.7842 10.76 91.5309 10.9467 92.1842 11.32C92.8376 11.68 93.3442 12.22 93.7042 12.94C94.0776 13.6467 94.2642 14.5 94.2642 15.5V22H91.4642V15.88C91.4642 15 91.2442 14.3267 90.8042 13.86C90.3642 13.38 89.7642 13.14 89.0042 13.14C88.2309 13.14 87.6176 13.38 87.1642 13.86C86.7242 14.3267 86.5042 15 86.5042 15.88V22H83.7042V7.2H86.5042V12.3C86.8642 11.82 87.3442 11.4467 87.9442 11.18C88.5442 10.9 89.2109 10.76 89.9442 10.76ZM96.2069 16.42C96.2069 15.3 96.4269 14.3067 96.8669 13.44C97.3202 12.5733 97.9269 11.9067 98.6869 11.44C99.4602 10.9733 100.32 10.74 101.267 10.74C102.094 10.74 102.814 10.9067 103.427 11.24C104.054 11.5733 104.554 11.9933 104.927 12.5V10.92H107.747V22H104.927V20.38C104.567 20.9 104.067 21.3333 103.427 21.68C102.8 22.0133 102.074 22.18 101.247 22.18C100.314 22.18 99.4602 21.94 98.6869 21.46C97.9269 20.98 97.3202 20.3067 96.8669 19.44C96.4269 18.56 96.2069 17.5533 96.2069 16.42ZM104.927 16.46C104.927 15.78 104.794 15.2 104.527 14.72C104.26 14.2267 103.9 13.8533 103.447 13.6C102.994 13.3333 102.507 13.2 101.987 13.2C101.467 13.2 100.987 13.3267 100.547 13.58C100.107 13.8333 99.7469 14.2067 99.4669 14.7C99.2002 15.18 99.0669 15.7533 99.0669 16.42C99.0669 17.0867 99.2002 17.6733 99.4669 18.18C99.7469 18.6733 100.107 19.0533 100.547 19.32C101 19.5867 101.48 19.72 101.987 19.72C102.507 19.72 102.994 19.5933 103.447 19.34C103.9 19.0733 104.26 18.7 104.527 18.22C104.794 17.7267 104.927 17.14 104.927 16.46ZM116.622 10.76C117.942 10.76 119.008 11.18 119.822 12.02C120.635 12.8467 121.042 14.0067 121.042 15.5V22H118.242V15.88C118.242 15 118.022 14.3267 117.582 13.86C117.142 13.38 116.542 13.14 115.782 13.14C115.008 13.14 114.395 13.38 113.942 13.86C113.502 14.3267 113.282 15 113.282 15.88V22H110.482V10.92H113.282V12.3C113.655 11.82 114.128 11.4467 114.702 11.18C115.288 10.9 115.928 10.76 116.622 10.76ZM128.044 10.74C128.871 10.74 129.598 10.9067 130.224 11.24C130.851 11.56 131.344 11.98 131.704 12.5V10.92H134.524V22.08C134.524 23.1067 134.318 24.02 133.904 24.82C133.491 25.6333 132.871 26.2733 132.044 26.74C131.218 27.22 130.218 27.46 129.044 27.46C127.471 27.46 126.178 27.0933 125.164 26.36C124.164 25.6267 123.598 24.6267 123.464 23.36H126.244C126.391 23.8667 126.704 24.2667 127.184 24.56C127.678 24.8667 128.271 25.02 128.964 25.02C129.778 25.02 130.438 24.7733 130.944 24.28C131.451 23.8 131.704 23.0667 131.704 22.08V20.36C131.344 20.88 130.844 21.3133 130.204 21.66C129.578 22.0067 128.858 22.18 128.044 22.18C127.111 22.18 126.258 21.94 125.484 21.46C124.711 20.98 124.098 20.3067 123.644 19.44C123.204 18.56 122.984 17.5533 122.984 16.42C122.984 15.3 123.204 14.3067 123.644 13.44C124.098 12.5733 124.704 11.9067 125.464 11.44C126.238 10.9733 127.098 10.74 128.044 10.74ZM131.704 16.46C131.704 15.78 131.571 15.2 131.304 14.72C131.038 14.2267 130.678 13.8533 130.224 13.6C129.771 13.3333 129.284 13.2 128.764 13.2C128.244 13.2 127.764 13.3267 127.324 13.58C126.884 13.8333 126.524 14.2067 126.244 14.7C125.978 15.18 125.844 15.7533 125.844 16.42C125.844 17.0867 125.978 17.6733 126.244 18.18C126.524 18.6733 126.884 19.0533 127.324 19.32C127.778 19.5867 128.258 19.72 128.764 19.72C129.284 19.72 129.771 19.5933 130.224 19.34C130.678 19.0733 131.038 18.7 131.304 18.22C131.571 17.7267 131.704 17.14 131.704 16.46ZM147.559 16.22C147.559 16.62 147.532 16.98 147.479 17.3H139.379C139.446 18.1 139.726 18.7267 140.219 19.18C140.712 19.6333 141.319 19.86 142.039 19.86C143.079 19.86 143.819 19.4133 144.259 18.52H147.279C146.959 19.5867 146.346 20.4667 145.439 21.16C144.532 21.84 143.419 22.18 142.099 22.18C141.032 22.18 140.072 21.9467 139.219 21.48C138.379 21 137.719 20.3267 137.239 19.46C136.772 18.5933 136.539 17.5933 136.539 16.46C136.539 15.3133 136.772 14.3067 137.239 13.44C137.706 12.5733 138.359 11.9067 139.199 11.44C140.039 10.9733 141.006 10.74 142.099 10.74C143.152 10.74 144.092 10.9667 144.919 11.42C145.759 11.8733 146.406 12.52 146.859 13.36C147.326 14.1867 147.559 15.14 147.559 16.22ZM144.659 15.42C144.646 14.7 144.386 14.1267 143.879 13.7C143.372 13.26 142.752 13.04 142.019 13.04C141.326 13.04 140.739 13.2533 140.259 13.68C139.792 14.0933 139.506 14.6733 139.399 15.42H144.659ZM152.403 12.64C152.763 12.0533 153.229 11.5933 153.803 11.26C154.389 10.9267 155.056 10.76 155.803 10.76V13.7H155.063C154.183 13.7 153.516 13.9067 153.063 14.32C152.623 14.7333 152.403 15.4533 152.403 16.48V22H149.603V10.92H152.403V12.64Z" fill="white"/>
<rect width="209" height="42" transform="translate(0 34)" fill="#ECD430"/>
<path d="M10.656 46.248H14.016V60.336H19.536V63H10.656V46.248ZM34.5116 56.352C34.5116 60.528 31.4396 63.216 27.5756 63.216C23.7356 63.216 20.8316 60.528 20.8316 56.352C20.8316 52.152 23.8316 49.488 27.6716 49.488C31.5116 49.488 34.5116 52.152 34.5116 56.352ZM24.2396 56.352C24.2396 58.992 25.7756 60.288 27.5756 60.288C29.3516 60.288 31.0556 58.992 31.0556 56.352C31.0556 53.688 29.3996 52.416 27.6236 52.416C25.8476 52.416 24.2396 53.688 24.2396 56.352ZM42.6403 58.992L46.1203 49.704H49.6963L41.4643 69.288H37.8883L40.7683 62.664L35.4403 49.704H39.2083L42.6403 58.992ZM50.6436 56.304C50.6436 52.152 53.3316 49.488 56.7156 49.488C58.8516 49.488 60.3156 50.496 61.1076 51.6V49.704H64.4916V63H61.1076V61.056C60.3156 62.208 58.8036 63.216 56.6916 63.216C53.3316 63.216 50.6436 60.456 50.6436 56.304ZM61.1076 56.352C61.1076 53.832 59.4276 52.44 57.5796 52.44C55.7796 52.44 54.0756 53.784 54.0756 56.304C54.0756 58.824 55.7796 60.264 57.5796 60.264C59.4276 60.264 61.1076 58.872 61.1076 56.352ZM67.7732 63V45.24H71.1332V63H67.7732ZM74.9809 58.872V52.464H73.3969V49.704H74.9809V46.416H78.3649V49.704H81.3409V52.464H78.3649V58.896C78.3649 59.784 78.7249 60.168 79.7809 60.168H81.3409V63H79.2289C76.6849 63 74.9809 61.92 74.9809 58.872ZM89.4216 58.992L92.9016 49.704H96.4776L88.2456 69.288H84.6696L87.5496 62.664L82.2216 49.704H85.9896L89.4216 58.992ZM115.72 58.152C115.72 60.792 113.608 63.168 109.792 63.168C106.312 63.168 103.624 61.344 103.576 58.176H107.176C107.272 59.52 108.16 60.408 109.72 60.408C111.304 60.408 112.24 59.568 112.24 58.368C112.24 54.744 103.6 56.928 103.624 50.856C103.624 47.832 106.072 46.008 109.528 46.008C112.96 46.008 115.312 47.76 115.528 50.784H111.832C111.76 49.68 110.872 48.816 109.432 48.792C108.112 48.744 107.128 49.392 107.128 50.76C107.128 54.12 115.72 52.248 115.72 58.152ZM131.185 49.704V63H127.801V61.32C126.961 62.448 125.497 63.168 123.841 63.168C120.745 63.168 118.513 61.152 118.513 57.504V49.704H121.873V57.024C121.873 59.16 123.049 60.312 124.825 60.312C126.649 60.312 127.801 59.16 127.801 57.024V49.704H131.185ZM153.1 63V55.656C153.1 53.544 151.924 52.44 150.148 52.44C148.348 52.44 147.172 53.544 147.172 55.656V63H143.812V55.656C143.812 53.544 142.636 52.44 140.86 52.44C139.036 52.44 137.86 53.544 137.86 55.656V63H134.5V49.704H137.86V51.312C138.7 50.208 140.116 49.512 141.772 49.512C143.836 49.512 145.54 50.4 146.452 52.056C147.316 50.544 149.068 49.512 151.012 49.512C154.204 49.512 156.46 51.528 156.46 55.2V63H153.1ZM178.248 63V55.656C178.248 53.544 177.072 52.44 175.296 52.44C173.496 52.44 172.32 53.544 172.32 55.656V63H168.96V55.656C168.96 53.544 167.784 52.44 166.008 52.44C164.184 52.44 163.008 53.544 163.008 55.656V63H159.648V49.704H163.008V51.312C163.848 50.208 165.264 49.512 166.92 49.512C168.984 49.512 170.688 50.4 171.6 52.056C172.464 50.544 174.216 49.512 176.16 49.512C179.352 49.512 181.608 51.528 181.608 55.2V63H178.248ZM184.797 63V49.704H188.157V63H184.797ZM186.501 48.12C185.301 48.12 184.437 47.256 184.437 46.152C184.437 45.048 185.301 44.184 186.501 44.184C187.677 44.184 188.565 45.048 188.565 46.152C188.565 47.256 187.677 48.12 186.501 48.12ZM192.004 58.872V52.464H190.42V49.704H192.004V46.416H195.388V49.704H198.364V52.464H195.388V58.896C195.388 59.784 195.748 60.168 196.804 60.168H198.364V63H196.252C193.708 63 192.004 61.92 192.004 58.872Z" fill="#29388B"/>
<path d="M218.94 58.84C220.22 57.7733 221.24 56.8867 222 56.18C222.76 55.46 223.393 54.7133 223.9 53.94C224.407 53.1667 224.66 52.4067 224.66 51.66C224.66 50.98 224.5 50.4467 224.18 50.06C223.86 49.6733 223.367 49.48 222.7 49.48C222.033 49.48 221.52 49.7067 221.16 50.16C220.8 50.6 220.613 51.2067 220.6 51.98H217.88C217.933 50.38 218.407 49.1667 219.3 48.34C220.207 47.5133 221.353 47.1 222.74 47.1C224.26 47.1 225.427 47.5067 226.24 48.32C227.053 49.12 227.46 50.18 227.46 51.5C227.46 52.54 227.18 53.5333 226.62 54.48C226.06 55.4267 225.42 56.2533 224.7 56.96C223.98 57.6533 223.04 58.4933 221.88 59.48H227.78V61.8H217.9V59.72L218.94 58.84ZM229.544 54.52C229.544 52.2133 229.958 50.4067 230.784 49.1C231.624 47.7933 233.011 47.14 234.944 47.14C236.878 47.14 238.258 47.7933 239.084 49.1C239.924 50.4067 240.344 52.2133 240.344 54.52C240.344 56.84 239.924 58.66 239.084 59.98C238.258 61.3 236.878 61.96 234.944 61.96C233.011 61.96 231.624 61.3 230.784 59.98C229.958 58.66 229.544 56.84 229.544 54.52ZM237.584 54.52C237.584 53.5333 237.518 52.7067 237.384 52.04C237.264 51.36 237.011 50.8067 236.624 50.38C236.251 49.9533 235.691 49.74 234.944 49.74C234.198 49.74 233.631 49.9533 233.244 50.38C232.871 50.8067 232.618 51.36 232.484 52.04C232.364 52.7067 232.304 53.5333 232.304 54.52C232.304 55.5333 232.364 56.3867 232.484 57.08C232.604 57.76 232.858 58.3133 233.244 58.74C233.631 59.1533 234.198 59.36 234.944 59.36C235.691 59.36 236.258 59.1533 236.644 58.74C237.031 58.3133 237.284 57.76 237.404 57.08C237.524 56.3867 237.584 55.5333 237.584 54.52ZM243.354 58.84C244.634 57.7733 245.654 56.8867 246.414 56.18C247.174 55.46 247.807 54.7133 248.314 53.94C248.821 53.1667 249.074 52.4067 249.074 51.66C249.074 50.98 248.914 50.4467 248.594 50.06C248.274 49.6733 247.781 49.48 247.114 49.48C246.447 49.48 245.934 49.7067 245.574 50.16C245.214 50.6 245.027 51.2067 245.014 51.98H242.294C242.347 50.38 242.821 49.1667 243.714 48.34C244.621 47.5133 245.767 47.1 247.154 47.1C248.674 47.1 249.841 47.5067 250.654 48.32C251.467 49.12 251.874 50.18 251.874 51.5C251.874 52.54 251.594 53.5333 251.034 54.48C250.474 55.4267 249.834 56.2533 249.114 56.96C248.394 57.6533 247.454 58.4933 246.294 59.48H252.194V61.8H242.314V59.72L243.354 58.84ZM263.758 49.84H257.278V53.26C257.558 52.9133 257.958 52.6333 258.478 52.42C258.998 52.1933 259.552 52.08 260.138 52.08C261.205 52.08 262.078 52.3133 262.758 52.78C263.438 53.2467 263.932 53.8467 264.238 54.58C264.545 55.3 264.698 56.0733 264.698 56.9C264.698 58.4333 264.258 59.6667 263.378 60.6C262.512 61.5333 261.272 62 259.658 62C258.138 62 256.925 61.62 256.018 60.86C255.112 60.1 254.598 59.1067 254.478 57.88H257.198C257.318 58.4133 257.585 58.84 257.998 59.16C258.425 59.48 258.965 59.64 259.618 59.64C260.405 59.64 260.998 59.3933 261.398 58.9C261.798 58.4067 261.998 57.7533 261.998 56.94C261.998 56.1133 261.792 55.4867 261.378 55.06C260.978 54.62 260.385 54.4 259.598 54.4C259.038 54.4 258.572 54.54 258.198 54.82C257.825 55.1 257.558 55.4733 257.398 55.94H254.718V47.38H263.758V49.84Z" fill="white"/>
</svg>
