<?xml version="1.0" encoding="UTF-8"?>
<svg id="Layer_2" xmlns="http://www.w3.org/2000/svg" version="1.1" viewBox="0 0 205 145">
  <!-- Generator: Adobe Illustrator 29.3.0, SVG Export Plug-In . SVG Version: 2.1.0 Build 146)  -->
  <defs>
    <style>
      .st0 {
        isolation: isolate;
      }

      .st1 {
        fill: #103294;
      }

      .st2 {
        fill: #fff;
      }

      .st3 {
        fill: #ffc700;
      }
    </style>
  </defs>
  <g id="Layer_1-2">
    <g>
      <g class="st0">
        <g class="st0">
          <path class="st2" d="M13.1,28.7h10.2v6H5.3V2.9h7.8v25.9Z"/>
          <path class="st2" d="M33.8,33c-2.5-1.4-4.5-3.3-5.9-5.8-1.5-2.5-2.2-5.3-2.2-8.4s.7-5.9,2.2-8.4c1.5-2.5,3.5-4.4,5.9-5.8,2.5-1.4,5.2-2.1,8.2-2.1s5.7.7,8.2,2.1c2.5,1.4,4.5,3.3,5.9,5.8,1.4,2.5,2.2,5.3,2.2,8.4s-.7,5.9-2.2,8.4c-1.5,2.5-3.4,4.4-5.9,5.8-2.5,1.4-5.2,2.1-8.2,2.1s-5.7-.7-8.2-2.1ZM48.1,25.4c1.5-1.7,2.3-3.9,2.3-6.7s-.8-5.1-2.3-6.7c-1.5-1.7-3.6-2.5-6.1-2.5s-4.6.8-6.2,2.5c-1.5,1.7-2.3,3.9-2.3,6.8s.8,5.1,2.3,6.7c1.5,1.7,3.6,2.5,6.2,2.5s4.6-.8,6.1-2.5Z"/>
          <path class="st2" d="M90,2.9l-11,21.3v10.5h-7.8v-10.5L60.2,2.9h8.8l6.2,13.3,6.1-13.3h8.7Z"/>
          <path class="st2" d="M112.9,29.1h-11.9l-1.9,5.6h-8.1l11.5-31.9h9l11.5,31.9h-8.2l-1.9-5.6ZM111,23.1l-3.9-11.7-3.9,11.7h7.9Z"/>
          <path class="st2" d="M134.3,28.7h10.2v6h-17.9V2.9h7.8v25.9Z"/>
          <path class="st2" d="M171.1,2.9v6.2h-8.4v25.6h-7.8V9.1h-8.4V2.9h24.7Z"/>
          <path class="st2" d="M202.4,2.9l-11,21.3v10.5h-7.8v-10.5l-11-21.3h8.8l6.2,13.3,6.1-13.3h8.7Z"/>
        </g>
      </g>
      <g>
        <rect class="st3" x="2.5" y="51.8" width="200" height="42.8"/>
        <g class="st0">
          <g class="st0">
            <path class="st1" d="M18.8,88c-1.8-.8-3.3-1.9-4.4-3.4-1.1-1.5-1.7-3.3-1.7-5.4h8.3c.1,1.2.5,2.1,1.2,2.7.7.6,1.6.9,2.7.9s2.1-.3,2.7-.8c.7-.5,1-1.3,1-2.2s-.3-1.4-.8-2c-.5-.5-1.2-.9-2-1.3-.8-.3-1.9-.7-3.3-1.1-2.1-.6-3.7-1.3-5-1.9-1.3-.6-2.4-1.6-3.4-2.8-.9-1.2-1.4-2.9-1.4-4.9,0-3,1.1-5.3,3.2-7,2.1-1.7,4.9-2.5,8.4-2.5s6.3.8,8.5,2.5c2.1,1.7,3.3,4,3.5,7h-8.4c0-1-.4-1.8-1.1-2.4-.7-.6-1.6-.9-2.7-.9s-1.7.2-2.3.7c-.6.5-.9,1.2-.9,2.2s.5,1.8,1.5,2.4c1,.6,2.5,1.2,4.5,1.9,2.1.7,3.7,1.4,5,2,1.3.6,2.4,1.6,3.3,2.8.9,1.2,1.4,2.8,1.4,4.7s-.5,3.5-1.4,4.9c-.9,1.5-2.3,2.7-4,3.5-1.8.9-3.8,1.3-6.2,1.3s-4.4-.4-6.3-1.1Z"/>
            <path class="st1" d="M49.1,57v19.1c0,1.9.5,3.4,1.4,4.4.9,1,2.3,1.5,4.1,1.5s3.2-.5,4.2-1.5c1-1,1.5-2.5,1.5-4.4v-19.1h7.8v19c0,2.8-.6,5.3-1.8,7.2-1.2,2-2.8,3.5-4.9,4.4-2,1-4.3,1.5-6.8,1.5s-4.8-.5-6.7-1.5c-2-1-3.5-2.5-4.7-4.4-1.2-2-1.7-4.4-1.7-7.2v-19h7.8Z"/>
            <path class="st1" d="M109.6,57v31.9h-7.8v-19.1l-7.1,19.1h-6.3l-7.2-19.2v19.2h-7.8v-31.9h9.2l8.9,22.1,8.9-22.1h9.1Z"/>
            <path class="st1" d="M151.3,57v31.9h-7.8v-19.1l-7.1,19.1h-6.3l-7.2-19.2v19.2h-7.8v-31.9h9.2l8.9,22.1,8.9-22.1h9.1Z"/>
            <path class="st1" d="M164.6,57v31.9h-7.8v-31.9h7.8Z"/>
            <path class="st1" d="M193.2,57v6.2h-8.4v25.6h-7.8v-25.6h-8.4v-6.2h24.7Z"/>
          </g>
        </g>
      </g>
      <g class="st0">
        <g class="st0">
          <path class="st2" d="M13.8,131.6c2.2-2,4-4.1,5.5-6.2,1.5-2.2,2.2-4.3,2.2-6.4s-.5-3.5-1.4-4.7c-1-1.1-2.5-1.7-4.6-1.7s-3.7.6-4.8,1.9c-1.1,1.3-1.7,3-1.8,5.2h-4c.1-3.4,1.1-6,3.1-7.9,1.9-1.8,4.4-2.8,7.5-2.8s5.6.9,7.4,2.6c1.8,1.7,2.7,4.1,2.7,7.1s-.7,5-2.2,7.3c-1.5,2.4-3.2,4.5-5.1,6.3-1.9,1.8-4.3,3.9-7.3,6.3h15.6v3.5H4.8v-3c3.8-3.1,6.9-5.6,9-7.6Z"/>
          <path class="st2" d="M34,113.6c1.7-2.9,4.7-4.4,8.9-4.4s7.2,1.5,8.9,4.4c1.7,2.9,2.5,7,2.5,12.2s-.8,9.4-2.5,12.3c-1.7,2.9-4.6,4.4-8.9,4.4s-7.2-1.5-8.9-4.4c-1.7-2.9-2.5-7.1-2.5-12.3s.8-9.3,2.5-12.2ZM49.6,119.1c-.3-1.8-1.1-3.3-2.1-4.4-1.1-1.1-2.6-1.7-4.7-1.7s-3.6.6-4.7,1.7c-1.1,1.1-1.8,2.6-2.1,4.4-.3,1.8-.5,4.1-.5,6.7s.2,5,.5,6.9c.3,1.8,1.1,3.3,2.1,4.4,1.1,1.1,2.6,1.7,4.7,1.7s3.6-.6,4.7-1.7c1.1-1.1,1.8-2.6,2.1-4.4.3-1.8.5-4.1.5-6.9s-.2-4.9-.5-6.7Z"/>
          <path class="st2" d="M68.5,131.6c2.2-2,4-4.1,5.5-6.2,1.5-2.2,2.2-4.3,2.2-6.4s-.5-3.5-1.4-4.7c-1-1.1-2.5-1.7-4.6-1.7s-3.7.6-4.8,1.9c-1.1,1.3-1.7,3-1.8,5.2h-4c.1-3.4,1.1-6,3.1-7.9,1.9-1.8,4.4-2.8,7.5-2.8s5.6.9,7.4,2.6c1.8,1.7,2.7,4.1,2.7,7.1s-.7,5-2.2,7.3c-1.5,2.4-3.2,4.5-5.1,6.3-1.9,1.8-4.3,3.9-7.3,6.3h15.6v3.5h-21.8v-3c3.8-3.1,6.9-5.6,9-7.6Z"/>
          <path class="st2" d="M107,113.3h-15.9v10.4c.7-1,1.7-1.8,3.1-2.4,1.4-.6,2.8-.9,4.4-.9,2.5,0,4.6.5,6.1,1.6,1.6,1,2.7,2.4,3.4,4,.7,1.6,1,3.4,1,5.2s-.4,4.1-1.2,5.9c-.8,1.7-2.1,3.1-3.7,4.1-1.7,1-3.8,1.5-6.2,1.5s-5.8-.8-7.7-2.5c-2-1.6-3.2-3.8-3.6-6.5h4c.4,1.7,1.2,3.1,2.5,4,1.3,1,2.9,1.5,4.8,1.5s4.2-.7,5.4-2.2c1.2-1.4,1.8-3.3,1.8-5.7s-.6-4.2-1.8-5.5c-1.2-1.3-3-1.9-5.4-1.9s-3,.4-4.2,1.2c-1.2.8-2.1,1.8-2.6,3.2h-3.9v-18.5h19.7v3.6Z"/>
        </g>
      </g>
    </g>
  </g>
</svg>