<?xml version="1.0" encoding="UTF-8"?>
<svg id="Layer_2" data-name="Layer 2" xmlns="http://www.w3.org/2000/svg" viewBox="0 0 322.91 25.62">
  <defs>
    <style>
      .cls-1 {
        fill: #103294;
      }

      .cls-2 {
        fill: #fff;
      }

      .cls-3 {
        fill: #ffc700;
      }
    </style>
  </defs>
  <g id="Layer_1-2" data-name="Layer 1">
    <g>
      <g>
        <path class="cls-2" d="M4.72,19.02h6.18v3.59H0V3.51h4.72v15.5Z"/>
        <path class="cls-2" d="M17.31,21.55c-1.52-.83-2.72-2-3.61-3.5s-1.34-3.18-1.34-5.05.45-3.54,1.34-5.03,2.1-2.65,3.61-3.48c1.52-.83,3.19-1.25,5.01-1.25s3.49.42,5.01,1.25c1.52.83,2.71,2,3.59,3.48s1.31,3.16,1.31,5.03-.44,3.55-1.32,5.05-2.08,2.66-3.59,3.5c-1.51.83-3.17,1.25-4.99,1.25s-3.49-.42-5.01-1.25ZM26.03,17.03c.93-1.02,1.39-2.36,1.39-4.03s-.46-3.03-1.39-4.04c-.93-1.01-2.17-1.51-3.71-1.51s-2.81.5-3.74,1.5c-.93,1-1.39,2.35-1.39,4.05s.46,3.03,1.39,4.04,2.17,1.51,3.74,1.51,2.78-.51,3.71-1.52Z"/>
        <path class="cls-2" d="M51.45,3.51l-6.7,12.78v6.31h-4.72v-6.31l-6.7-12.78h5.35l3.75,8,3.72-8h5.3Z"/>
        <path class="cls-2" d="M65.4,19.24h-7.23l-1.16,3.37h-4.94l7.01-19.09h5.46l7.01,19.09h-4.99l-1.16-3.37ZM64.19,15.65l-2.4-6.99-2.37,6.99h4.77Z"/>
        <path class="cls-2" d="M78.4,19.02h6.18v3.59h-10.9V3.51h4.72v15.5Z"/>
        <path class="cls-2" d="M100.77,3.51v3.73h-5.13v15.37h-4.72V7.24h-5.13v-3.73h14.98Z"/>
        <path class="cls-2" d="M119.75,3.51l-6.7,12.78v6.31h-4.72v-6.31l-6.7-12.78h5.35l3.75,8,3.72-8h5.3Z"/>
      </g>
      <g>
        <rect class="cls-3" x="126.8" width="121.52" height="25.62"/>
        <g>
          <path class="cls-1" d="M136.72,21.69c-1.12-.45-2.02-1.12-2.69-2.01-.67-.89-1.03-1.96-1.06-3.21h5.02c.07.71.32,1.25.75,1.62.42.37.97.56,1.66.56s1.25-.16,1.66-.48c.4-.32.61-.76.61-1.32,0-.47-.16-.86-.48-1.17-.32-.31-.72-.56-1.19-.76-.47-.2-1.14-.43-2-.68-1.25-.38-2.27-.76-3.06-1.14-.79-.38-1.47-.94-2.04-1.69-.57-.74-.86-1.71-.86-2.91,0-1.78.65-3.17,1.96-4.18,1.31-1.01,3.01-1.51,5.1-1.51s3.85.5,5.16,1.51c1.31,1.01,2,2.41,2.1,4.2h-5.1c-.04-.62-.27-1.1-.69-1.46s-.96-.53-1.63-.53c-.57,0-1.03.15-1.38.45-.35.3-.52.73-.52,1.29,0,.62.29,1.1.88,1.44.59.34,1.51.72,2.76,1.12,1.25.42,2.27.82,3.05,1.2.78.38,1.46.93,2.03,1.66.57.73.85,1.66.85,2.8s-.28,2.08-.84,2.96c-.56.89-1.38,1.6-2.44,2.12-1.07.53-2.33.79-3.78.79s-2.69-.23-3.81-.68Z"/>
          <path class="cls-1" d="M155.12,3.09v11.42c0,1.14.29,2.02.85,2.64.57.62,1.41.92,2.51.92s1.95-.31,2.54-.92c.59-.62.88-1.5.88-2.64V3.09h4.72v11.4c0,1.7-.37,3.15-1.1,4.32-.74,1.18-1.72,2.07-2.97,2.67-1.24.6-2.62.9-4.15.9s-2.89-.29-4.1-.88c-1.21-.59-2.16-1.48-2.86-2.67-.7-1.19-1.05-2.63-1.05-4.34V3.09h4.72Z"/>
          <path class="cls-1" d="M191.86,3.09v19.09h-4.72v-11.45l-4.33,11.45h-3.81l-4.36-11.48v11.48h-4.72V3.09h5.57l5.43,13.22,5.38-13.22h5.54Z"/>
          <path class="cls-1" d="M217.18,3.09v19.09h-4.72v-11.45l-4.33,11.45h-3.81l-4.36-11.48v11.48h-4.72V3.09h5.57l5.43,13.22,5.38-13.22h5.54Z"/>
          <path class="cls-1" d="M225.29,3.09v19.09h-4.72V3.09h4.72Z"/>
          <path class="cls-1" d="M242.64,3.09v3.73h-5.13v15.37h-4.72V6.82h-5.13v-3.73h14.98Z"/>
        </g>
      </g>
      <g>
        <path class="cls-2" d="M265.06,15.83c1.32-1.19,2.44-2.43,3.35-3.73s1.37-2.57,1.37-3.82c0-1.18-.29-2.11-.87-2.79-.58-.68-1.51-1.02-2.8-1.02s-2.22.39-2.91,1.16c-.69.77-1.06,1.8-1.12,3.09h-2.43c.07-2.03.7-3.6,1.88-4.71,1.18-1.11,2.69-1.66,4.55-1.66s3.4.52,4.51,1.55,1.67,2.46,1.67,4.27c0,1.51-.46,2.97-1.37,4.39-.91,1.42-1.94,2.67-3.1,3.75-1.16,1.08-2.64,2.33-4.44,3.77h9.49v2.07h-13.27v-1.77c2.33-1.85,4.17-3.37,5.49-4.56Z"/>
        <path class="cls-2" d="M277.28,5.03c1.03-1.75,2.83-2.62,5.41-2.62s4.35.88,5.38,2.62c1.03,1.75,1.54,4.18,1.54,7.3s-.52,5.64-1.54,7.4c-1.03,1.76-2.82,2.64-5.38,2.64s-4.38-.88-5.41-2.64c-1.03-1.76-1.54-4.22-1.54-7.4s.51-5.55,1.54-7.3ZM286.81,8.33c-.21-1.1-.64-1.98-1.3-2.65-.65-.67-1.6-1.01-2.83-1.01s-2.2.34-2.86,1.01c-.65.67-1.08,1.56-1.3,2.65-.21,1.1-.32,2.43-.32,4.01s.11,3,.32,4.11c.21,1.11.64,2,1.3,2.67.65.67,1.6,1.01,2.86,1.01s2.17-.33,2.83-1.01c.65-.67,1.08-1.56,1.3-2.67.21-1.11.32-2.48.32-4.11s-.11-2.91-.32-4.01Z"/>
        <path class="cls-2" d="M298.24,15.83c1.32-1.19,2.44-2.43,3.35-3.73s1.37-2.57,1.37-3.82c0-1.18-.29-2.11-.87-2.79-.58-.68-1.51-1.02-2.8-1.02s-2.22.39-2.91,1.16c-.69.77-1.06,1.8-1.12,3.09h-2.43c.07-2.03.7-3.6,1.88-4.71,1.18-1.11,2.69-1.66,4.55-1.66s3.4.52,4.51,1.55,1.67,2.46,1.67,4.27c0,1.51-.46,2.97-1.37,4.39-.91,1.42-1.94,2.67-3.1,3.75-1.16,1.08-2.64,2.33-4.44,3.77h9.49v2.07h-13.27v-1.77c2.33-1.85,4.17-3.37,5.49-4.56Z"/>
        <path class="cls-2" d="M321.64,4.86h-9.68v6.2c.42-.58,1.05-1.06,1.88-1.43.83-.37,1.72-.56,2.68-.56,1.53,0,2.77.31,3.72.94.96.63,1.64,1.43,2.05,2.42.41.99.62,2.04.62,3.14,0,1.31-.25,2.48-.75,3.51-.5,1.03-1.25,1.85-2.28,2.45-1.02.6-2.29.9-3.79.9-1.93,0-3.5-.49-4.69-1.47-1.2-.98-1.92-2.28-2.18-3.92h2.46c.24,1.03.75,1.84,1.52,2.42.77.58,1.75.87,2.92.87,1.45,0,2.55-.43,3.28-1.29s1.1-2,1.1-3.41-.37-2.51-1.1-3.28c-.74-.77-1.82-1.16-3.25-1.16-.97,0-1.83.23-2.55.69s-1.25,1.09-1.59,1.89h-2.37V2.68h12v2.18Z"/>
      </g>
    </g>
  </g>
</svg>