<svg width="42" height="42" viewBox="0 0 42 42" fill="none" xmlns="http://www.w3.org/2000/svg">
<path d="M21.2098 22.3648C21.0873 22.3473 20.9298 22.3473 20.7898 22.3648C17.7098 22.2598 15.2598 19.7398 15.2598 16.6423C15.2598 13.4748 17.8148 10.9023 20.9998 10.9023C24.1673 10.9023 26.7398 13.4748 26.7398 16.6423C26.7223 19.7398 24.2898 22.2598 21.2098 22.3648Z" stroke="#29388B" stroke-width="2" stroke-linecap="round" stroke-linejoin="round"/>
<path d="M32.7951 33.9155C29.6801 36.768 25.5501 38.5005 21.0001 38.5005C16.4501 38.5005 12.3201 36.768 9.20508 33.9155C9.38008 32.2705 10.4301 30.6605 12.3026 29.4005C17.0976 26.2155 24.9376 26.2155 29.6976 29.4005C31.5701 30.6605 32.6201 32.2705 32.7951 33.9155Z" stroke="#29388B" stroke-width="2" stroke-linecap="round" stroke-linejoin="round"/>
<path d="M21 38.5C30.665 38.5 38.5 30.665 38.5 21C38.5 11.335 30.665 3.5 21 3.5C11.335 3.5 3.5 11.335 3.5 21C3.5 30.665 11.335 38.5 21 38.5Z" stroke="#29388B" stroke-width="2" stroke-linecap="round" stroke-linejoin="round"/>
</svg>
