<svg width="240" height="140" viewBox="0 0 240 140" fill="none" xmlns="http://www.w3.org/2000/svg">
<g filter="url(#filter0_d_174_925)">
<mask id="path-1-inside-1_174_925" fill="white">
<path d="M16 28C16 21.3726 21.3726 16 28 16H204C210.627 16 216 21.3726 216 28V104C216 110.627 210.627 116 204 116H28C21.3726 116 16 110.627 16 104V28Z"/>
</mask>
<path d="M16 28C16 21.3726 21.3726 16 28 16H204C210.627 16 216 21.3726 216 28V104C216 110.627 210.627 116 204 116H28C21.3726 116 16 110.627 16 104V28Z" fill="white" shape-rendering="crispEdges"/>
<path d="M16 28C16 16.9543 24.9543 8 36 8H196C207.046 8 216 16.9543 216 28C216 25.7909 210.627 24 204 24H28C21.3726 24 16 25.7909 16 28ZM216 116H16H216ZM16 116V16V116ZM216 16V116V16Z" fill="url(#paint0_linear_174_925)" mask="url(#path-1-inside-1_174_925)"/>
<g clip-path="url(#clip0_174_925)">
<path d="M97.4353 52.6875L91.6046 78.7259H86.8356L81.0049 52.6875H85.2452L89.3242 72.7069H89.3713L93.4503 52.6875H97.4375H97.4353Z" fill="#2B2D6C"/>
<path d="M109.395 74.7719V78.424C108.819 78.8284 107.851 79.0684 107.045 79.0684C105.846 79.0684 104.901 77.9507 104.67 76.261L104.623 76.0572C103.77 77.8849 102.065 79.0684 100.314 79.0684C98.0087 79.0684 96.4653 77.1059 96.4653 74.1999C96.4653 69.4663 99.4154 68.9929 104.485 67.3361V66.3894C104.485 64.9364 103.748 63.9897 102.641 63.9897C101.42 63.9897 100.614 65.0712 100.589 66.728L97.0858 66.3894C97.1552 62.9049 99.4132 60.5742 102.778 60.5742C106.142 60.5742 108.147 63.0101 108.147 66.728V73.6937C108.147 74.4037 108.4 74.91 108.814 74.91C108.953 74.91 109.184 74.8409 109.39 74.7752L109.395 74.7719ZM104.487 71.7608V70.2059C101.998 71.0507 100.063 71.5241 100.063 73.5556C100.063 74.67 100.708 75.4162 101.676 75.4162C103.405 75.4162 104.487 73.8252 104.487 71.7641V71.7608Z" fill="#2B2D6C"/>
<path d="M111.215 73.8903V52.6875H115.041V73.5879C115.041 74.3308 115.411 74.8042 115.939 74.8042C116.215 74.8042 116.562 74.7023 116.815 74.5675V78.3873C116.193 78.7916 115.225 79.0645 114.396 79.0645C112.483 79.0645 111.215 76.9672 111.215 73.8903Z" fill="#2B2D6C"/>
<path d="M130.296 60.9053V78.7255H126.47V75.8853H126.423C125.708 77.7788 124.118 79.0641 122.366 79.0641C120.061 79.0641 118.518 76.4606 118.518 72.5718V60.9053H122.344V71.4574C122.344 73.3837 123.127 74.669 124.279 74.669C125.591 74.669 126.467 73.1142 126.467 70.8492V60.9053H130.293H130.296Z" fill="#2B2D6C"/>
<path d="M145.273 70.7119H136.148C136.309 73.3844 137.254 75.1431 138.889 75.1431C140.202 75.1431 141.286 73.9926 141.586 72.3029L145.182 72.911C144.651 76.5961 142.14 79.0648 138.892 79.0648C135.021 79.0648 132.44 75.3436 132.44 69.798C132.44 64.2524 135.021 60.5674 138.892 60.5674C142.762 60.5674 145.276 64.3543 145.276 70.0709V70.7119H145.273ZM136.239 68.1084H141.47C141.17 65.7744 140.227 64.3214 138.889 64.3214C137.552 64.3214 136.54 65.7744 136.239 68.1084Z" fill="#2B2D6C"/>
<path d="M151.517 57.2206V63.5092H158.591V67.9733H151.517V78.7259H147.53V52.6875H159.859V57.2173H151.517V57.2206Z" fill="#2B2D6C"/>
<path d="M161.795 60.9053H165.621V78.7255H161.795V60.9053Z" fill="#2B2D6C"/>
<path d="M177.902 61.2113L177.048 66.2507C176.542 65.7773 175.85 65.4716 175.274 65.4716C173.478 65.4716 172.28 67.6018 172.28 70.7805V78.7291H168.454V60.9089H172.28V64.561H172.327C172.88 62.1613 174.331 60.5703 175.967 60.5703C176.565 60.5703 177.349 60.807 177.902 61.2113Z" fill="#2B2D6C"/>
<path d="M178.316 73.4173L181.865 72.9768C181.934 74.5645 182.832 75.6493 184.1 75.6493C185.368 75.6493 186.219 74.8374 186.219 73.654C186.219 72.132 184.906 71.7934 183.408 71.4548C181.264 70.9814 178.639 70.1366 178.639 66.1459C178.639 62.7994 180.827 60.5674 184.1 60.5674C187.373 60.5674 189.422 62.7666 189.561 66.0801L186.035 66.4516C185.944 64.9296 185.182 63.95 184.1 63.95C183.018 63.95 182.304 64.6272 182.304 65.6396C182.304 66.9249 183.547 67.2964 185.001 67.635C187.167 68.1412 189.886 69.0222 189.886 73.0458C189.886 76.6651 187.581 79.0648 184.102 79.0648C180.807 79.0648 178.48 76.8328 178.319 73.4173H178.316Z" fill="#2B2D6C"/>
<path d="M196.497 64.827V72.7394C196.497 74.0247 197.234 74.9024 198.34 74.9024C198.893 74.9024 199.561 74.6986 200 74.36V78.216C199.216 78.7222 198.087 79.0608 197.142 79.0608C194.469 79.0608 192.671 76.7269 192.671 73.2785V64.8237H190.85V61.2406H191.103C192.832 61.2406 193.544 59.6528 193.936 55.7969H196.494V60.902H199.998V64.8237H196.494L196.497 64.827Z" fill="#2B2D6C"/>
<path d="M165.961 55.5808C165.961 57.448 164.928 58.9634 163.656 58.9634C162.384 58.9634 161.351 57.448 161.351 55.5808C161.351 53.7137 162.384 52.1982 163.656 52.1982C164.928 52.1982 165.961 53.7137 165.961 55.5808Z" fill="#EB5C0B"/>
<path fill-rule="evenodd" clip-rule="evenodd" d="M57.116 67.9543L56.6725 64.2693L55.5301 54.7625L55.0888 51.0939V51.0808C54.5893 46.9355 52.1096 44 49.3342 44C49.0005 44 48.6622 44.0427 48.324 44.1315L36.8261 47.1065C33.6632 47.925 31.5329 52.3891 32.0907 57.0307L34.1179 73.9042C34.6757 78.5458 37.7198 81.672 40.8805 80.8535L46.0123 79.5254C46.0123 79.5254 46.0011 79.5616 46.0033 79.5813L46.5521 84.3511C46.5611 84.4267 46.6261 84.4465 46.6552 84.3873L49.4462 78.6444V78.6412L52.3784 77.8818C55.5413 77.0633 57.6715 72.5959 57.1137 67.9576L57.116 67.9543ZM52.0917 75.469L40.5937 78.4439C40.3518 78.5064 40.1099 78.536 39.8725 78.536C37.8901 78.536 36.1182 76.4387 35.7643 73.4802C34.0462 59.1773 35.4552 70.9095 33.7371 56.6034C33.3384 53.2898 34.8616 50.0979 37.1195 49.5127L48.6197 46.5378C50.8776 45.9526 53.0526 48.188 53.4513 51.5015V51.5147L55.4763 68.3586V68.375C55.8773 71.6886 54.3541 74.8805 52.0961 75.4657L52.0917 75.469Z" fill="#2B2D6C"/>
<path fill-rule="evenodd" clip-rule="evenodd" d="M52.4416 60.5413C52.3431 59.726 51.8144 59.1804 51.2589 59.325C50.7034 59.4696 50.3315 60.2454 50.4301 61.0607C50.9789 65.6365 48.8912 70.0119 45.7731 70.8205C42.655 71.6259 39.6736 68.5622 39.1226 63.9863C39.024 63.1711 38.4954 62.6254 37.9398 62.77C37.3843 62.9147 37.0125 63.6905 37.111 64.5057C37.111 64.5057 37.1155 64.532 37.1155 64.5452C37.8749 70.7384 41.9024 74.8672 46.1293 73.7725C50.3629 72.6779 53.1898 66.7509 52.4439 60.538L52.4416 60.5413Z" fill="#2B2D6C"/>
<path d="M72.8728 50.486L61.3234 47.968C59.332 47.5341 57.4168 48.6485 56.149 50.6866L56.6216 54.0757C57.3429 51.5643 59.1618 49.9732 61.0792 50.3907L72.6287 52.9088C74.8978 53.4018 76.477 56.5313 76.141 59.8613C74.685 74.2267 75.8789 62.4451 74.4251 76.8104C74.0891 80.1404 71.9567 82.458 69.6876 81.9649L58.1381 79.4468C57.1951 79.2397 56.3685 78.579 55.7525 77.6355C55.3224 78.1582 54.8498 78.6151 54.3413 78.9899C55.2239 80.4922 56.4603 81.554 57.8939 81.8662L60.9448 82.5303L63.5029 87.951C63.541 88.0331 63.6284 88.0069 63.6396 87.9082L64.2309 83.3291L64.2578 83.3357L64.2668 83.2568L69.4434 84.3876C72.6197 85.0812 75.6034 81.8334 76.076 77.172L77.7919 60.2229C78.0629 55.3479 75.6213 50.7227 72.8751 50.4893L72.8728 50.486Z" fill="#EB5C0B"/>
<path d="M60.0155 65.348C60.0939 64.5295 59.7042 63.7702 59.1464 63.6551C59.0971 63.6452 59.0501 63.6387 59.0031 63.6387C58.5013 63.6387 58.0645 64.1778 57.9928 64.9273C57.3903 71.1731 60.3538 76.9554 64.612 77.8364C68.8591 78.7173 72.7903 74.388 73.4063 68.1619C73.4063 68.1488 73.4085 68.1356 73.4107 68.1225C73.4891 67.304 73.0994 66.5446 72.5416 66.4263C71.9839 66.3112 71.4664 66.8799 71.3858 67.7017C70.9423 72.3006 68.0325 75.5155 64.8987 74.8647C61.765 74.2138 59.5743 69.9436 60.0178 65.3448L60.0155 65.348Z" fill="#EB5C0B"/>
</g>
</g>
<defs>
<filter id="filter0_d_174_925" x="0" y="0" width="240" height="140" filterUnits="userSpaceOnUse" color-interpolation-filters="sRGB">
<feFlood flood-opacity="0" result="BackgroundImageFix"/>
<feColorMatrix in="SourceAlpha" type="matrix" values="0 0 0 0 0 0 0 0 0 0 0 0 0 0 0 0 0 0 127 0" result="hardAlpha"/>
<feOffset dx="4" dy="4"/>
<feGaussianBlur stdDeviation="10"/>
<feComposite in2="hardAlpha" operator="out"/>
<feColorMatrix type="matrix" values="0 0 0 0 0 0 0 0 0 0 0 0 0 0 0 0 0 0 0.1 0"/>
<feBlend mode="normal" in2="BackgroundImageFix" result="effect1_dropShadow_174_925"/>
<feBlend mode="normal" in="SourceGraphic" in2="effect1_dropShadow_174_925" result="shape"/>
</filter>
<linearGradient id="paint0_linear_174_925" x1="16" y1="66" x2="216" y2="66" gradientUnits="userSpaceOnUse">
<stop stop-color="#999999"/>
<stop offset="1" stop-color="white"/>
</linearGradient>
<clipPath id="clip0_174_925">
<rect width="168" height="44" fill="white" transform="translate(32 44)"/>
</clipPath>
</defs>
</svg>
