<svg width="250" height="72" viewBox="0 0 250 72" fill="none" xmlns="http://www.w3.org/2000/svg">
<path d="M11.1 12.24C10.78 11.6533 10.34 11.2067 9.78 10.9C9.22 10.5933 8.56667 10.44 7.82 10.44C6.99333 10.44 6.26 10.6267 5.62 11C4.98 11.3733 4.48 11.9067 4.12 12.6C3.76 13.2933 3.58 14.0933 3.58 15C3.58 15.9333 3.76 16.7467 4.12 17.44C4.49333 18.1333 5.00667 18.6667 5.66 19.04C6.31333 19.4133 7.07333 19.6 7.94 19.6C9.00667 19.6 9.88 19.32 10.56 18.76C11.24 18.1867 11.6867 17.3933 11.9 16.38H7.1V14.24H14.66V16.68C14.4733 17.6533 14.0733 18.5533 13.46 19.38C12.8467 20.2067 12.0533 20.8733 11.08 21.38C10.12 21.8733 9.04 22.12 7.84 22.12C6.49333 22.12 5.27333 21.82 4.18 21.22C3.1 20.6067 2.24667 19.76 1.62 18.68C1.00667 17.6 0.7 16.3733 0.7 15C0.7 13.6267 1.00667 12.4 1.62 11.32C2.24667 10.2267 3.1 9.38 4.18 8.78C5.27333 8.16667 6.48667 7.86 7.82 7.86C9.39333 7.86 10.76 8.24667 11.92 9.02C13.08 9.78 13.88 10.8533 14.32 12.24H11.1ZM16.0116 16.42C16.0116 15.3 16.2316 14.3067 16.6716 13.44C17.1249 12.5733 17.7316 11.9067 18.4916 11.44C19.2649 10.9733 20.1249 10.74 21.0716 10.74C21.8982 10.74 22.6182 10.9067 23.2316 11.24C23.8582 11.5733 24.3582 11.9933 24.7316 12.5V10.92H27.5516V22H24.7316V20.38C24.3716 20.9 23.8716 21.3333 23.2316 21.68C22.6049 22.0133 21.8782 22.18 21.0516 22.18C20.1182 22.18 19.2649 21.94 18.4916 21.46C17.7316 20.98 17.1249 20.3067 16.6716 19.44C16.2316 18.56 16.0116 17.5533 16.0116 16.42ZM24.7316 16.46C24.7316 15.78 24.5982 15.2 24.3316 14.72C24.0649 14.2267 23.7049 13.8533 23.2516 13.6C22.7982 13.3333 22.3116 13.2 21.7916 13.2C21.2716 13.2 20.7916 13.3267 20.3516 13.58C19.9116 13.8333 19.5516 14.2067 19.2716 14.7C19.0049 15.18 18.8716 15.7533 18.8716 16.42C18.8716 17.0867 19.0049 17.6733 19.2716 18.18C19.5516 18.6733 19.9116 19.0533 20.3516 19.32C20.8049 19.5867 21.2849 19.72 21.7916 19.72C22.3116 19.72 22.7982 19.5933 23.2516 19.34C23.7049 19.0733 24.0649 18.7 24.3316 18.22C24.5982 17.7267 24.7316 17.14 24.7316 16.46ZM44.0463 10.76C45.4063 10.76 46.4996 11.18 47.3263 12.02C48.1663 12.8467 48.5863 14.0067 48.5863 15.5V22H45.7863V15.88C45.7863 15.0133 45.5663 14.3533 45.1263 13.9C44.6863 13.4333 44.0863 13.2 43.3263 13.2C42.5663 13.2 41.9596 13.4333 41.5063 13.9C41.0663 14.3533 40.8463 15.0133 40.8463 15.88V22H38.0463V15.88C38.0463 15.0133 37.8263 14.3533 37.3863 13.9C36.9463 13.4333 36.3463 13.2 35.5863 13.2C34.8129 13.2 34.1996 13.4333 33.7463 13.9C33.3063 14.3533 33.0863 15.0133 33.0863 15.88V22H30.2863V10.92H33.0863V12.26C33.4463 11.7933 33.9063 11.4267 34.4663 11.16C35.0396 10.8933 35.6663 10.76 36.3463 10.76C37.2129 10.76 37.9863 10.9467 38.6663 11.32C39.3463 11.68 39.8729 12.2 40.2463 12.88C40.6063 12.24 41.1263 11.7267 41.8063 11.34C42.4996 10.9533 43.2463 10.76 44.0463 10.76ZM61.5433 16.22C61.5433 16.62 61.5166 16.98 61.4633 17.3H53.3633C53.4299 18.1 53.7099 18.7267 54.2033 19.18C54.6966 19.6333 55.3033 19.86 56.0233 19.86C57.0633 19.86 57.8033 19.4133 58.2433 18.52H61.2633C60.9433 19.5867 60.3299 20.4667 59.4233 21.16C58.5166 21.84 57.4033 22.18 56.0833 22.18C55.0166 22.18 54.0566 21.9467 53.2033 21.48C52.3633 21 51.7033 20.3267 51.2233 19.46C50.7566 18.5933 50.5233 17.5933 50.5233 16.46C50.5233 15.3133 50.7566 14.3067 51.2233 13.44C51.6899 12.5733 52.3433 11.9067 53.1833 11.44C54.0233 10.9733 54.9899 10.74 56.0833 10.74C57.1366 10.74 58.0766 10.9667 58.9033 11.42C59.7433 11.8733 60.3899 12.52 60.8433 13.36C61.3099 14.1867 61.5433 15.14 61.5433 16.22ZM58.6433 15.42C58.6299 14.7 58.3699 14.1267 57.8633 13.7C57.3566 13.26 56.7366 13.04 56.0033 13.04C55.3099 13.04 54.7233 13.2533 54.2433 13.68C53.7766 14.0933 53.4899 14.6733 53.3833 15.42H58.6433ZM67.6727 15C67.6727 13.6267 67.9793 12.4 68.5927 11.32C69.2193 10.2267 70.066 9.38 71.1327 8.78C72.2127 8.16667 73.4193 7.86 74.7527 7.86C76.3127 7.86 77.6793 8.26 78.8527 9.06C80.026 9.86 80.846 10.9667 81.3127 12.38H78.0927C77.7727 11.7133 77.3193 11.2133 76.7327 10.88C76.1593 10.5467 75.4927 10.38 74.7327 10.38C73.9193 10.38 73.1927 10.5733 72.5527 10.96C71.926 11.3333 71.4327 11.8667 71.0727 12.56C70.726 13.2533 70.5527 14.0667 70.5527 15C70.5527 15.92 70.726 16.7333 71.0727 17.44C71.4327 18.1333 71.926 18.6733 72.5527 19.06C73.1927 19.4333 73.9193 19.62 74.7327 19.62C75.4927 19.62 76.1593 19.4533 76.7327 19.12C77.3193 18.7733 77.7727 18.2667 78.0927 17.6H81.3127C80.846 19.0267 80.026 20.14 78.8527 20.94C77.6927 21.7267 76.326 22.12 74.7527 22.12C73.4193 22.12 72.2127 21.82 71.1327 21.22C70.066 20.6067 69.2193 19.76 68.5927 18.68C67.9793 17.6 67.6727 16.3733 67.6727 15ZM89.9442 10.76C90.7842 10.76 91.5309 10.9467 92.1842 11.32C92.8376 11.68 93.3442 12.22 93.7042 12.94C94.0776 13.6467 94.2642 14.5 94.2642 15.5V22H91.4642V15.88C91.4642 15 91.2442 14.3267 90.8042 13.86C90.3642 13.38 89.7642 13.14 89.0042 13.14C88.2309 13.14 87.6176 13.38 87.1642 13.86C86.7242 14.3267 86.5042 15 86.5042 15.88V22H83.7042V7.2H86.5042V12.3C86.8642 11.82 87.3442 11.4467 87.9442 11.18C88.5442 10.9 89.2109 10.76 89.9442 10.76ZM96.2069 16.42C96.2069 15.3 96.4269 14.3067 96.8669 13.44C97.3202 12.5733 97.9269 11.9067 98.6869 11.44C99.4602 10.9733 100.32 10.74 101.267 10.74C102.094 10.74 102.814 10.9067 103.427 11.24C104.054 11.5733 104.554 11.9933 104.927 12.5V10.92H107.747V22H104.927V20.38C104.567 20.9 104.067 21.3333 103.427 21.68C102.8 22.0133 102.074 22.18 101.247 22.18C100.314 22.18 99.4602 21.94 98.6869 21.46C97.9269 20.98 97.3202 20.3067 96.8669 19.44C96.4269 18.56 96.2069 17.5533 96.2069 16.42ZM104.927 16.46C104.927 15.78 104.794 15.2 104.527 14.72C104.26 14.2267 103.9 13.8533 103.447 13.6C102.994 13.3333 102.507 13.2 101.987 13.2C101.467 13.2 100.987 13.3267 100.547 13.58C100.107 13.8333 99.7469 14.2067 99.4669 14.7C99.2002 15.18 99.0669 15.7533 99.0669 16.42C99.0669 17.0867 99.2002 17.6733 99.4669 18.18C99.7469 18.6733 100.107 19.0533 100.547 19.32C101 19.5867 101.48 19.72 101.987 19.72C102.507 19.72 102.994 19.5933 103.447 19.34C103.9 19.0733 104.26 18.7 104.527 18.22C104.794 17.7267 104.927 17.14 104.927 16.46ZM116.622 10.76C117.942 10.76 119.008 11.18 119.822 12.02C120.635 12.8467 121.042 14.0067 121.042 15.5V22H118.242V15.88C118.242 15 118.022 14.3267 117.582 13.86C117.142 13.38 116.542 13.14 115.782 13.14C115.008 13.14 114.395 13.38 113.942 13.86C113.502 14.3267 113.282 15 113.282 15.88V22H110.482V10.92H113.282V12.3C113.655 11.82 114.128 11.4467 114.702 11.18C115.288 10.9 115.928 10.76 116.622 10.76ZM128.044 10.74C128.871 10.74 129.598 10.9067 130.224 11.24C130.851 11.56 131.344 11.98 131.704 12.5V10.92H134.524V22.08C134.524 23.1067 134.318 24.02 133.904 24.82C133.491 25.6333 132.871 26.2733 132.044 26.74C131.218 27.22 130.218 27.46 129.044 27.46C127.471 27.46 126.178 27.0933 125.164 26.36C124.164 25.6267 123.598 24.6267 123.464 23.36H126.244C126.391 23.8667 126.704 24.2667 127.184 24.56C127.678 24.8667 128.271 25.02 128.964 25.02C129.778 25.02 130.438 24.7733 130.944 24.28C131.451 23.8 131.704 23.0667 131.704 22.08V20.36C131.344 20.88 130.844 21.3133 130.204 21.66C129.578 22.0067 128.858 22.18 128.044 22.18C127.111 22.18 126.258 21.94 125.484 21.46C124.711 20.98 124.098 20.3067 123.644 19.44C123.204 18.56 122.984 17.5533 122.984 16.42C122.984 15.3 123.204 14.3067 123.644 13.44C124.098 12.5733 124.704 11.9067 125.464 11.44C126.238 10.9733 127.098 10.74 128.044 10.74ZM131.704 16.46C131.704 15.78 131.571 15.2 131.304 14.72C131.038 14.2267 130.678 13.8533 130.224 13.6C129.771 13.3333 129.284 13.2 128.764 13.2C128.244 13.2 127.764 13.3267 127.324 13.58C126.884 13.8333 126.524 14.2067 126.244 14.7C125.978 15.18 125.844 15.7533 125.844 16.42C125.844 17.0867 125.978 17.6733 126.244 18.18C126.524 18.6733 126.884 19.0533 127.324 19.32C127.778 19.5867 128.258 19.72 128.764 19.72C129.284 19.72 129.771 19.5933 130.224 19.34C130.678 19.0733 131.038 18.7 131.304 18.22C131.571 17.7267 131.704 17.14 131.704 16.46ZM147.559 16.22C147.559 16.62 147.532 16.98 147.479 17.3H139.379C139.446 18.1 139.726 18.7267 140.219 19.18C140.712 19.6333 141.319 19.86 142.039 19.86C143.079 19.86 143.819 19.4133 144.259 18.52H147.279C146.959 19.5867 146.346 20.4667 145.439 21.16C144.532 21.84 143.419 22.18 142.099 22.18C141.032 22.18 140.072 21.9467 139.219 21.48C138.379 21 137.719 20.3267 137.239 19.46C136.772 18.5933 136.539 17.5933 136.539 16.46C136.539 15.3133 136.772 14.3067 137.239 13.44C137.706 12.5733 138.359 11.9067 139.199 11.44C140.039 10.9733 141.006 10.74 142.099 10.74C143.152 10.74 144.092 10.9667 144.919 11.42C145.759 11.8733 146.406 12.52 146.859 13.36C147.326 14.1867 147.559 15.14 147.559 16.22ZM144.659 15.42C144.646 14.7 144.386 14.1267 143.879 13.7C143.372 13.26 142.752 13.04 142.019 13.04C141.326 13.04 140.739 13.2533 140.259 13.68C139.792 14.0933 139.506 14.6733 139.399 15.42H144.659ZM152.403 12.64C152.763 12.0533 153.229 11.5933 153.803 11.26C154.389 10.9267 155.056 10.76 155.803 10.76V13.7H155.063C154.183 13.7 153.516 13.9067 153.063 14.32C152.623 14.7333 152.403 15.4533 152.403 16.48V22H149.603V10.92H152.403V12.64Z" fill="white"/>
<rect width="183" height="38" transform="translate(0 34)" fill="#ECD430"/>
<path d="M16.18 57.78H20.78V60H13.38V46.04H16.18V57.78ZM27.4797 60.18C26.413 60.18 25.453 59.9467 24.5997 59.48C23.7464 59 23.073 58.3267 22.5797 57.46C22.0997 56.5933 21.8597 55.5933 21.8597 54.46C21.8597 53.3267 22.1064 52.3267 22.5997 51.46C23.1064 50.5933 23.793 49.9267 24.6597 49.46C25.5264 48.98 26.493 48.74 27.5597 48.74C28.6264 48.74 29.593 48.98 30.4597 49.46C31.3264 49.9267 32.0064 50.5933 32.4997 51.46C33.0064 52.3267 33.2597 53.3267 33.2597 54.46C33.2597 55.5933 32.9997 56.5933 32.4797 57.46C31.973 58.3267 31.2797 59 30.3997 59.48C29.533 59.9467 28.5597 60.18 27.4797 60.18ZM27.4797 57.74C27.9864 57.74 28.4597 57.62 28.8997 57.38C29.353 57.1267 29.713 56.7533 29.9797 56.26C30.2464 55.7667 30.3797 55.1667 30.3797 54.46C30.3797 53.4067 30.0997 52.6 29.5397 52.04C28.993 51.4667 28.3197 51.18 27.5197 51.18C26.7197 51.18 26.0464 51.4667 25.4997 52.04C24.9664 52.6 24.6997 53.4067 24.6997 54.46C24.6997 55.5133 24.9597 56.3267 25.4797 56.9C26.013 57.46 26.6797 57.74 27.4797 57.74ZM45.9136 48.92L39.0536 65.24H36.0736L38.4736 59.72L34.0336 48.92H37.1736L40.0336 56.66L42.9336 48.92H45.9136ZM46.703 54.42C46.703 53.3 46.923 52.3067 47.363 51.44C47.8163 50.5733 48.423 49.9067 49.183 49.44C49.9563 48.9733 50.8163 48.74 51.763 48.74C52.5896 48.74 53.3096 48.9067 53.923 49.24C54.5496 49.5733 55.0496 49.9933 55.423 50.5V48.92H58.243V60H55.423V58.38C55.063 58.9 54.563 59.3333 53.923 59.68C53.2963 60.0133 52.5696 60.18 51.743 60.18C50.8096 60.18 49.9563 59.94 49.183 59.46C48.423 58.98 47.8163 58.3067 47.363 57.44C46.923 56.56 46.703 55.5533 46.703 54.42ZM55.423 54.46C55.423 53.78 55.2896 53.2 55.023 52.72C54.7563 52.2267 54.3963 51.8533 53.943 51.6C53.4896 51.3333 53.003 51.2 52.483 51.2C51.963 51.2 51.483 51.3267 51.043 51.58C50.603 51.8333 50.243 52.2067 49.963 52.7C49.6963 53.18 49.563 53.7533 49.563 54.42C49.563 55.0867 49.6963 55.6733 49.963 56.18C50.243 56.6733 50.603 57.0533 51.043 57.32C51.4963 57.5867 51.9763 57.72 52.483 57.72C53.003 57.72 53.4896 57.5933 53.943 57.34C54.3963 57.0733 54.7563 56.7 55.023 56.22C55.2896 55.7267 55.423 55.14 55.423 54.46ZM63.7777 45.2V60H60.9777V45.2H63.7777ZM69.8041 51.22V56.58C69.8041 56.9533 69.8907 57.2267 70.0641 57.4C70.2507 57.56 70.5574 57.64 70.9841 57.64H72.2841V60H70.5241C68.1641 60 66.9841 58.8533 66.9841 56.56V51.22H65.6641V48.92H66.9841V46.18H69.8041V48.92H72.2841V51.22H69.8041ZM84.898 48.92L78.038 65.24H75.058L77.458 59.72L73.018 48.92H76.158L79.018 56.66L81.918 48.92H84.898ZM95.993 60.14C95.0196 60.14 94.1396 59.9733 93.353 59.64C92.5796 59.3067 91.9663 58.8267 91.513 58.2C91.0596 57.5733 90.8263 56.8333 90.813 55.98H93.813C93.853 56.5533 94.053 57.0067 94.413 57.34C94.7863 57.6733 95.293 57.84 95.933 57.84C96.5863 57.84 97.0996 57.6867 97.473 57.38C97.8463 57.06 98.033 56.6467 98.033 56.14C98.033 55.7267 97.9063 55.3867 97.653 55.12C97.3996 54.8533 97.0796 54.6467 96.693 54.5C96.3196 54.34 95.7996 54.1667 95.133 53.98C94.2263 53.7133 93.4863 53.4533 92.913 53.2C92.353 52.9333 91.8663 52.54 91.453 52.02C91.053 51.4867 90.853 50.78 90.853 49.9C90.853 49.0733 91.0596 48.3533 91.473 47.74C91.8863 47.1267 92.4663 46.66 93.213 46.34C93.9596 46.0067 94.813 45.84 95.773 45.84C97.213 45.84 98.3796 46.1933 99.273 46.9C100.18 47.5933 100.68 48.5667 100.773 49.82H97.693C97.6663 49.34 97.4596 48.9467 97.073 48.64C96.6996 48.32 96.1996 48.16 95.573 48.16C95.0263 48.16 94.5863 48.3 94.253 48.58C93.933 48.86 93.773 49.2667 93.773 49.8C93.773 50.1733 93.893 50.4867 94.133 50.74C94.3863 50.98 94.693 51.18 95.053 51.34C95.4263 51.4867 95.9463 51.66 96.613 51.86C97.5196 52.1267 98.2596 52.3933 98.833 52.66C99.4063 52.9267 99.8996 53.3267 100.313 53.86C100.726 54.3933 100.933 55.0933 100.933 55.96C100.933 56.7067 100.74 57.4 100.353 58.04C99.9663 58.68 99.3996 59.1933 98.653 59.58C97.9063 59.9533 97.0196 60.14 95.993 60.14ZM113.82 48.92V60H111V58.6C110.64 59.08 110.167 59.46 109.58 59.74C109.007 60.0067 108.38 60.14 107.7 60.14C106.834 60.14 106.067 59.96 105.4 59.6C104.734 59.2267 104.207 58.6867 103.82 57.98C103.447 57.26 103.26 56.4067 103.26 55.42V48.92H106.06V55.02C106.06 55.9 106.28 56.58 106.72 57.06C107.16 57.5267 107.76 57.76 108.52 57.76C109.294 57.76 109.9 57.5267 110.34 57.06C110.78 56.58 111 55.9 111 55.02V48.92H113.82ZM130.343 48.76C131.703 48.76 132.796 49.18 133.623 50.02C134.463 50.8467 134.883 52.0067 134.883 53.5V60H132.083V53.88C132.083 53.0133 131.863 52.3533 131.423 51.9C130.983 51.4333 130.383 51.2 129.623 51.2C128.863 51.2 128.256 51.4333 127.803 51.9C127.363 52.3533 127.143 53.0133 127.143 53.88V60H124.343V53.88C124.343 53.0133 124.123 52.3533 123.683 51.9C123.243 51.4333 122.643 51.2 121.883 51.2C121.11 51.2 120.496 51.4333 120.043 51.9C119.603 52.3533 119.383 53.0133 119.383 53.88V60H116.583V48.92H119.383V50.26C119.743 49.7933 120.203 49.4267 120.763 49.16C121.336 48.8933 121.963 48.76 122.643 48.76C123.51 48.76 124.283 48.9467 124.963 49.32C125.643 49.68 126.17 50.2 126.543 50.88C126.903 50.24 127.423 49.7267 128.103 49.34C128.796 48.9533 129.543 48.76 130.343 48.76ZM151.3 48.76C152.66 48.76 153.753 49.18 154.58 50.02C155.42 50.8467 155.84 52.0067 155.84 53.5V60H153.04V53.88C153.04 53.0133 152.82 52.3533 152.38 51.9C151.94 51.4333 151.34 51.2 150.58 51.2C149.82 51.2 149.213 51.4333 148.76 51.9C148.32 52.3533 148.1 53.0133 148.1 53.88V60H145.3V53.88C145.3 53.0133 145.08 52.3533 144.64 51.9C144.2 51.4333 143.6 51.2 142.84 51.2C142.067 51.2 141.453 51.4333 141 51.9C140.56 52.3533 140.34 53.0133 140.34 53.88V60H137.54V48.92H140.34V50.26C140.7 49.7933 141.16 49.4267 141.72 49.16C142.293 48.8933 142.92 48.76 143.6 48.76C144.467 48.76 145.24 48.9467 145.92 49.32C146.6 49.68 147.127 50.2 147.5 50.88C147.86 50.24 148.38 49.7267 149.06 49.34C149.753 48.9533 150.5 48.76 151.3 48.76ZM159.917 47.6C159.424 47.6 159.011 47.4467 158.677 47.14C158.357 46.82 158.197 46.4267 158.197 45.96C158.197 45.4933 158.357 45.1067 158.677 44.8C159.011 44.48 159.424 44.32 159.917 44.32C160.411 44.32 160.817 44.48 161.137 44.8C161.471 45.1067 161.637 45.4933 161.637 45.96C161.637 46.4267 161.471 46.82 161.137 47.14C160.817 47.4467 160.411 47.6 159.917 47.6ZM161.297 48.92V60H158.497V48.92H161.297ZM167.324 51.22V56.58C167.324 56.9533 167.41 57.2267 167.584 57.4C167.77 57.56 168.077 57.64 168.504 57.64H169.804V60H168.044C165.684 60 164.504 58.8533 164.504 56.56V51.22H163.184V48.92H164.504V46.18H167.324V48.92H169.804V51.22H167.324Z" fill="#103294"/>
<path d="M193.328 57.208C194.864 55.928 196.088 54.864 197 54.016C197.912 53.152 198.672 52.256 199.28 51.328C199.888 50.4 200.192 49.488 200.192 48.592C200.192 47.776 200 47.136 199.616 46.672C199.232 46.208 198.64 45.976 197.84 45.976C197.04 45.976 196.424 46.248 195.992 46.792C195.56 47.32 195.336 48.048 195.32 48.976H192.056C192.12 47.056 192.688 45.6 193.76 44.608C194.848 43.616 196.224 43.12 197.888 43.12C199.712 43.12 201.112 43.608 202.088 44.584C203.064 45.544 203.552 46.816 203.552 48.4C203.552 49.648 203.216 50.84 202.544 51.976C201.872 53.112 201.104 54.104 200.24 54.952C199.376 55.784 198.248 56.792 196.856 57.976H203.936V60.76H192.08V58.264L193.328 57.208ZM206.053 52.024C206.053 49.256 206.549 47.088 207.541 45.52C208.549 43.952 210.213 43.168 212.533 43.168C214.853 43.168 216.509 43.952 217.501 45.52C218.509 47.088 219.013 49.256 219.013 52.024C219.013 54.808 218.509 56.992 217.501 58.576C216.509 60.16 214.853 60.952 212.533 60.952C210.213 60.952 208.549 60.16 207.541 58.576C206.549 56.992 206.053 54.808 206.053 52.024ZM215.701 52.024C215.701 50.84 215.621 49.848 215.461 49.048C215.317 48.232 215.013 47.568 214.549 47.056C214.101 46.544 213.429 46.288 212.533 46.288C211.637 46.288 210.957 46.544 210.493 47.056C210.045 47.568 209.741 48.232 209.581 49.048C209.437 49.848 209.365 50.84 209.365 52.024C209.365 53.24 209.437 54.264 209.581 55.096C209.725 55.912 210.029 56.576 210.493 57.088C210.957 57.584 211.637 57.832 212.533 57.832C213.429 57.832 214.109 57.584 214.573 57.088C215.037 56.576 215.341 55.912 215.485 55.096C215.629 54.264 215.701 53.24 215.701 52.024ZM222.625 57.208C224.161 55.928 225.385 54.864 226.297 54.016C227.209 53.152 227.969 52.256 228.577 51.328C229.185 50.4 229.489 49.488 229.489 48.592C229.489 47.776 229.297 47.136 228.913 46.672C228.529 46.208 227.937 45.976 227.137 45.976C226.337 45.976 225.721 46.248 225.289 46.792C224.857 47.32 224.633 48.048 224.617 48.976H221.353C221.417 47.056 221.985 45.6 223.057 44.608C224.145 43.616 225.521 43.12 227.185 43.12C229.009 43.12 230.409 43.608 231.385 44.584C232.361 45.544 232.849 46.816 232.849 48.4C232.849 49.648 232.513 50.84 231.841 51.976C231.169 53.112 230.401 54.104 229.537 54.952C228.673 55.784 227.545 56.792 226.153 57.976H233.233V60.76H221.377V58.264L222.625 57.208ZM247.11 46.408H239.334V50.512C239.67 50.096 240.15 49.76 240.774 49.504C241.398 49.232 242.062 49.096 242.766 49.096C244.046 49.096 245.094 49.376 245.91 49.936C246.726 50.496 247.318 51.216 247.686 52.096C248.054 52.96 248.238 53.888 248.238 54.88C248.238 56.72 247.71 58.2 246.654 59.32C245.614 60.44 244.126 61 242.19 61C240.366 61 238.91 60.544 237.822 59.632C236.734 58.72 236.118 57.528 235.974 56.056H239.238C239.382 56.696 239.702 57.208 240.198 57.592C240.71 57.976 241.358 58.168 242.142 58.168C243.086 58.168 243.798 57.872 244.278 57.28C244.758 56.688 244.998 55.904 244.998 54.928C244.998 53.936 244.75 53.184 244.254 52.672C243.774 52.144 243.062 51.88 242.118 51.88C241.446 51.88 240.886 52.048 240.438 52.384C239.99 52.72 239.67 53.168 239.478 53.728H236.262V43.456H247.11V46.408Z" fill="white"/>
</svg>
