<svg width="284" height="44" viewBox="0 0 284 44" fill="none" xmlns="http://www.w3.org/2000/svg">
<path d="M5.016 27.336H10.536V30H1.656V13.248H5.016V27.336ZM18.5756 30.216C17.2956 30.216 16.1436 29.936 15.1196 29.376C14.0956 28.8 13.2876 27.992 12.6956 26.952C12.1196 25.912 11.8316 24.712 11.8316 23.352C11.8316 21.992 12.1276 20.792 12.7196 19.752C13.3276 18.712 14.1516 17.912 15.1916 17.352C16.2316 16.776 17.3916 16.488 18.6716 16.488C19.9516 16.488 21.1116 16.776 22.1516 17.352C23.1916 17.912 24.0076 18.712 24.5996 19.752C25.2076 20.792 25.5116 21.992 25.5116 23.352C25.5116 24.712 25.1996 25.912 24.5756 26.952C23.9676 27.992 23.1356 28.8 22.0796 29.376C21.0396 29.936 19.8716 30.216 18.5756 30.216ZM18.5756 27.288C19.1836 27.288 19.7516 27.144 20.2796 26.856C20.8236 26.552 21.2556 26.104 21.5756 25.512C21.8956 24.92 22.0556 24.2 22.0556 23.352C22.0556 22.088 21.7196 21.12 21.0476 20.448C20.3916 19.76 19.5836 19.416 18.6236 19.416C17.6636 19.416 16.8556 19.76 16.1996 20.448C15.5596 21.12 15.2396 22.088 15.2396 23.352C15.2396 24.616 15.5516 25.592 16.1756 26.28C16.8156 26.952 17.6156 27.288 18.5756 27.288ZM40.6963 16.704L32.4643 36.288H28.8883L31.7683 29.664L26.4403 16.704H30.2083L33.6403 25.992L37.1203 16.704H40.6963ZM41.6436 23.304C41.6436 21.96 41.9076 20.768 42.4356 19.728C42.9796 18.688 43.7076 17.888 44.6196 17.328C45.5476 16.768 46.5796 16.488 47.7156 16.488C48.7076 16.488 49.5716 16.688 50.3076 17.088C51.0596 17.488 51.6596 17.992 52.1076 18.6V16.704H55.4916V30H52.1076V28.056C51.6756 28.68 51.0756 29.2 50.3076 29.616C49.5556 30.016 48.6836 30.216 47.6916 30.216C46.5716 30.216 45.5476 29.928 44.6196 29.352C43.7076 28.776 42.9796 27.968 42.4356 26.928C41.9076 25.872 41.6436 24.664 41.6436 23.304ZM52.1076 23.352C52.1076 22.536 51.9476 21.84 51.6276 21.264C51.3076 20.672 50.8756 20.224 50.3316 19.92C49.7876 19.6 49.2036 19.44 48.5796 19.44C47.9556 19.44 47.3796 19.592 46.8516 19.896C46.3236 20.2 45.8916 20.648 45.5556 21.24C45.2356 21.816 45.0756 22.504 45.0756 23.304C45.0756 24.104 45.2356 24.808 45.5556 25.416C45.8916 26.008 46.3236 26.464 46.8516 26.784C47.3956 27.104 47.9716 27.264 48.5796 27.264C49.2036 27.264 49.7876 27.112 50.3316 26.808C50.8756 26.488 51.3076 26.04 51.6276 25.464C51.9476 24.872 52.1076 24.168 52.1076 23.352ZM62.1332 12.24V30H58.7732V12.24H62.1332ZM69.3649 19.464V25.896C69.3649 26.344 69.4689 26.672 69.6769 26.88C69.9009 27.072 70.2689 27.168 70.7809 27.168H72.3409V30H70.2289C67.3969 30 65.9809 28.624 65.9809 25.872V19.464H64.3969V16.704H65.9809V13.416H69.3649V16.704H72.3409V19.464H69.3649ZM87.4776 16.704L79.2456 36.288H75.6696L78.5496 29.664L73.2216 16.704H76.9896L80.4216 25.992L83.9016 16.704H87.4776Z" fill="white"/>
<rect width="121" height="44" transform="translate(96)" fill="#ECD430"/>
<path d="M115.44 30.168C114.272 30.168 113.216 29.968 112.272 29.568C111.344 29.168 110.608 28.592 110.064 27.84C109.52 27.088 109.24 26.2 109.224 25.176H112.824C112.872 25.864 113.112 26.408 113.544 26.808C113.992 27.208 114.6 27.408 115.368 27.408C116.152 27.408 116.768 27.224 117.216 26.856C117.664 26.472 117.888 25.976 117.888 25.368C117.888 24.872 117.736 24.464 117.432 24.144C117.128 23.824 116.744 23.576 116.28 23.4C115.832 23.208 115.208 23 114.408 22.776C113.32 22.456 112.432 22.144 111.744 21.84C111.072 21.52 110.488 21.048 109.992 20.424C109.512 19.784 109.272 18.936 109.272 17.88C109.272 16.888 109.52 16.024 110.016 15.288C110.512 14.552 111.208 13.992 112.104 13.608C113 13.208 114.024 13.008 115.176 13.008C116.904 13.008 118.304 13.432 119.376 14.28C120.464 15.112 121.064 16.28 121.176 17.784H117.48C117.448 17.208 117.2 16.736 116.736 16.368C116.288 15.984 115.688 15.792 114.936 15.792C114.28 15.792 113.752 15.96 113.352 16.296C112.968 16.632 112.776 17.12 112.776 17.76C112.776 18.208 112.92 18.584 113.208 18.888C113.512 19.176 113.88 19.416 114.312 19.608C114.76 19.784 115.384 19.992 116.184 20.232C117.272 20.552 118.16 20.872 118.848 21.192C119.536 21.512 120.128 21.992 120.624 22.632C121.12 23.272 121.368 24.112 121.368 25.152C121.368 26.048 121.136 26.88 120.672 27.648C120.208 28.416 119.528 29.032 118.632 29.496C117.736 29.944 116.672 30.168 115.44 30.168ZM136.833 16.704V30H133.449V28.32C133.017 28.896 132.449 29.352 131.745 29.688C131.057 30.008 130.305 30.168 129.489 30.168C128.449 30.168 127.529 29.952 126.729 29.52C125.929 29.072 125.297 28.424 124.833 27.576C124.385 26.712 124.161 25.688 124.161 24.504V16.704H127.521V24.024C127.521 25.08 127.785 25.896 128.313 26.472C128.841 27.032 129.561 27.312 130.473 27.312C131.401 27.312 132.129 27.032 132.657 26.472C133.185 25.896 133.449 25.08 133.449 24.024V16.704H136.833ZM156.66 16.512C158.292 16.512 159.604 17.016 160.596 18.024C161.604 19.016 162.108 20.408 162.108 22.2V30H158.748V22.656C158.748 21.616 158.484 20.824 157.956 20.28C157.428 19.72 156.708 19.44 155.796 19.44C154.884 19.44 154.156 19.72 153.612 20.28C153.084 20.824 152.82 21.616 152.82 22.656V30H149.46V22.656C149.46 21.616 149.196 20.824 148.668 20.28C148.14 19.72 147.42 19.44 146.508 19.44C145.58 19.44 144.844 19.72 144.3 20.28C143.772 20.824 143.508 21.616 143.508 22.656V30H140.148V16.704H143.508V18.312C143.94 17.752 144.492 17.312 145.164 16.992C145.852 16.672 146.604 16.512 147.42 16.512C148.46 16.512 149.388 16.736 150.204 17.184C151.02 17.616 151.652 18.24 152.1 19.056C152.532 18.288 153.156 17.672 153.972 17.208C154.804 16.744 155.7 16.512 156.66 16.512ZM181.809 16.512C183.441 16.512 184.753 17.016 185.745 18.024C186.753 19.016 187.257 20.408 187.257 22.2V30H183.897V22.656C183.897 21.616 183.633 20.824 183.105 20.28C182.577 19.72 181.857 19.44 180.945 19.44C180.033 19.44 179.305 19.72 178.761 20.28C178.233 20.824 177.969 21.616 177.969 22.656V30H174.609V22.656C174.609 21.616 174.345 20.824 173.817 20.28C173.289 19.72 172.569 19.44 171.657 19.44C170.729 19.44 169.993 19.72 169.449 20.28C168.921 20.824 168.657 21.616 168.657 22.656V30H165.297V16.704H168.657V18.312C169.089 17.752 169.641 17.312 170.313 16.992C171.001 16.672 171.753 16.512 172.569 16.512C173.609 16.512 174.537 16.736 175.353 17.184C176.169 17.616 176.801 18.24 177.249 19.056C177.681 18.288 178.305 17.672 179.121 17.208C179.953 16.744 180.849 16.512 181.809 16.512ZM192.149 15.12C191.557 15.12 191.061 14.936 190.661 14.568C190.277 14.184 190.085 13.712 190.085 13.152C190.085 12.592 190.277 12.128 190.661 11.76C191.061 11.376 191.557 11.184 192.149 11.184C192.741 11.184 193.229 11.376 193.613 11.76C194.013 12.128 194.213 12.592 194.213 13.152C194.213 13.712 194.013 14.184 193.613 14.568C193.229 14.936 192.741 15.12 192.149 15.12ZM193.805 16.704V30H190.445V16.704H193.805ZM201.037 19.464V25.896C201.037 26.344 201.141 26.672 201.349 26.88C201.573 27.072 201.941 27.168 202.453 27.168H204.013V30H201.901C199.069 30 197.653 28.624 197.653 25.872V19.464H196.069V16.704H197.653V13.416H201.037V16.704H204.013V19.464H201.037Z" fill="#103294"/>
<path d="M227.328 26.208C228.864 24.928 230.088 23.864 231 23.016C231.912 22.152 232.672 21.256 233.28 20.328C233.888 19.4 234.192 18.488 234.192 17.592C234.192 16.776 234 16.136 233.616 15.672C233.232 15.208 232.64 14.976 231.84 14.976C231.04 14.976 230.424 15.248 229.992 15.792C229.56 16.32 229.336 17.048 229.32 17.976H226.056C226.12 16.056 226.688 14.6 227.76 13.608C228.848 12.616 230.224 12.12 231.888 12.12C233.712 12.12 235.112 12.608 236.088 13.584C237.064 14.544 237.552 15.816 237.552 17.4C237.552 18.648 237.216 19.84 236.544 20.976C235.872 22.112 235.104 23.104 234.24 23.952C233.376 24.784 232.248 25.792 230.856 26.976H237.936V29.76H226.08V27.264L227.328 26.208ZM240.053 21.024C240.053 18.256 240.549 16.088 241.541 14.52C242.549 12.952 244.213 12.168 246.533 12.168C248.853 12.168 250.509 12.952 251.501 14.52C252.509 16.088 253.013 18.256 253.013 21.024C253.013 23.808 252.509 25.992 251.501 27.576C250.509 29.16 248.853 29.952 246.533 29.952C244.213 29.952 242.549 29.16 241.541 27.576C240.549 25.992 240.053 23.808 240.053 21.024ZM249.701 21.024C249.701 19.84 249.621 18.848 249.461 18.048C249.317 17.232 249.013 16.568 248.549 16.056C248.101 15.544 247.429 15.288 246.533 15.288C245.637 15.288 244.957 15.544 244.493 16.056C244.045 16.568 243.741 17.232 243.581 18.048C243.437 18.848 243.365 19.84 243.365 21.024C243.365 22.24 243.437 23.264 243.581 24.096C243.725 24.912 244.029 25.576 244.493 26.088C244.957 26.584 245.637 26.832 246.533 26.832C247.429 26.832 248.109 26.584 248.573 26.088C249.037 25.576 249.341 24.912 249.485 24.096C249.629 23.264 249.701 22.24 249.701 21.024ZM256.625 26.208C258.161 24.928 259.385 23.864 260.297 23.016C261.209 22.152 261.969 21.256 262.577 20.328C263.185 19.4 263.489 18.488 263.489 17.592C263.489 16.776 263.297 16.136 262.913 15.672C262.529 15.208 261.937 14.976 261.137 14.976C260.337 14.976 259.721 15.248 259.289 15.792C258.857 16.32 258.633 17.048 258.617 17.976H255.353C255.417 16.056 255.985 14.6 257.057 13.608C258.145 12.616 259.521 12.12 261.185 12.12C263.009 12.12 264.409 12.608 265.385 13.584C266.361 14.544 266.849 15.816 266.849 17.4C266.849 18.648 266.513 19.84 265.841 20.976C265.169 22.112 264.401 23.104 263.537 23.952C262.673 24.784 261.545 25.792 260.153 26.976H267.233V29.76H255.377V27.264L256.625 26.208ZM281.11 15.408H273.334V19.512C273.67 19.096 274.15 18.76 274.774 18.504C275.398 18.232 276.062 18.096 276.766 18.096C278.046 18.096 279.094 18.376 279.91 18.936C280.726 19.496 281.318 20.216 281.686 21.096C282.054 21.96 282.238 22.888 282.238 23.88C282.238 25.72 281.71 27.2 280.654 28.32C279.614 29.44 278.126 30 276.19 30C274.366 30 272.91 29.544 271.822 28.632C270.734 27.72 270.118 26.528 269.974 25.056H273.238C273.382 25.696 273.702 26.208 274.198 26.592C274.71 26.976 275.358 27.168 276.142 27.168C277.086 27.168 277.798 26.872 278.278 26.28C278.758 25.688 278.998 24.904 278.998 23.928C278.998 22.936 278.75 22.184 278.254 21.672C277.774 21.144 277.062 20.88 276.118 20.88C275.446 20.88 274.886 21.048 274.438 21.384C273.99 21.72 273.67 22.168 273.478 22.728H270.262V12.456H281.11V15.408Z" fill="white"/>
</svg>
